<svg width="15" height="32" viewBox="0 0 15 32" fill="none" xmlns="http://www.w3.org/2000/svg">
<mask id="path-1-outside-1_1636_54468" maskUnits="userSpaceOnUse" x="0" y="0.0327148" width="15" height="31" fill="black">
<rect fill="white" y="0.0327148" width="15" height="31"/>
<path d="M2.20442 8.47671V2.75271H12.1764V29.0327H5.76842V8.47671H2.20442Z"/>
</mask>
<path d="M2.20442 8.47671V2.75271H12.1764V29.0327H5.76842V8.47671H2.20442Z" fill="#F5483B"/>
<path d="M2.20442 8.47671H0.204422V10.4767H2.20442V8.47671ZM2.20442 2.75271V0.752714H0.204422V2.75271H2.20442ZM12.1764 2.75271H14.1764V0.752714H12.1764V2.75271ZM12.1764 29.0327V31.0327H14.1764V29.0327H12.1764ZM5.76842 29.0327H3.76842V31.0327H5.76842V29.0327ZM5.76842 8.47671H7.76842V6.47671H5.76842V8.47671ZM2.20442 8.47671H4.20442V2.75271H2.20442H0.204422V8.47671H2.20442ZM2.20442 2.75271V4.75271H12.1764V2.75271V0.752714H2.20442V2.75271ZM12.1764 2.75271H10.1764V29.0327H12.1764H14.1764V2.75271H12.1764ZM12.1764 29.0327V27.0327H5.76842V29.0327V31.0327H12.1764V29.0327ZM5.76842 29.0327H7.76842V8.47671H5.76842H3.76842V29.0327H5.76842ZM5.76842 8.47671V6.47671H2.20442V8.47671V10.4767H5.76842V8.47671Z" fill="white" mask="url(#path-1-outside-1_1636_54468)"/>
</svg>
