<svg width="23" height="31" viewBox="0 0 23 31" fill="none" xmlns="http://www.w3.org/2000/svg">
<mask id="path-1-outside-1_1636_54470" maskUnits="userSpaceOnUse" x="0" y="0.0327148" width="23" height="31" fill="black">
<rect fill="white" y="0.0327148" width="23" height="31"/>
<path d="M2.6208 24.1007C3.4368 23.4527 3.8088 23.1527 3.7368 23.2007C6.0888 21.2567 7.9368 19.6607 9.2808 18.4127C10.6488 17.1647 11.8008 15.8567 12.7368 14.4887C13.6728 13.1207 14.1408 11.7887 14.1408 10.4927C14.1408 9.50871 13.9128 8.74071 13.4568 8.18871C13.0008 7.63671 12.3168 7.36071 11.4048 7.36071C10.4928 7.36071 9.7728 7.70871 9.2448 8.40471C8.7408 9.07671 8.4888 10.0367 8.4888 11.2847H2.5488C2.5968 9.24471 3.0288 7.54071 3.8448 6.17271C4.6848 4.80471 5.7768 3.79671 7.1208 3.14871C8.4888 2.50071 10.0008 2.17671 11.6568 2.17671C14.5128 2.17671 16.6608 2.90871 18.1008 4.37271C19.5648 5.83671 20.2968 7.74471 20.2968 10.0967C20.2968 12.6647 19.4208 15.0527 17.6688 17.2607C15.9168 19.4447 13.6848 21.5807 10.9728 23.6687H20.6928V28.6727H2.6208V24.1007Z"/>
</mask>
<path d="M2.6208 24.1007C3.4368 23.4527 3.8088 23.1527 3.7368 23.2007C6.0888 21.2567 7.9368 19.6607 9.2808 18.4127C10.6488 17.1647 11.8008 15.8567 12.7368 14.4887C13.6728 13.1207 14.1408 11.7887 14.1408 10.4927C14.1408 9.50871 13.9128 8.74071 13.4568 8.18871C13.0008 7.63671 12.3168 7.36071 11.4048 7.36071C10.4928 7.36071 9.7728 7.70871 9.2448 8.40471C8.7408 9.07671 8.4888 10.0367 8.4888 11.2847H2.5488C2.5968 9.24471 3.0288 7.54071 3.8448 6.17271C4.6848 4.80471 5.7768 3.79671 7.1208 3.14871C8.4888 2.50071 10.0008 2.17671 11.6568 2.17671C14.5128 2.17671 16.6608 2.90871 18.1008 4.37271C19.5648 5.83671 20.2968 7.74471 20.2968 10.0967C20.2968 12.6647 19.4208 15.0527 17.6688 17.2607C15.9168 19.4447 13.6848 21.5807 10.9728 23.6687H20.6928V28.6727H2.6208V24.1007Z" fill="#F5483B"/>
<path d="M2.6208 24.1007L1.37703 22.5345L0.620797 23.135V24.1007H2.6208ZM3.7368 23.2007L2.46263 21.6591L4.8462 24.8648L3.7368 23.2007ZM9.2808 18.4127L7.93287 16.9352L7.92636 16.9411L7.91989 16.9471L9.2808 18.4127ZM13.4568 8.18871L11.9149 9.46248L11.9149 9.46248L13.4568 8.18871ZM9.2448 8.40471L7.65139 7.19592L7.6448 7.20471L9.2448 8.40471ZM8.4888 11.2847V13.2847H10.4888V11.2847H8.4888ZM2.5488 11.2847L0.54935 11.2377L0.501184 13.2847H2.5488V11.2847ZM3.8448 6.17271L2.14045 5.12619L2.13374 5.13713L2.12716 5.14816L3.8448 6.17271ZM7.1208 3.14871L6.2646 1.34119L6.2522 1.34718L7.1208 3.14871ZM18.1008 4.37271L16.6749 5.77519L16.6807 5.78108L16.6866 5.78693L18.1008 4.37271ZM17.6688 17.2607L19.2289 18.5122L19.2355 18.5039L17.6688 17.2607ZM10.9728 23.6687L9.7527 22.084L5.09668 25.6687H10.9728V23.6687ZM20.6928 23.6687H22.6928V21.6687H20.6928V23.6687ZM20.6928 28.6727V30.6727H22.6928V28.6727H20.6928ZM2.6208 28.6727H0.620797V30.6727H2.6208V28.6727ZM2.6208 24.1007L3.86456 25.6669C4.27303 25.3426 4.57504 25.1016 4.7673 24.9465C4.86017 24.8716 4.93947 24.8071 4.99393 24.7614C5.0083 24.7493 5.02658 24.7338 5.04578 24.7171C5.05405 24.7098 5.10282 24.6676 5.1572 24.6132C5.17343 24.597 5.20211 24.5678 5.23601 24.5299C5.25817 24.5051 5.33757 24.4162 5.42056 24.2889C5.45828 24.2311 5.54968 24.0862 5.62424 23.8819C5.66909 23.7591 5.88987 23.1507 5.59488 22.4343C5.20618 21.4904 4.34721 21.2452 3.94052 21.2053C3.57865 21.1698 3.29994 21.2442 3.21885 21.2663C3.01585 21.3216 2.86802 21.398 2.84077 21.4118C2.78597 21.4396 2.74365 21.4642 2.72184 21.4771C2.67692 21.5038 2.64209 21.5268 2.6274 21.5366L3.7368 23.2007L4.8462 24.8648C4.836 24.8716 4.80481 24.8923 4.76265 24.9173C4.74222 24.9295 4.70107 24.9534 4.64722 24.9807C4.62092 24.994 4.47382 25.0701 4.27134 25.1253C4.19051 25.1474 3.912 25.2217 3.55028 25.1862C3.14374 25.1464 2.28486 24.9012 1.8962 23.9574C1.60125 23.2411 1.82202 22.6328 1.8668 22.5102C1.9413 22.3061 2.03258 22.1614 2.07012 22.1039C2.15275 21.9771 2.23159 21.889 2.25296 21.865C2.28608 21.828 2.31376 21.7998 2.32877 21.7848C2.39783 21.7158 2.45927 21.6665 2.42116 21.6986C2.40063 21.7158 2.34942 21.7578 2.25629 21.8329C2.07655 21.9778 1.78456 22.2109 1.37703 22.5345L2.6208 24.1007ZM3.7368 23.2007L5.01097 24.7423C7.37598 22.7875 9.25723 21.1639 10.6417 19.8783L9.2808 18.4127L7.91989 16.9471C6.61637 18.1575 4.80161 19.7259 2.46263 21.6591L3.7368 23.2007ZM9.2808 18.4127L10.6287 19.8902C12.0976 18.5502 13.3548 17.1273 14.3874 15.6181L12.7368 14.4887L11.0862 13.3593C10.2468 14.5862 9.19998 15.7792 7.93287 16.9352L9.2808 18.4127ZM12.7368 14.4887L14.3874 15.6181C15.4877 14.0099 16.1408 12.2909 16.1408 10.4927H14.1408H12.1408C12.1408 11.2865 11.8579 12.2315 11.0862 13.3593L12.7368 14.4887ZM14.1408 10.4927H16.1408C16.1408 9.21684 15.8449 7.93932 14.9987 6.91495L13.4568 8.18871L11.9149 9.46248C11.9807 9.54211 12.1408 9.80059 12.1408 10.4927H14.1408ZM13.4568 8.18871L14.9987 6.91495C14.0629 5.7821 12.7364 5.36071 11.4048 5.36071V7.36071V9.36071C11.663 9.36071 11.7982 9.40014 11.8534 9.42241C11.8964 9.43974 11.9055 9.45108 11.9149 9.46248L13.4568 8.18871ZM11.4048 7.36071V5.36071C9.89927 5.36071 8.57655 5.97644 7.65141 7.19594L9.2448 8.40471L10.8382 9.61349C10.969 9.44098 11.0863 9.36071 11.4048 9.36071V7.36071ZM9.2448 8.40471L7.6448 7.20471C6.78223 8.3548 6.4888 9.8045 6.4888 11.2847H8.4888H10.4888C10.4888 10.2689 10.6994 9.79863 10.8448 9.60471L9.2448 8.40471ZM8.4888 11.2847V9.28471H2.5488V11.2847V13.2847H8.4888V11.2847ZM2.5488 11.2847L4.54824 11.3318C4.59036 9.54167 4.96598 8.1972 5.56244 7.19727L3.8448 6.17271L2.12716 5.14816C1.09161 6.88422 0.603231 8.94776 0.54935 11.2377L2.5488 11.2847ZM3.8448 6.17271L5.54914 7.21924C6.20452 6.1519 7.01692 5.41912 7.9894 4.95025L7.1208 3.14871L6.2522 1.34718C4.53668 2.1743 3.16507 3.45753 2.14045 5.12619L3.8448 6.17271ZM7.1208 3.14871L7.97697 4.95619C9.05298 4.4465 10.2687 4.17671 11.6568 4.17671V2.17671V0.176713C9.73288 0.176713 7.92462 0.554925 6.26462 1.34124L7.1208 3.14871ZM11.6568 2.17671V4.17671C14.1904 4.17671 15.7382 4.8228 16.6749 5.77519L18.1008 4.37271L19.5266 2.97023C17.5834 0.994622 14.8352 0.176713 11.6568 0.176713V2.17671ZM18.1008 4.37271L16.6866 5.78693C17.7234 6.82376 18.2968 8.19662 18.2968 10.0967H20.2968H22.2968C22.2968 7.2928 21.4062 4.84967 19.515 2.9585L18.1008 4.37271ZM20.2968 10.0967H18.2968C18.2968 12.1686 17.6026 14.1265 16.1021 16.0176L17.6688 17.2607L19.2355 18.5039C21.239 15.979 22.2968 13.1608 22.2968 10.0967H20.2968ZM17.6688 17.2607L16.1087 16.0092C14.4755 18.0451 12.3653 20.0725 9.7527 22.084L10.9728 23.6687L12.1929 25.2534C15.0043 23.0889 17.3581 20.8443 19.2289 18.5122L17.6688 17.2607ZM10.9728 23.6687V25.6687H20.6928V23.6687V21.6687H10.9728V23.6687ZM20.6928 23.6687H18.6928V28.6727H20.6928H22.6928V23.6687H20.6928ZM20.6928 28.6727V26.6727H2.6208V28.6727V30.6727H20.6928V28.6727ZM2.6208 28.6727H4.6208V24.1007H2.6208H0.620797V28.6727H2.6208Z" fill="white" mask="url(#path-1-outside-1_1636_54470)"/>
</svg>
