<svg width="23" height="32" viewBox="0 0 23 32" fill="none" xmlns="http://www.w3.org/2000/svg">
<mask id="path-1-outside-1_1636_54493" maskUnits="userSpaceOnUse" x="0" y="0.0327148" width="23" height="32" fill="black">
<rect fill="white" y="0.0327148" width="23" height="32"/>
<path d="M2.93756 10.1687C3.03356 7.60071 3.87356 5.62071 5.45756 4.22871C7.04156 2.83671 9.18956 2.14071 11.9016 2.14071C13.7016 2.14071 15.2376 2.45271 16.5096 3.07671C17.8056 3.70071 18.7776 4.55271 19.4256 5.63271C20.0976 6.71271 20.4336 7.92471 20.4336 9.26871C20.4336 10.8527 20.0376 12.1487 19.2456 13.1567C18.4536 14.1407 17.5296 14.8127 16.4736 15.1727V15.3167C17.8416 15.7727 18.9216 16.5287 19.7136 17.5847C20.5056 18.6407 20.9016 19.9967 20.9016 21.6527C20.9016 23.1407 20.5536 24.4607 19.8576 25.6127C19.1856 26.7407 18.1896 27.6287 16.8696 28.2767C15.5736 28.9247 14.0256 29.2487 12.2256 29.2487C9.34556 29.2487 7.04156 28.5407 5.31356 27.1247C3.60956 25.7087 2.70956 23.5727 2.61356 20.7167H8.58956C8.61356 21.7727 8.91356 22.6127 9.48956 23.2367C10.0656 23.8367 10.9056 24.1367 12.0096 24.1367C12.9456 24.1367 13.6656 23.8727 14.1696 23.3447C14.6976 22.7927 14.9616 22.0727 14.9616 21.1847C14.9616 20.0327 14.5896 19.2047 13.8456 18.7007C13.1256 18.1727 11.9616 17.9087 10.3536 17.9087H9.20156V12.9047H10.3536C11.5776 12.9047 12.5616 12.7007 13.3056 12.2927C14.0736 11.8607 14.4576 11.1047 14.4576 10.0247C14.4576 9.16071 14.2176 8.48871 13.7376 8.00871C13.2576 7.52871 12.5976 7.28871 11.7576 7.28871C10.8456 7.28871 10.1616 7.56471 9.70556 8.11671C9.27356 8.66871 9.02156 9.35271 8.94956 10.1687H2.93756Z"/>
</mask>
<path d="M2.93756 10.1687C3.03356 7.60071 3.87356 5.62071 5.45756 4.22871C7.04156 2.83671 9.18956 2.14071 11.9016 2.14071C13.7016 2.14071 15.2376 2.45271 16.5096 3.07671C17.8056 3.70071 18.7776 4.55271 19.4256 5.63271C20.0976 6.71271 20.4336 7.92471 20.4336 9.26871C20.4336 10.8527 20.0376 12.1487 19.2456 13.1567C18.4536 14.1407 17.5296 14.8127 16.4736 15.1727V15.3167C17.8416 15.7727 18.9216 16.5287 19.7136 17.5847C20.5056 18.6407 20.9016 19.9967 20.9016 21.6527C20.9016 23.1407 20.5536 24.4607 19.8576 25.6127C19.1856 26.7407 18.1896 27.6287 16.8696 28.2767C15.5736 28.9247 14.0256 29.2487 12.2256 29.2487C9.34556 29.2487 7.04156 28.5407 5.31356 27.1247C3.60956 25.7087 2.70956 23.5727 2.61356 20.7167H8.58956C8.61356 21.7727 8.91356 22.6127 9.48956 23.2367C10.0656 23.8367 10.9056 24.1367 12.0096 24.1367C12.9456 24.1367 13.6656 23.8727 14.1696 23.3447C14.6976 22.7927 14.9616 22.0727 14.9616 21.1847C14.9616 20.0327 14.5896 19.2047 13.8456 18.7007C13.1256 18.1727 11.9616 17.9087 10.3536 17.9087H9.20156V12.9047H10.3536C11.5776 12.9047 12.5616 12.7007 13.3056 12.2927C14.0736 11.8607 14.4576 11.1047 14.4576 10.0247C14.4576 9.16071 14.2176 8.48871 13.7376 8.00871C13.2576 7.52871 12.5976 7.28871 11.7576 7.28871C10.8456 7.28871 10.1616 7.56471 9.70556 8.11671C9.27356 8.66871 9.02156 9.35271 8.94956 10.1687H2.93756Z" fill="#F5483B"/>
<path d="M2.93756 10.1687L0.938959 10.094L0.861399 12.1687H2.93756V10.1687ZM5.45756 4.22871L6.77779 5.73104L6.77779 5.73104L5.45756 4.22871ZM16.5096 3.07671L15.6287 4.87229L15.6353 4.87553L15.6419 4.87872L16.5096 3.07671ZM19.4256 5.63271L17.7106 6.6617L17.7189 6.67558L17.7274 6.68932L19.4256 5.63271ZM19.2456 13.1567L20.8036 14.4107L20.8109 14.4016L20.8182 14.3924L19.2456 13.1567ZM16.4736 15.1727L15.8282 13.2797L14.4736 13.7415V15.1727H16.4736ZM16.4736 15.3167H14.4736V16.7582L15.8411 17.2141L16.4736 15.3167ZM19.8576 25.6127L18.1457 24.5785L18.1394 24.5891L19.8576 25.6127ZM16.8696 28.2767L15.9882 26.4814L15.9817 26.4846L15.9751 26.4879L16.8696 28.2767ZM5.31356 27.1247L4.0353 28.663L4.04592 28.6717L5.31356 27.1247ZM2.61356 20.7167V18.7167H0.545206L0.614692 20.7839L2.61356 20.7167ZM8.58956 20.7167L10.589 20.6713L10.5446 18.7167H8.58956V20.7167ZM9.48956 23.2367L8.01996 24.5933L8.03323 24.6077L8.04679 24.6218L9.48956 23.2367ZM14.1696 23.3447L12.7243 21.9623L12.7229 21.9638L14.1696 23.3447ZM13.8456 18.7007L12.6628 20.3135L12.6929 20.3356L12.7239 20.3566L13.8456 18.7007ZM9.20156 17.9087H7.20156V19.9087H9.20156V17.9087ZM9.20156 12.9047V10.9047H7.20156V12.9047H9.20156ZM13.3056 12.2927L14.2672 14.0463L14.2767 14.0412L14.2861 14.0359L13.3056 12.2927ZM13.7376 8.00871L15.1518 6.5945L15.1518 6.5945L13.7376 8.00871ZM9.70556 8.11671L8.16364 6.84295L8.14682 6.86331L8.13055 6.8841L9.70556 8.11671ZM8.94956 10.1687V12.1687H10.7809L10.9418 10.3445L8.94956 10.1687ZM2.93756 10.1687L4.93617 10.2434C5.01647 8.09534 5.69415 6.68334 6.77779 5.73104L5.45756 4.22871L4.13733 2.72638C2.05298 4.55809 1.05066 7.10608 0.938959 10.094L2.93756 10.1687ZM5.45756 4.22871L6.77779 5.73104C7.90222 4.74291 9.5328 4.14071 11.9016 4.14071V2.14071V0.140713C8.84633 0.140713 6.1809 0.930519 4.13733 2.72639L5.45756 4.22871ZM11.9016 2.14071V4.14071C13.4763 4.14071 14.6947 4.41412 15.6287 4.87229L16.5096 3.07671L17.3904 1.28114C15.7804 0.491308 13.9268 0.140713 11.9016 0.140713V2.14071ZM16.5096 3.07671L15.6419 4.87872C16.6375 5.35806 17.291 5.96238 17.7106 6.6617L19.4256 5.63271L21.1405 4.60372C20.2641 3.14305 18.9736 2.04337 17.3772 1.27471L16.5096 3.07671ZM19.4256 5.63271L17.7274 6.68932C18.1908 7.43395 18.4336 8.27609 18.4336 9.26871H20.4336H22.4336C22.4336 7.57334 22.0043 5.99148 21.1237 4.57611L19.4256 5.63271ZM20.4336 9.26871H18.4336C18.4336 10.5128 18.1279 11.342 17.6729 11.9211L19.2456 13.1567L20.8182 14.3924C21.9472 12.9554 22.4336 11.1926 22.4336 9.26871H20.4336ZM19.2456 13.1567L17.6875 11.9027C17.1008 12.6316 16.4798 13.0576 15.8282 13.2797L16.4736 15.1727L17.1189 17.0657C18.5793 16.5679 19.8063 15.6498 20.8036 14.4107L19.2456 13.1567ZM16.4736 15.1727H14.4736V15.3167H16.4736H18.4736V15.1727H16.4736ZM16.4736 15.3167L15.8411 17.2141C16.8605 17.5539 17.5883 18.0843 18.1136 18.7847L19.7136 17.5847L21.3136 16.3847C20.2549 14.9731 18.8226 13.9915 17.106 13.4193L16.4736 15.3167ZM19.7136 17.5847L18.1136 18.7847C18.5861 19.4147 18.9016 20.3178 18.9016 21.6527H20.9016H22.9016C22.9016 19.6757 22.4251 17.8667 21.3136 16.3847L19.7136 17.5847ZM20.9016 21.6527H18.9016C18.9016 22.8158 18.6337 23.7708 18.1457 24.5785L19.8576 25.6127L21.5694 26.6469C22.4734 25.1506 22.9016 23.4656 22.9016 21.6527H20.9016ZM19.8576 25.6127L18.1394 24.5891C17.6889 25.3452 17.0035 25.983 15.9882 26.4814L16.8696 28.2767L17.7509 30.072C19.3756 29.2745 20.6822 28.1362 21.5758 26.6363L19.8576 25.6127ZM16.8696 28.2767L15.9751 26.4879C15.016 26.9674 13.7887 27.2487 12.2256 27.2487V29.2487V31.2487C14.2624 31.2487 16.1312 30.882 17.764 30.0656L16.8696 28.2767ZM12.2256 29.2487V27.2487C9.672 27.2487 7.85916 26.625 6.58121 25.5778L5.31356 27.1247L4.04592 28.6717C6.22396 30.4565 9.01912 31.2487 12.2256 31.2487V29.2487ZM5.31356 27.1247L6.5918 25.5865C5.44645 24.6347 4.69517 23.111 4.61243 20.6495L2.61356 20.7167L0.614692 20.7839C0.723954 24.0345 1.77267 26.7827 4.03533 28.6629L5.31356 27.1247ZM2.61356 20.7167V22.7167H8.58956V20.7167V18.7167H2.61356V20.7167ZM8.58956 20.7167L6.59008 20.7622C6.62234 22.1818 7.03852 23.5301 8.01996 24.5933L9.48956 23.2367L10.9592 21.8802C10.7886 21.6954 10.6048 21.3636 10.589 20.6713L8.58956 20.7167ZM9.48956 23.2367L8.04679 24.6218C9.11162 25.731 10.5466 26.1367 12.0096 26.1367V24.1367V22.1367C11.2645 22.1367 11.0195 21.9424 10.9323 21.8517L9.48956 23.2367ZM12.0096 24.1367V26.1367C13.3293 26.1367 14.6356 25.7531 15.6163 24.7257L14.1696 23.3447L12.7229 21.9638C12.6956 21.9924 12.5618 22.1367 12.0096 22.1367V24.1367ZM14.1696 23.3447L15.6148 24.7272C16.5565 23.7427 16.9616 22.4979 16.9616 21.1847H14.9616H12.9616C12.9616 21.6475 12.8387 21.8427 12.7243 21.9623L14.1696 23.3447ZM14.9616 21.1847H16.9616C16.9616 19.5788 16.4139 18.0249 14.9673 17.0449L13.8456 18.7007L12.7239 20.3566C12.7652 20.3846 12.9616 20.4866 12.9616 21.1847H14.9616ZM13.8456 18.7007L15.0283 17.0879C13.7844 16.1757 12.0881 15.9087 10.3536 15.9087V17.9087V19.9087C11.835 19.9087 12.4667 20.1697 12.6628 20.3135L13.8456 18.7007ZM10.3536 17.9087V15.9087H9.20156V17.9087V19.9087H10.3536V17.9087ZM9.20156 17.9087H11.2016V12.9047H9.20156H7.20156V17.9087H9.20156ZM9.20156 12.9047V14.9047H10.3536V12.9047V10.9047H9.20156V12.9047ZM10.3536 12.9047V14.9047C11.7745 14.9047 13.1267 14.6718 14.2672 14.0463L13.3056 12.2927L12.3439 10.5391C11.9964 10.7296 11.3806 10.9047 10.3536 10.9047V12.9047ZM13.3056 12.2927L14.2861 14.0359C15.8351 13.1645 16.4576 11.6351 16.4576 10.0247H14.4576H12.4576C12.4576 10.3337 12.4022 10.4648 12.3864 10.496C12.3789 10.5108 12.3748 10.5146 12.3738 10.5157C12.3723 10.5172 12.3601 10.5299 12.325 10.5496L13.3056 12.2927ZM14.4576 10.0247H16.4576C16.4576 8.7822 16.1021 7.54484 15.1518 6.5945L13.7376 8.00871L12.3233 9.42293C12.333 9.43259 12.4576 9.53923 12.4576 10.0247H14.4576ZM13.7376 8.00871L15.1518 6.5945C14.2118 5.65455 12.9945 5.28871 11.7576 5.28871V7.28871V9.28871C12.2006 9.28871 12.3033 9.40287 12.3233 9.42293L13.7376 8.00871ZM11.7576 7.28871V5.28871C10.4259 5.28871 9.09947 5.7101 8.16364 6.84295L9.70556 8.11671L11.2475 9.39048C11.2569 9.37909 11.266 9.36774 11.309 9.35041C11.3641 9.32814 11.4993 9.28871 11.7576 9.28871V7.28871ZM9.70556 8.11671L8.13055 6.8841C7.42228 7.78912 7.05744 8.85802 6.9573 9.99292L8.94956 10.1687L10.9418 10.3445C10.9857 9.84741 11.1248 9.54831 11.2806 9.34933L9.70556 8.11671ZM8.94956 10.1687V8.16871H2.93756V10.1687V12.1687H8.94956V10.1687Z" fill="white" mask="url(#path-1-outside-1_1636_54493)"/>
</svg>
