<svg width="26" height="31" viewBox="0 0 26 31" fill="none" xmlns="http://www.w3.org/2000/svg">
<mask id="path-1-outside-1_1636_54517" maskUnits="userSpaceOnUse" x="0" y="0.0327148" width="26" height="30" fill="black">
<rect fill="white" y="0.0327148" width="26" height="30"/>
<path d="M2.08236 23.3527V18.3847L13.4584 2.11271H20.3344V18.0247H23.2864V23.3527H20.3344V28.0327H14.1784V23.3527H2.08236ZM14.6104 8.88071L8.56236 18.0247H14.6104V8.88071Z"/>
</mask>
<path d="M2.08236 23.3527V18.3847L13.4584 2.11271H20.3344V18.0247H23.2864V23.3527H20.3344V28.0327H14.1784V23.3527H2.08236ZM14.6104 8.88071L8.56236 18.0247H14.6104V8.88071Z" fill="#F5483B"/>
<path d="M2.08236 23.3527H0.0823595V25.3527H2.08236V23.3527ZM2.08236 18.3847L0.443214 17.2388L0.0823595 17.7549V18.3847H2.08236ZM13.4584 2.11271V0.112714H12.4163L11.8192 0.966763L13.4584 2.11271ZM20.3344 2.11271H22.3344V0.112714H20.3344V2.11271ZM20.3344 18.0247H18.3344V20.0247H20.3344V18.0247ZM23.2864 18.0247H25.2864V16.0247H23.2864V18.0247ZM23.2864 23.3527V25.3527H25.2864V23.3527H23.2864ZM20.3344 23.3527V21.3527H18.3344V23.3527H20.3344ZM20.3344 28.0327V30.0327H22.3344V28.0327H20.3344ZM14.1784 28.0327H12.1784V30.0327H14.1784V28.0327ZM14.1784 23.3527H16.1784V21.3527H14.1784V23.3527ZM14.6104 8.88071H16.6104V2.23152L12.9422 7.77738L14.6104 8.88071ZM8.56236 18.0247L6.89423 16.9214L4.84163 20.0247H8.56236V18.0247ZM14.6104 18.0247V20.0247H16.6104V18.0247H14.6104ZM2.08236 23.3527H4.08236V18.3847H2.08236H0.0823595V23.3527H2.08236ZM2.08236 18.3847L3.7215 19.5307L15.0975 3.25866L13.4584 2.11271L11.8192 0.966763L0.443214 17.2388L2.08236 18.3847ZM13.4584 2.11271V4.11271H20.3344V2.11271V0.112714H13.4584V2.11271ZM20.3344 2.11271H18.3344V18.0247H20.3344H22.3344V2.11271H20.3344ZM20.3344 18.0247V20.0247H23.2864V18.0247V16.0247H20.3344V18.0247ZM23.2864 18.0247H21.2864V23.3527H23.2864H25.2864V18.0247H23.2864ZM23.2864 23.3527V21.3527H20.3344V23.3527V25.3527H23.2864V23.3527ZM20.3344 23.3527H18.3344V28.0327H20.3344H22.3344V23.3527H20.3344ZM20.3344 28.0327V26.0327H14.1784V28.0327V30.0327H20.3344V28.0327ZM14.1784 28.0327H16.1784V23.3527H14.1784H12.1784V28.0327H14.1784ZM14.1784 23.3527V21.3527H2.08236V23.3527V25.3527H14.1784V23.3527ZM14.6104 8.88071L12.9422 7.77738L6.89423 16.9214L8.56236 18.0247L10.2305 19.128L16.2785 9.98405L14.6104 8.88071ZM8.56236 18.0247V20.0247H14.6104V18.0247V16.0247H8.56236V18.0247ZM14.6104 18.0247H16.6104V8.88071H14.6104H12.6104V18.0247H14.6104Z" fill="white" mask="url(#path-1-outside-1_1636_54517)"/>
</svg>
