<svg width="23" height="32" viewBox="0 0 23 32" fill="none" xmlns="http://www.w3.org/2000/svg">
<mask id="path-1-outside-1_1636_54541" maskUnits="userSpaceOnUse" x="0" y="0.0327148" width="23" height="31" fill="black">
<rect fill="white" y="0.0327148" width="23" height="31"/>
<path d="M19.417 8.11671H8.18497V13.0847C8.66497 12.5567 9.33697 12.1247 10.201 11.7887C11.065 11.4527 12.001 11.2847 13.009 11.2847C14.809 11.2847 16.297 11.6927 17.473 12.5087C18.673 13.3247 19.549 14.3807 20.101 15.6767C20.653 16.9727 20.929 18.3767 20.929 19.8887C20.929 22.6967 20.137 24.9287 18.553 26.5847C16.969 28.2167 14.737 29.0327 11.857 29.0327C9.93697 29.0327 8.26897 28.7087 6.85297 28.0607C5.43697 27.3887 4.34497 26.4647 3.57697 25.2887C2.80897 24.1127 2.38897 22.7567 2.31697 21.2207H8.32897C8.47297 21.9647 8.82097 22.5887 9.37297 23.0927C9.92497 23.5727 10.681 23.8127 11.641 23.8127C12.769 23.8127 13.609 23.4527 14.161 22.7327C14.713 22.0127 14.989 21.0527 14.989 19.8527C14.989 18.6767 14.701 17.7767 14.125 17.1527C13.549 16.5287 12.709 16.2167 11.605 16.2167C10.789 16.2167 10.117 16.4207 9.58897 16.8287C9.06097 17.2127 8.71297 17.7287 8.54497 18.3767H2.60497V2.71671H19.417V8.11671Z"/>
</mask>
<path d="M19.417 8.11671H8.18497V13.0847C8.66497 12.5567 9.33697 12.1247 10.201 11.7887C11.065 11.4527 12.001 11.2847 13.009 11.2847C14.809 11.2847 16.297 11.6927 17.473 12.5087C18.673 13.3247 19.549 14.3807 20.101 15.6767C20.653 16.9727 20.929 18.3767 20.929 19.8887C20.929 22.6967 20.137 24.9287 18.553 26.5847C16.969 28.2167 14.737 29.0327 11.857 29.0327C9.93697 29.0327 8.26897 28.7087 6.85297 28.0607C5.43697 27.3887 4.34497 26.4647 3.57697 25.2887C2.80897 24.1127 2.38897 22.7567 2.31697 21.2207H8.32897C8.47297 21.9647 8.82097 22.5887 9.37297 23.0927C9.92497 23.5727 10.681 23.8127 11.641 23.8127C12.769 23.8127 13.609 23.4527 14.161 22.7327C14.713 22.0127 14.989 21.0527 14.989 19.8527C14.989 18.6767 14.701 17.7767 14.125 17.1527C13.549 16.5287 12.709 16.2167 11.605 16.2167C10.789 16.2167 10.117 16.4207 9.58897 16.8287C9.06097 17.2127 8.71297 17.7287 8.54497 18.3767H2.60497V2.71671H19.417V8.11671Z" fill="#F5483B"/>
<path d="M19.417 8.11671V10.1167H21.417V8.11671H19.417ZM8.18497 8.11671V6.11671H6.18497V8.11671H8.18497ZM8.18497 13.0847H6.18497V18.2579L9.66485 14.4301L8.18497 13.0847ZM10.201 11.7887L9.47608 9.9247H9.47608L10.201 11.7887ZM17.473 12.5087L16.3328 14.1519L16.3406 14.1573L16.3483 14.1626L17.473 12.5087ZM20.101 15.6767L21.941 14.893L20.101 15.6767ZM18.553 26.5847L19.9881 27.9777L19.9932 27.9724L19.9983 27.9672L18.553 26.5847ZM6.85297 28.0607L5.99548 29.8676L6.00806 29.8735L6.02072 29.8793L6.85297 28.0607ZM3.57697 25.2887L1.90243 26.3823H1.90243L3.57697 25.2887ZM2.31697 21.2207V19.2207H0.221023L0.319163 21.3144L2.31697 21.2207ZM8.32897 21.2207L10.2925 20.8407L9.97899 19.2207H8.32897V21.2207ZM9.37297 23.0927L8.02443 24.5697L8.04233 24.586L8.06061 24.6019L9.37297 23.0927ZM14.125 17.1527L15.5946 15.7962H15.5946L14.125 17.1527ZM9.58897 16.8287L10.7653 18.4462L10.7888 18.4291L10.8119 18.4113L9.58897 16.8287ZM8.54497 18.3767V20.3767H10.0926L10.481 18.8786L8.54497 18.3767ZM2.60497 18.3767H0.604969V20.3767H2.60497V18.3767ZM2.60497 2.71671V0.716715H0.604969V2.71671H2.60497ZM19.417 2.71671H21.417V0.716715H19.417V2.71671ZM19.417 8.11671V6.11671H8.18497V8.11671V10.1167H19.417V8.11671ZM8.18497 8.11671H6.18497V13.0847H8.18497H10.185V8.11671H8.18497ZM8.18497 13.0847L9.66485 14.4301C9.88399 14.189 10.2671 13.9089 10.9259 13.6527L10.201 11.7887L9.47608 9.9247C8.40687 10.3405 7.44595 10.9244 6.70509 11.7394L8.18497 13.0847ZM10.201 11.7887L10.9259 13.6527C11.5393 13.4142 12.2272 13.2847 13.009 13.2847V11.2847V9.28471C11.7747 9.28471 10.5906 9.49127 9.47608 9.9247L10.201 11.7887ZM13.009 11.2847V13.2847C14.5068 13.2847 15.5689 13.6218 16.3328 14.1519L17.473 12.5087L18.6131 10.8655C17.0251 9.76362 15.1111 9.28471 13.009 9.28471V11.2847ZM17.473 12.5087L16.3483 14.1626C17.2415 14.7699 17.8638 15.5281 18.2609 16.4604L20.101 15.6767L21.941 14.893C21.2341 13.2333 20.1044 11.8795 18.5976 10.8549L17.473 12.5087ZM20.101 15.6767L18.2609 16.4604C18.6998 17.4909 18.929 18.6261 18.929 19.8887H20.929H22.929C22.929 18.1274 22.6061 16.4546 21.941 14.893L20.101 15.6767ZM20.929 19.8887H18.929C18.929 22.3042 18.2591 23.9985 17.1077 25.2023L18.553 26.5847L19.9983 27.9672C22.0148 25.8589 22.929 23.0892 22.929 19.8887H20.929ZM18.553 26.5847L17.1178 25.1918C16.0047 26.3386 14.3484 27.0327 11.857 27.0327V29.0327V31.0327C15.1256 31.0327 17.9333 30.0948 19.9881 27.9777L18.553 26.5847ZM11.857 29.0327V27.0327C10.1589 27.0327 8.78657 26.7461 7.68522 26.2421L6.85297 28.0607L6.02072 29.8793C7.75137 30.6713 9.71502 31.0327 11.857 31.0327V29.0327ZM6.85297 28.0607L7.71046 26.2539C6.58763 25.721 5.79532 25.0278 5.25151 24.1951L3.57697 25.2887L1.90243 26.3823C2.89462 27.9016 4.28631 29.0564 5.99548 29.8676L6.85297 28.0607ZM3.57697 25.2887L5.25151 24.1951C4.69667 23.3455 4.37171 22.3417 4.31478 21.1271L2.31697 21.2207L0.319163 21.3144C0.406228 23.1718 0.921271 24.8799 1.90243 26.3823L3.57697 25.2887ZM2.31697 21.2207V23.2207H8.32897V21.2207V19.2207H2.31697V21.2207ZM8.32897 21.2207L6.36541 21.6008C6.58992 22.7607 7.15011 23.7714 8.02443 24.5697L9.37297 23.0927L10.7215 21.6157C10.4918 21.406 10.356 21.1687 10.2925 20.8407L8.32897 21.2207ZM9.37297 23.0927L8.06061 24.6019C9.07765 25.4863 10.352 25.8127 11.641 25.8127V23.8127V21.8127C11.01 21.8127 10.7723 21.6591 10.6853 21.5835L9.37297 23.0927ZM11.641 23.8127V25.8127C13.2235 25.8127 14.7262 25.2825 15.7482 23.9496L14.161 22.7327L12.5738 21.5159C12.4917 21.6229 12.3144 21.8127 11.641 21.8127V23.8127ZM14.161 22.7327L15.7482 23.9496C16.6429 22.7825 16.989 21.3509 16.989 19.8527H14.989H12.989C12.989 20.7545 12.783 21.2429 12.5738 21.5159L14.161 22.7327ZM14.989 19.8527H16.989C16.989 18.3687 16.624 16.9114 15.5946 15.7962L14.125 17.1527L12.6554 18.5093C12.7779 18.642 12.989 18.9847 12.989 19.8527H14.989ZM14.125 17.1527L15.5946 15.7962C14.5347 14.648 13.0904 14.2167 11.605 14.2167V16.2167V18.2167C12.3276 18.2167 12.5632 18.4095 12.6554 18.5093L14.125 17.1527ZM11.605 16.2167V14.2167C10.4476 14.2167 9.31674 14.5115 8.36608 15.2461L9.58897 16.8287L10.8119 18.4113C10.9172 18.3299 11.1303 18.2167 11.605 18.2167V16.2167ZM9.58897 16.8287L8.41263 15.2112C7.49959 15.8753 6.89008 16.7905 6.60897 17.8748L8.54497 18.3767L10.481 18.8786C10.5359 18.6669 10.6224 18.5502 10.7653 18.4462L9.58897 16.8287ZM8.54497 18.3767V16.3767H2.60497V18.3767V20.3767H8.54497V18.3767ZM2.60497 18.3767H4.60497V2.71671H2.60497H0.604969V18.3767H2.60497ZM2.60497 2.71671V4.71671H19.417V2.71671V0.716715H2.60497V2.71671ZM19.417 2.71671H17.417V8.11671H19.417H21.417V2.71671H19.417Z" fill="white" mask="url(#path-1-outside-1_1636_54541)"/>
</svg>
