<svg width="24" height="32" viewBox="0 0 24 32" fill="none" xmlns="http://www.w3.org/2000/svg">
<mask id="path-1-outside-1_1636_54565" maskUnits="userSpaceOnUse" x="0" y="0.0327148" width="24" height="32" fill="black">
<rect fill="white" y="0.0327148" width="24" height="32"/>
<path d="M14.6551 9.84471C14.4631 8.95671 14.1271 8.29671 13.6471 7.86471C13.1671 7.40871 12.4831 7.18071 11.5951 7.18071C10.2271 7.18071 9.24306 7.78071 8.64306 8.98071C8.04306 10.1567 7.73106 12.0287 7.70706 14.5967C8.23506 13.7567 8.99106 13.0967 9.97506 12.6167C10.9831 12.1367 12.0871 11.8967 13.2871 11.8967C15.6391 11.8967 17.5231 12.6407 18.9391 14.1287C20.3791 15.6167 21.0991 17.6927 21.0991 20.3567C21.0991 22.1087 20.7391 23.6447 20.0191 24.9647C19.3231 26.2847 18.2911 27.3167 16.9231 28.0607C15.5791 28.8047 13.9831 29.1767 12.1351 29.1767C8.43906 29.1767 5.87106 28.0247 4.43106 25.7207C2.99106 23.3927 2.27106 20.0567 2.27106 15.7127C2.27106 11.1527 3.02706 7.76871 4.53906 5.56071C6.07506 3.32871 8.52306 2.21271 11.8831 2.21271C13.6831 2.21271 15.1951 2.57271 16.4191 3.29271C17.6671 3.98871 18.6031 4.91271 19.2271 6.06471C19.8751 7.21671 20.2591 8.47671 20.3791 9.84471H14.6551ZM11.8111 16.7567C10.7791 16.7567 9.91506 17.0687 9.21906 17.6927C8.54706 18.2927 8.21106 19.1567 8.21106 20.2847C8.21106 21.4367 8.52306 22.3367 9.14706 22.9847C9.79506 23.6327 10.7071 23.9567 11.8831 23.9567C12.9391 23.9567 13.7671 23.6447 14.3671 23.0207C14.9911 22.3727 15.3031 21.4967 15.3031 20.3927C15.3031 19.2647 15.0031 18.3767 14.4031 17.7287C13.8031 17.0807 12.9391 16.7567 11.8111 16.7567Z"/>
</mask>
<path d="M14.6551 9.84471C14.4631 8.95671 14.1271 8.29671 13.6471 7.86471C13.1671 7.40871 12.4831 7.18071 11.5951 7.18071C10.2271 7.18071 9.24306 7.78071 8.64306 8.98071C8.04306 10.1567 7.73106 12.0287 7.70706 14.5967C8.23506 13.7567 8.99106 13.0967 9.97506 12.6167C10.9831 12.1367 12.0871 11.8967 13.2871 11.8967C15.6391 11.8967 17.5231 12.6407 18.9391 14.1287C20.3791 15.6167 21.0991 17.6927 21.0991 20.3567C21.0991 22.1087 20.7391 23.6447 20.0191 24.9647C19.3231 26.2847 18.2911 27.3167 16.9231 28.0607C15.5791 28.8047 13.9831 29.1767 12.1351 29.1767C8.43906 29.1767 5.87106 28.0247 4.43106 25.7207C2.99106 23.3927 2.27106 20.0567 2.27106 15.7127C2.27106 11.1527 3.02706 7.76871 4.53906 5.56071C6.07506 3.32871 8.52306 2.21271 11.8831 2.21271C13.6831 2.21271 15.1951 2.57271 16.4191 3.29271C17.6671 3.98871 18.6031 4.91271 19.2271 6.06471C19.8751 7.21671 20.2591 8.47671 20.3791 9.84471H14.6551ZM11.8111 16.7567C10.7791 16.7567 9.91506 17.0687 9.21906 17.6927C8.54706 18.2927 8.21106 19.1567 8.21106 20.2847C8.21106 21.4367 8.52306 22.3367 9.14706 22.9847C9.79506 23.6327 10.7071 23.9567 11.8831 23.9567C12.9391 23.9567 13.7671 23.6447 14.3671 23.0207C14.9911 22.3727 15.3031 21.4967 15.3031 20.3927C15.3031 19.2647 15.0031 18.3767 14.4031 17.7287C13.8031 17.0807 12.9391 16.7567 11.8111 16.7567Z" fill="#F5483B"/>
<path d="M14.6551 9.84471L12.7002 10.2674L13.0413 11.8447H14.6551V9.84471ZM13.6471 7.86471L12.2696 9.31471L12.2891 9.33328L12.3091 9.35131L13.6471 7.86471ZM8.64306 8.98071L10.4246 9.88965L10.4283 9.88241L10.4319 9.87514L8.64306 8.98071ZM7.70706 14.5967L5.70715 14.578L5.64114 21.6416L9.40034 15.6611L7.70706 14.5967ZM9.97506 12.6167L9.1152 10.811L9.10669 10.815L9.09822 10.8192L9.97506 12.6167ZM18.9391 14.1287L17.4902 15.5074L17.496 15.5135L17.5019 15.5196L18.9391 14.1287ZM20.0191 24.9647L18.2633 24.007L18.2565 24.0194L18.2499 24.0319L20.0191 24.9647ZM16.9231 28.0607L15.9675 26.3037L15.961 26.3073L15.9544 26.3109L16.9231 28.0607ZM4.43106 25.7207L2.73014 26.7728L2.73507 26.7807L4.43106 25.7207ZM4.53906 5.56071L2.89149 4.4269L2.88889 4.4307L4.53906 5.56071ZM16.4191 3.29271L15.405 5.01658L15.4248 5.02824L15.4449 5.03944L16.4191 3.29271ZM19.2271 6.06471L17.4685 7.01728L17.4761 7.03132L17.4839 7.04524L19.2271 6.06471ZM20.3791 9.84471V11.8447H22.5622L22.3714 9.66995L20.3791 9.84471ZM9.21906 17.6927L10.5511 19.1846L10.5542 19.1819L9.21906 17.6927ZM9.14706 22.9847L7.70642 24.372L7.71951 24.3856L7.73285 24.3989L9.14706 22.9847ZM14.3671 23.0207L12.9264 21.6334L12.9254 21.6345L14.3671 23.0207ZM14.6551 9.84471L16.6099 9.42205C16.3641 8.28542 15.8813 7.18478 14.985 6.37812L13.6471 7.86471L12.3091 9.35131C12.3729 9.40865 12.562 9.628 12.7002 10.2674L14.6551 9.84471ZM13.6471 7.86471L15.0246 6.41472C14.0607 5.49907 12.8168 5.18071 11.5951 5.18071V7.18071V9.18071C11.872 9.18071 12.0445 9.2167 12.1416 9.24908C12.2306 9.27873 12.2605 9.3061 12.2696 9.31471L13.6471 7.86471ZM11.5951 7.18071V5.18071C10.6131 5.18071 9.64982 5.39875 8.78985 5.92312C7.92759 6.44889 7.29409 7.20653 6.85421 8.08629L8.64306 8.98071L10.4319 9.87514C10.592 9.5549 10.7505 9.41254 10.8723 9.33831C10.9963 9.26268 11.2091 9.18071 11.5951 9.18071V7.18071ZM8.64306 8.98071L6.86154 8.07177C6.04203 9.67801 5.73181 11.9398 5.70715 14.578L7.70706 14.5967L9.70698 14.6154C9.73032 12.1176 10.0441 10.6354 10.4246 9.88965L8.64306 8.98071ZM7.70706 14.5967L9.40034 15.6611C9.70967 15.1689 10.1673 14.7482 10.8519 14.4143L9.97506 12.6167L9.09822 10.8192C7.81487 11.4452 6.76045 12.3445 6.01379 13.5324L7.70706 14.5967ZM9.97506 12.6167L10.8349 14.4224C11.5546 14.0797 12.3619 13.8967 13.2871 13.8967V11.8967V9.89671C11.8122 9.89671 10.4116 10.1937 9.1152 10.811L9.97506 12.6167ZM13.2871 11.8967V13.8967C15.1784 13.8967 16.5078 14.475 17.4902 15.5074L18.9391 14.1287L20.3879 12.75C18.5384 10.8064 16.0998 9.89671 13.2871 9.89671V11.8967ZM18.9391 14.1287L17.5019 15.5196C18.4859 16.5364 19.0991 18.057 19.0991 20.3567H21.0991H23.0991C23.0991 17.3284 22.2722 14.697 20.3763 12.7379L18.9391 14.1287ZM21.0991 20.3567H19.0991C19.0991 21.8297 18.7984 23.026 18.2633 24.007L20.0191 24.9647L21.7749 25.9224C22.6798 24.2634 23.0991 22.3878 23.0991 20.3567H21.0991ZM20.0191 24.9647L18.2499 24.0319C17.7462 24.9872 17.0049 25.7395 15.9675 26.3037L16.9231 28.0607L17.8786 29.8177C19.5772 28.8939 20.8999 27.5822 21.7882 25.8975L20.0191 24.9647ZM16.9231 28.0607L15.9544 26.3109C14.9616 26.8605 13.7128 27.1767 12.1351 27.1767V29.1767V31.1767C14.2534 31.1767 16.1965 30.7489 17.8917 29.8105L16.9231 28.0607ZM12.1351 29.1767V27.1767C8.85201 27.1767 7.07573 26.1786 6.12706 24.6607L4.43106 25.7207L2.73507 26.7807C4.6664 29.8708 8.02612 31.1767 12.1351 31.1767V29.1767ZM4.43106 25.7207L6.13197 24.6686C4.97072 22.7913 4.27106 19.8837 4.27106 15.7127H2.27106H0.271063C0.271063 20.2297 1.0114 23.9942 2.73016 26.7728L4.43106 25.7207ZM2.27106 15.7127H4.27106C4.27106 11.3026 5.01536 8.40495 6.18924 6.69073L4.53906 5.56071L2.88889 4.4307C1.03876 7.13247 0.271063 11.0028 0.271063 15.7127H2.27106ZM4.53906 5.56071L6.18663 6.69452C7.25851 5.13695 9.00276 4.21271 11.8831 4.21271V2.21271V0.212713C8.04337 0.212713 4.89162 1.52048 2.8915 4.42691L4.53906 5.56071ZM11.8831 2.21271V4.21271C13.4205 4.21271 14.5604 4.51972 15.405 5.01658L16.4191 3.29271L17.4331 1.56885C15.8298 0.625703 13.9457 0.212713 11.8831 0.212713V2.21271ZM16.4191 3.29271L15.4449 5.03944C16.3926 5.56795 17.0416 6.2292 17.4685 7.01728L19.2271 6.06471L20.9856 5.11215C20.1645 3.59623 18.9415 2.40947 17.3932 1.54599L16.4191 3.29271ZM19.2271 6.06471L17.4839 7.04524C17.9871 7.93971 18.2906 8.92342 18.3867 10.0195L20.3791 9.84471L22.3714 9.66995C22.2276 8.03001 21.7631 6.49372 20.9702 5.08419L19.2271 6.06471ZM20.3791 9.84471V7.84471H14.6551V9.84471V11.8447H20.3791V9.84471ZM11.8111 16.7567V14.7567C10.3416 14.7567 8.98609 15.2155 7.88397 16.2036L9.21906 17.6927L10.5542 19.1819C10.844 18.922 11.2165 18.7567 11.8111 18.7567V16.7567ZM9.21906 17.6927L7.88703 16.2008C6.68705 17.2723 6.21106 18.7414 6.21106 20.2847H8.21106H10.2111C10.2111 19.572 10.4071 19.3132 10.5511 19.1846L9.21906 17.6927ZM8.21106 20.2847H6.21106C6.21106 21.8029 6.63082 23.255 7.70642 24.372L9.14706 22.9847L10.5877 21.5974C10.4153 21.4184 10.2111 21.0706 10.2111 20.2847H8.21106ZM9.14706 22.9847L7.73285 24.3989C8.85417 25.5203 10.3339 25.9567 11.8831 25.9567V23.9567V21.9567C11.0802 21.9567 10.736 21.7452 10.5613 21.5705L9.14706 22.9847ZM11.8831 23.9567V25.9567C13.3549 25.9567 14.7512 25.5068 15.8087 24.4069L14.3671 23.0207L12.9254 21.6345C12.7829 21.7827 12.5232 21.9567 11.8831 21.9567V23.9567ZM14.3671 23.0207L15.8077 24.408C16.8684 23.3065 17.3031 21.8899 17.3031 20.3927H15.3031H13.3031C13.3031 21.1035 13.1138 21.4389 12.9264 21.6334L14.3671 23.0207ZM15.3031 20.3927H17.3031C17.3031 18.9057 16.9 17.4817 15.8706 16.3699L14.4031 17.7287L12.9355 19.0875C13.1061 19.2718 13.3031 19.6237 13.3031 20.3927H15.3031ZM14.4031 17.7287L15.8706 16.3699C14.7934 15.2066 13.3322 14.7567 11.8111 14.7567V16.7567V18.7567C12.5459 18.7567 12.8127 18.9549 12.9355 19.0875L14.4031 17.7287Z" fill="white" mask="url(#path-1-outside-1_1636_54565)"/>
</svg>
