<svg width="140" height="140" viewBox="0 0 140 140" fill="none" xmlns="http://www.w3.org/2000/svg">
<path fill-rule="evenodd" clip-rule="evenodd" d="M70 119C97.062 119 119 97.062 119 70C119 42.938 97.062 21 70 21C42.938 21 21 42.938 21 70C21 97.062 42.938 119 70 119ZM92.706 62.081C95.098 59.6891 95.098 55.8109 92.706 53.419C90.3141 51.027 86.4359 51.027 84.044 53.419L63.875 73.5879L55.956 65.669C53.5641 63.277 49.6859 63.277 47.294 65.669C44.902 68.0609 44.902 71.9391 47.294 74.331L59.544 86.581C61.9359 88.973 65.8141 88.973 68.206 86.581L92.706 62.081Z" fill="#4AAF57"/>
</svg>
