<svg width="20" height="20" viewBox="0 0 20 20" fill="none" xmlns="http://www.w3.org/2000/svg">
<path fill-rule="evenodd" clip-rule="evenodd" d="M10.0004 8.03418C8.89204 8.03418 7.99121 8.93585 7.99121 10.0442C7.99121 11.1517 8.89204 12.0525 10.0004 12.0525C11.1087 12.0525 12.0104 11.1517 12.0104 10.0442C12.0104 8.93585 11.1087 8.03418 10.0004 8.03418ZM10.0004 13.3025C8.20288 13.3025 6.74121 11.8408 6.74121 10.0442C6.74121 8.24668 8.20288 6.78418 10.0004 6.78418C11.7979 6.78418 13.2604 8.24668 13.2604 10.0442C13.2604 11.8408 11.7979 13.3025 10.0004 13.3025Z" fill="#9E9E9E"/>
<mask id="mask0_1652_53780" style="mask-type:luminance" maskUnits="userSpaceOnUse" x="1" y="3" width="18" height="14">
<path fill-rule="evenodd" clip-rule="evenodd" d="M1.66699 3.3335H18.3335V16.7543H1.66699V3.3335Z" fill="white"/>
</mask>
<g mask="url(#mask0_1652_53780)">
<path fill-rule="evenodd" clip-rule="evenodd" d="M2.9738 10.0438C4.5238 13.468 7.13463 15.5038 9.9988 15.5047C12.863 15.5038 15.4738 13.468 17.0238 10.0438C15.4738 6.62049 12.863 4.58465 9.9988 4.58382C7.13546 4.58465 4.5238 6.62049 2.9738 10.0438ZM10.0008 16.7545H9.99747H9.99664C6.54997 16.752 3.45497 14.3361 1.71664 10.2903C1.64914 10.1328 1.64914 9.95447 1.71664 9.79697C3.45497 5.75197 6.55081 3.33613 9.99664 3.33363C9.99831 3.3328 9.99831 3.3328 9.99914 3.33363C10.0008 3.3328 10.0008 3.3328 10.0016 3.33363C13.4483 3.33613 16.5433 5.75197 18.2816 9.79697C18.35 9.95447 18.35 10.1328 18.2816 10.2903C16.5441 14.3361 13.4483 16.752 10.0016 16.7545H10.0008Z" fill="#9E9E9E"/>
</g>
</svg>
