<svg width="24" height="24" viewBox="0 0 24 24" fill="none" xmlns="http://www.w3.org/2000/svg">
<path d="M11.9997 13.7606C12.972 13.7606 13.7603 12.9723 13.7603 12C13.7603 11.0276 12.972 10.2394 11.9997 10.2394C11.0273 10.2394 10.2391 11.0276 10.2391 12C10.2391 12.9723 11.0273 13.7606 11.9997 13.7606Z" fill="#F86294"/>
<path fill-rule="evenodd" clip-rule="evenodd" d="M3.59961 12C4.72133 8.42854 8.05794 5.83789 11.9996 5.83789C15.9413 5.83789 19.2779 8.42851 20.3996 12C19.2779 15.5715 15.9413 18.1621 11.9996 18.1621C8.05794 18.1621 4.72135 15.5715 3.59961 12ZM15.5209 12C15.5209 13.9447 13.9444 15.5212 11.9997 15.5212C10.0549 15.5212 8.47845 13.9447 8.47845 12C8.47845 10.0553 10.0549 8.47879 11.9997 8.47879C13.9444 8.47879 15.5209 10.0553 15.5209 12Z" fill="#F86294"/>
</svg>
