<svg width="12" height="12" viewBox="0 0 12 12" fill="none" xmlns="http://www.w3.org/2000/svg">
<path d="M5.99983 6.8803C6.486 6.8803 6.88013 6.48617 6.88013 6C6.88013 5.51382 6.486 5.1197 5.99983 5.1197C5.51365 5.1197 5.11953 5.51382 5.11953 6C5.11953 6.48617 5.51365 6.8803 5.99983 6.8803Z" fill="#9E9E9E"/>
<path fill-rule="evenodd" clip-rule="evenodd" d="M1.7998 6.00001C2.36067 4.21427 4.02897 2.91895 5.99981 2.91895C7.97064 2.91895 9.63893 4.21425 10.1998 5.99998C9.63894 7.78573 7.97064 9.08105 5.9998 9.08105C4.02897 9.08105 2.36068 7.78574 1.7998 6.00001ZM7.76043 6C7.76043 6.97235 6.97218 7.7606 5.99983 7.7606C5.02747 7.7606 4.23922 6.97235 4.23922 6C4.23922 5.02764 5.02747 4.2394 5.99983 4.2394C6.97218 4.2394 7.76043 5.02764 7.76043 6Z" fill="#9E9E9E"/>
</svg>
