<svg width="15" height="14" viewBox="0 0 15 14" fill="none" xmlns="http://www.w3.org/2000/svg">
<path d="M5.25 1C4.55964 1 4 1.55964 4 2.25C4 2.94036 4.55964 3.5 5.25 3.5H6.5V6.5H1.25C0.559645 6.5 0 5.94036 0 5.25V4.75C0 4.05964 0.559644 3.5 1.25 3.5H3.37889C3.13957 3.14248 3 2.71254 3 2.25C3 1.00736 4.00736 0 5.25 0C5.95682 0 6.58751 0.325917 7 0.835668C7.41249 0.325917 8.04318 0 8.75 0C9.99264 0 11 1.00736 11 2.25C11 2.71254 10.8604 3.14248 10.6211 3.5H13.25C13.9404 3.5 14.5 4.05964 14.5 4.75V5.25C14.5 5.94036 13.9404 6.5 13.25 6.5H7.5V3.5H8.75C9.44036 3.5 10 2.94036 10 2.25C10 1.55964 9.44036 1 8.75 1C8.05964 1 7.5 1.55964 7.5 2.25V3.5H6.5V2.25C6.5 1.55964 5.94036 1 5.25 1Z" fill="#303030"/>
<path d="M6.5 7.5H1V12C1 12.8284 1.67157 13.5 2.5 13.5H6.5V7.5Z" fill="#303030"/>
<path d="M7.5 7.5V13.5H12C12.8284 13.5 13.5 12.8284 13.5 12V7.5H7.5Z" fill="#303030"/>
</svg>
