<svg width="20" height="21" viewBox="0 0 20 21" fill="none" xmlns="http://www.w3.org/2000/svg">
<path d="M10.625 10.7578C10.625 11.103 10.3452 11.3828 10 11.3828C9.65482 11.3828 9.375 11.103 9.375 10.7578C9.375 10.4126 9.65482 10.1328 10 10.1328C10.3452 10.1328 10.625 10.4126 10.625 10.7578Z" fill="#9E9E9E"/>
<path d="M6.25 13.2578C6.59518 13.2578 6.875 12.978 6.875 12.6328C6.875 12.2876 6.59518 12.0078 6.25 12.0078C5.90482 12.0078 5.625 12.2876 5.625 12.6328C5.625 12.978 5.90482 13.2578 6.25 13.2578Z" fill="#9E9E9E"/>
<path d="M6.875 14.5078C6.875 14.853 6.59518 15.1328 6.25 15.1328C5.90482 15.1328 5.625 14.853 5.625 14.5078C5.625 14.1626 5.90482 13.8828 6.25 13.8828C6.59518 13.8828 6.875 14.1626 6.875 14.5078Z" fill="#9E9E9E"/>
<path d="M8.125 13.2578C8.47018 13.2578 8.75 12.978 8.75 12.6328C8.75 12.2876 8.47018 12.0078 8.125 12.0078C7.77982 12.0078 7.5 12.2876 7.5 12.6328C7.5 12.978 7.77982 13.2578 8.125 13.2578Z" fill="#9E9E9E"/>
<path d="M8.75 14.5078C8.75 14.853 8.47018 15.1328 8.125 15.1328C7.77982 15.1328 7.5 14.853 7.5 14.5078C7.5 14.1626 7.77982 13.8828 8.125 13.8828C8.47018 13.8828 8.75 14.1626 8.75 14.5078Z" fill="#9E9E9E"/>
<path d="M10 13.2578C10.3452 13.2578 10.625 12.978 10.625 12.6328C10.625 12.2876 10.3452 12.0078 10 12.0078C9.65482 12.0078 9.375 12.2876 9.375 12.6328C9.375 12.978 9.65482 13.2578 10 13.2578Z" fill="#9E9E9E"/>
<path d="M10.625 14.5078C10.625 14.853 10.3452 15.1328 10 15.1328C9.65482 15.1328 9.375 14.853 9.375 14.5078C9.375 14.1626 9.65482 13.8828 10 13.8828C10.3452 13.8828 10.625 14.1626 10.625 14.5078Z" fill="#9E9E9E"/>
<path d="M11.875 13.2578C12.2202 13.2578 12.5 12.978 12.5 12.6328C12.5 12.2876 12.2202 12.0078 11.875 12.0078C11.5298 12.0078 11.25 12.2876 11.25 12.6328C11.25 12.978 11.5298 13.2578 11.875 13.2578Z" fill="#9E9E9E"/>
<path d="M12.5 14.5078C12.5 14.853 12.2202 15.1328 11.875 15.1328C11.5298 15.1328 11.25 14.853 11.25 14.5078C11.25 14.1626 11.5298 13.8828 11.875 13.8828C12.2202 13.8828 12.5 14.1626 12.5 14.5078Z" fill="#9E9E9E"/>
<path d="M13.75 13.2578C14.0952 13.2578 14.375 12.978 14.375 12.6328C14.375 12.2876 14.0952 12.0078 13.75 12.0078C13.4048 12.0078 13.125 12.2876 13.125 12.6328C13.125 12.978 13.4048 13.2578 13.75 13.2578Z" fill="#9E9E9E"/>
<path d="M12.5 10.7578C12.5 11.103 12.2202 11.3828 11.875 11.3828C11.5298 11.3828 11.25 11.103 11.25 10.7578C11.25 10.4126 11.5298 10.1328 11.875 10.1328C12.2202 10.1328 12.5 10.4126 12.5 10.7578Z" fill="#9E9E9E"/>
<path d="M13.75 11.3828C14.0952 11.3828 14.375 11.103 14.375 10.7578C14.375 10.4126 14.0952 10.1328 13.75 10.1328C13.4048 10.1328 13.125 10.4126 13.125 10.7578C13.125 11.103 13.4048 11.3828 13.75 11.3828Z" fill="#9E9E9E"/>
<path fill-rule="evenodd" clip-rule="evenodd" d="M5.625 2.00781C5.97018 2.00781 6.25 2.28763 6.25 2.63281V3.88281H13.75V2.63281C13.75 2.28763 14.0298 2.00781 14.375 2.00781C14.7202 2.00781 15 2.28763 15 2.63281V3.88281H15.625C17.0057 3.88281 18.125 5.0021 18.125 6.38281V15.7578C18.125 17.1385 17.0057 18.2578 15.625 18.2578H4.375C2.99429 18.2578 1.875 17.1385 1.875 15.7578V6.38281C1.875 5.0021 2.99429 3.88281 4.375 3.88281H5V2.63281C5 2.28763 5.27982 2.00781 5.625 2.00781ZM16.875 9.50781C16.875 8.81746 16.3154 8.25781 15.625 8.25781H4.375C3.68464 8.25781 3.125 8.81746 3.125 9.50781V15.7578C3.125 16.4482 3.68464 17.0078 4.375 17.0078H15.625C16.3154 17.0078 16.875 16.4482 16.875 15.7578V9.50781Z" fill="#9E9E9E"/>
</svg>
