<svg width="16" height="17" viewBox="0 0 16 17" fill="none" xmlns="http://www.w3.org/2000/svg">
<path fill-rule="evenodd" clip-rule="evenodd" d="M11.0001 3.91319V4.06439C11.6366 4.12265 12.2678 4.19927 12.8932 4.29372C13.1247 4.32869 13.3555 4.3661 13.5854 4.40593C13.8575 4.45306 14.0399 4.71185 13.9927 4.98394C13.9456 5.25603 13.6868 5.43839 13.4147 5.39126C13.3683 5.38322 13.3219 5.37528 13.2754 5.36745L12.6051 14.0811C12.525 15.1231 11.6561 15.9277 10.611 15.9277H5.38913C4.34406 15.9277 3.47517 15.1231 3.39502 14.0811L2.72474 5.36745C2.67826 5.37528 2.63183 5.38322 2.58542 5.39126C2.31333 5.43839 2.05455 5.25603 2.00742 4.98394C1.96029 4.71185 2.14265 4.45306 2.41474 4.40593C2.64467 4.3661 2.87543 4.32869 3.10699 4.29372C3.73239 4.19927 4.3636 4.12265 5.00008 4.06439V3.91319C5.00008 2.87021 5.80844 1.97986 6.87704 1.94567C7.24994 1.93374 7.62432 1.92773 8.00008 1.92773C8.37585 1.92773 8.75022 1.93374 9.12313 1.94567C10.1917 1.97986 11.0001 2.87021 11.0001 3.91319ZM6.90901 2.94516C7.27126 2.93357 7.63498 2.92773 8.00008 2.92773C8.36518 2.92773 8.7289 2.93357 9.09115 2.94516C9.59423 2.96125 10.0001 3.38369 10.0001 3.91319V3.98828C9.33851 3.94811 8.67164 3.92773 8.00008 3.92773C7.32852 3.92773 6.66166 3.94811 6.00008 3.98828V3.91319C6.00008 3.38369 6.40593 2.96125 6.90901 2.94516ZM6.67248 6.90852C6.66187 6.63258 6.42957 6.41749 6.15364 6.4281C5.8777 6.43872 5.66261 6.67101 5.67322 6.94695L5.90399 12.947C5.9146 13.2229 6.1469 13.438 6.42284 13.4274C6.69878 13.4168 6.91386 13.1845 6.90325 12.9085L6.67248 6.90852ZM10.3263 6.94695C10.3369 6.67101 10.1219 6.43872 9.84591 6.4281C9.56998 6.41749 9.33768 6.63258 9.32707 6.90852L9.0963 12.9085C9.08569 13.1845 9.30077 13.4168 9.57671 13.4274C9.85265 13.438 10.0849 13.2229 10.0956 12.947L10.3263 6.94695Z" fill="#F86294"/>
</svg>
