<svg width="20" height="22" viewBox="0 0 20 22" fill="none" xmlns="http://www.w3.org/2000/svg">
<path fill-rule="evenodd" clip-rule="evenodd" d="M11.0704 0.335758C10.9351 0.154002 10.7318 0.0351937 10.5073 0.00664687C10.2827 -0.0219 10.0563 0.04227 9.87993 0.184405C7.80195 1.85934 6.35266 4.28928 5.94802 7.05923C5.2185 6.52946 4.57777 5.88401 4.05288 5.14972C3.90849 4.94772 3.68178 4.82065 3.43439 4.80304C3.187 4.78544 2.94463 4.87914 2.77319 5.05867C1.05608 6.8567 0 9.29696 0 11.9826C0 17.515 4.47715 22 10 22C15.5228 22 20 17.515 20 11.9826C20 7.9078 17.5714 4.40306 14.0886 2.83819C12.8562 2.23548 11.8385 1.36761 11.0704 0.335758ZM14.1667 13.6526C14.1667 15.9578 12.3012 17.8265 10 17.8265C7.69881 17.8265 5.83333 15.9578 5.83333 13.6526C5.83333 13.197 5.90621 12.7584 6.04091 12.3479C6.73921 12.8651 7.54188 13.2489 8.41145 13.4618C8.65133 11.9027 9.42952 10.5215 10.5499 9.51466C12.5912 9.78424 14.1667 11.5341 14.1667 13.6526Z" fill="url(#paint0_linear_119_6696)"/>
<defs>
<linearGradient id="paint0_linear_119_6696" x1="20" y1="22" x2="-4.12286" y2="15.6416" gradientUnits="userSpaceOnUse">
<stop stop-color="#FFBD62"/>
<stop offset="1" stop-color="#FB9400"/>
</linearGradient>
</defs>
</svg>
