<svg width="22" height="22" viewBox="0 0 22 22" fill="none" xmlns="http://www.w3.org/2000/svg">
<path d="M9.98756 4.41075C10.1584 4.0001 10.7401 4.0001 10.9109 4.41075L12.5141 8.26533C12.5861 8.43844 12.7489 8.55673 12.9358 8.57171L17.0971 8.90532C17.5405 8.94087 17.7202 9.49412 17.3825 9.78345L14.212 12.4993C14.0696 12.6213 14.0074 12.8127 14.0509 12.9951L15.0195 17.0558C15.1227 17.4884 14.6521 17.8304 14.2725 17.5985L10.7098 15.4225C10.5498 15.3247 10.3486 15.3247 10.1886 15.4225L6.6259 17.5985C6.24635 17.8304 5.77573 17.4884 5.87892 17.0558L6.84756 12.9951C6.89106 12.8127 6.82888 12.6213 6.68648 12.4993L3.51598 9.78345C3.17821 9.49412 3.35798 8.94087 3.8013 8.90532L7.96264 8.57171C8.14954 8.55673 8.31234 8.43844 8.38435 8.26533L9.98756 4.41075Z" stroke="#F86294" stroke-width="1.5"/>
<mask id="mask0_232_19651" style="mask-type:alpha" maskUnits="userSpaceOnUse" x="3" y="4" width="15" height="14">
<path d="M9.98756 4.41075C10.1584 4.0001 10.7401 4.0001 10.9109 4.41075L12.5141 8.26533C12.5861 8.43844 12.7489 8.55673 12.9358 8.57171L17.0971 8.90532C17.5405 8.94087 17.7202 9.49412 17.3825 9.78345L14.212 12.4993C14.0696 12.6213 14.0074 12.8127 14.0509 12.9951L15.0195 17.0558C15.1227 17.4884 14.6521 17.8304 14.2725 17.5985L10.7098 15.4225C10.5498 15.3247 10.3486 15.3247 10.1886 15.4225L6.6259 17.5985C6.24635 17.8304 5.77573 17.4884 5.87892 17.0558L6.84756 12.9951C6.89107 12.8127 6.82888 12.6213 6.68648 12.4993L3.51598 9.78345C3.17821 9.49412 3.35798 8.94087 3.8013 8.90532L7.96264 8.57171C8.14954 8.55673 8.31234 8.43844 8.38435 8.26533L9.98756 4.41075Z" fill="#1F2937"/>
</mask>
<g mask="url(#mask0_232_19651)">
<rect x="2.19922" y="3.30078" width="16.5" height="15.4" fill="#F86294"/>
</g>
</svg>
