<svg width="24" height="24" viewBox="0 0 24 24" fill="none" xmlns="http://www.w3.org/2000/svg">
<path fill-rule="evenodd" clip-rule="evenodd" d="M5.69643 10.625V7.875C5.69643 4.07804 8.5746 1 12.125 1C15.6754 1 18.5536 4.07804 18.5536 7.875V10.625C19.9737 10.625 21.125 11.8562 21.125 13.375V20.25C21.125 21.7688 19.9737 23 18.5536 23H5.69643C4.27627 23 3.125 21.7688 3.125 20.25V13.375C3.125 11.8562 4.27627 10.625 5.69643 10.625ZM15.9821 7.875V10.625H8.26786V7.875C8.26786 5.59683 9.99476 3.75 12.125 3.75C14.2552 3.75 15.9821 5.59683 15.9821 7.875Z" fill="#FAFAFA"/>
</svg>
