<svg width="42" height="24" viewBox="0 0 42 24" fill="none" xmlns="http://www.w3.org/2000/svg">
<rect x="0.620455" y="0.620455" width="40.7591" height="22.7591" rx="2.925" fill="white"/>
<rect x="0.620455" y="0.620455" width="40.7591" height="22.7591" rx="2.925" stroke="#C5CDD0" stroke-width="1.24091"/>
<g clip-path="url(#clip0_1373_56952)">
<path d="M18.2627 6.88232H23.7154V16.9599H18.2627V6.88232Z" fill="#FF5F00"/>
<path d="M18.6094 11.9215C18.6094 9.87395 19.5441 8.05782 20.9808 6.88266C19.925 6.02804 18.5921 5.51172 17.1381 5.51172C13.6932 5.51172 10.9062 8.37827 10.9062 11.9215C10.9062 15.4646 13.6932 18.3313 17.138 18.3313C18.592 18.3313 19.9249 17.8149 20.9808 16.9602C19.5441 15.8029 18.6094 13.969 18.6094 11.9215Z" fill="#EB001B"/>
<path d="M31.0726 11.9215C31.0726 15.4646 28.2857 18.3313 24.8409 18.3313C23.3868 18.3313 22.054 17.8149 20.998 16.9602C22.4521 15.7852 23.3696 13.969 23.3696 11.9215C23.3696 9.87395 22.4348 8.05782 20.998 6.88266C22.0539 6.02804 23.3868 5.51172 24.8409 5.51172C28.2857 5.51172 31.0726 8.39611 31.0726 11.9215Z" fill="#F79E1B"/>
</g>
<defs>
<clipPath id="clip0_1373_56952">
<rect width="20.1865" height="12.9771" fill="white" transform="translate(10.9062 5.51172)"/>
</clipPath>
</defs>
</svg>
