<svg width="24" height="24" viewBox="0 0 24 24" fill="none" xmlns="http://www.w3.org/2000/svg">
<path d="M12.75 3V3.5C12.75 6.32843 12.75 7.74264 13.6287 8.62132C14.5074 9.5 15.9216 9.5 18.75 9.5H19.25M19.75 11.1569V14.5C19.75 18.2712 19.75 20.1569 18.5784 21.3284C17.4069 22.5 15.5212 22.5 11.75 22.5C7.97876 22.5 6.09315 22.5 4.92157 21.3284C3.75 20.1569 3.75 18.2712 3.75 14.5V9.95584C3.75 6.71082 3.75 5.08831 4.63607 3.98933C4.81508 3.76731 5.01731 3.56508 5.23933 3.38607C6.33831 2.5 7.96082 2.5 11.2058 2.5C11.9114 2.5 12.2641 2.5 12.5872 2.61401C12.6544 2.63772 12.7202 2.665 12.7845 2.69575C13.0936 2.84355 13.343 3.093 13.8419 3.59188L18.5784 8.32843C19.1565 8.90649 19.4455 9.19552 19.5978 9.56306C19.75 9.9306 19.75 10.3394 19.75 11.1569Z" stroke="#9E9E9E" stroke-width="1.5" stroke-linecap="round" stroke-linejoin="round"/>
</svg>
