<svg width="24" height="24" viewBox="0 0 24 24" fill="none" xmlns="http://www.w3.org/2000/svg">
<path d="M15.75 2V5M6.75 2V5M11.25 2V5" stroke="#212121" stroke-width="1.5" stroke-linecap="round" stroke-linejoin="round"/>
<path d="M19.25 12V10.5C19.25 7.20017 19.25 5.55025 18.2249 4.52512C17.1997 3.5 15.5498 3.5 12.25 3.5H10.25C6.95017 3.5 5.30025 3.5 4.27513 4.52513C3.25 5.55025 3.25 7.20017 3.25 10.5V15C3.25 18.2998 3.25 19.9497 4.27513 20.9749C5.30025 22 6.95017 22 10.25 22H11.25" stroke="#212121" stroke-width="1.5" stroke-linecap="round" stroke-linejoin="round"/>
<path d="M7.25 15H11.25M7.25 11H15.25" stroke="#212121" stroke-width="1.5" stroke-linecap="round" stroke-linejoin="round"/>
<path d="M15.9867 21.6527L14.25 22L14.5973 20.2633C14.6679 19.9106 14.8413 19.5866 15.0956 19.3323L19.1611 15.2668C19.5168 14.9111 20.0937 14.9111 20.4495 15.2668L20.9832 15.8005C21.3389 16.1563 21.3389 16.7332 20.9832 17.0889L16.9177 21.1544C16.6634 21.4087 16.3394 21.5821 15.9867 21.6527Z" stroke="#212121" stroke-width="1.5" stroke-linecap="round" stroke-linejoin="round"/>
</svg>
