<svg width="20" height="21" viewBox="0 0 20 21" fill="none" xmlns="http://www.w3.org/2000/svg">
<path fill-rule="evenodd" clip-rule="evenodd" d="M10 17.4648C13.866 17.4648 17 14.3308 17 10.4648C17 6.59885 13.866 3.46484 10 3.46484C6.13401 3.46484 3 6.59885 3 10.4648C3 14.3308 6.13401 17.4648 10 17.4648ZM13.2437 9.84613L10.6187 7.22113C10.277 6.87942 9.72299 6.87942 9.38128 7.22113C9.03957 7.56283 9.03957 8.11685 9.38128 8.45856L10.5126 9.58984L7.375 9.58984C6.89175 9.58984 6.5 9.98159 6.5 10.4648C6.5 10.9481 6.89175 11.3398 7.375 11.3398H10.5126L9.38128 12.4711C9.03957 12.8128 9.03957 13.3669 9.38128 13.7086C9.72299 14.0503 10.277 14.0503 10.6187 13.7086L13.2437 11.0836C13.5854 10.7419 13.5854 10.1878 13.2437 9.84613Z" fill="#FAFAFA"/>
</svg>
