<svg width="31" height="33" viewBox="0 0 31 33" fill="none" xmlns="http://www.w3.org/2000/svg">
<g clip-path="url(#clip0_393_42620)">
<path d="M15.8068 22.5004C17.305 22.5004 18.7419 21.8538 19.8013 20.7031C20.8608 19.5523 21.456 17.9915 21.456 16.364C21.456 14.7365 20.8608 13.1757 19.8013 12.0249C18.7419 10.8741 17.305 10.2276 15.8068 10.2276C14.3085 10.2276 12.8716 10.8741 11.8122 12.0249C10.7527 13.1757 10.1575 14.7365 10.1575 16.364C10.1575 17.9915 10.7527 19.5523 11.8122 20.7031C12.8716 21.8538 14.3085 22.5004 15.8068 22.5004ZM30.8713 16.3589C30.8713 19.6244 24.6591 26.5913 15.8068 26.5913C7.17946 26.5913 0.742188 19.739 0.742188 16.3589C0.742188 12.9777 7.20677 6.13672 15.8068 6.13672C24.7287 6.13672 30.8732 12.9788 30.8713 16.3589ZM15.8068 24.5458C17.8044 24.5458 19.7203 23.6838 21.1329 22.1494C22.5455 20.615 23.339 18.5339 23.339 16.364C23.339 14.194 22.5455 12.113 21.1329 10.5786C19.7203 9.04418 17.8044 8.18217 15.8068 8.18217C13.8091 8.18217 11.8932 9.04418 10.4806 10.5786C9.06805 12.113 8.27447 14.194 8.27447 16.364C8.27447 18.5339 9.06805 20.615 10.4806 22.1494C11.8932 23.6838 13.8091 24.5458 15.8068 24.5458Z" fill="#A9A9A9"/>
</g>
<defs>
<clipPath id="clip0_393_42620">
<rect width="30.1291" height="32.7273" fill="white" transform="translate(0.742188)"/>
</clipPath>
</defs>
</svg>
