<svg width="24" height="24" viewBox="0 0 24 24" fill="none" xmlns="http://www.w3.org/2000/svg">
<path d="M15.4421 10.3779V5.87793C15.4421 3.80686 13.7632 2.12793 11.6921 2.12793C9.62107 2.12793 7.94213 3.80686 7.94213 5.87793V10.3779M19.2982 8.38516L20.5613 20.3852C20.6312 21.0494 20.1104 21.6279 19.4425 21.6279H3.94177C3.27386 21.6279 2.75303 21.0494 2.82295 20.3852L4.08611 8.38516C4.14638 7.81259 4.6292 7.37793 5.20493 7.37793H18.1793C18.7551 7.37793 19.2379 7.81259 19.2982 8.38516ZM8.31713 10.3779C8.31713 10.585 8.14924 10.7529 7.94213 10.7529C7.73503 10.7529 7.56713 10.585 7.56713 10.3779C7.56713 10.1708 7.73503 10.0029 7.94213 10.0029C8.14924 10.0029 8.31713 10.1708 8.31713 10.3779ZM15.8171 10.3779C15.8171 10.585 15.6492 10.7529 15.4421 10.7529C15.235 10.7529 15.0671 10.585 15.0671 10.3779C15.0671 10.1708 15.235 10.0029 15.4421 10.0029C15.6492 10.0029 15.8171 10.1708 15.8171 10.3779Z" stroke="#212121" stroke-width="1.5" stroke-linecap="round" stroke-linejoin="round"/>
</svg>
