<svg width="22" height="22" viewBox="0 0 22 22" fill="none" xmlns="http://www.w3.org/2000/svg">
<path d="M10.8113 19.7189L10.8053 19.7157L10.7845 19.7044C10.7668 19.6948 10.7416 19.6809 10.7092 19.6629C10.6444 19.6267 10.5512 19.5738 10.4336 19.5047C10.1985 19.3663 9.86546 19.1627 9.46705 18.8978C8.67157 18.369 7.60867 17.5917 6.54293 16.5982C4.43388 14.6322 2.19922 11.7113 2.19922 8.11328C2.19922 5.42923 4.45752 3.30078 7.18359 3.30078C8.78673 3.30078 10.2222 4.03328 11.1367 5.18141C12.0513 4.03328 13.4867 3.30078 15.0898 3.30078C17.8159 3.30078 20.0742 5.42923 20.0742 8.11328C20.0742 11.7113 17.8396 14.6322 15.7305 16.5982C14.6648 17.5917 13.6019 18.369 12.8064 18.8978C12.408 19.1627 12.0749 19.3663 11.8398 19.5047C11.7223 19.5738 11.629 19.6267 11.5643 19.6629C11.5319 19.6809 11.5066 19.6948 11.4889 19.7044L11.4682 19.7157L11.4622 19.7189L11.4596 19.7202C11.258 19.8273 11.0154 19.8273 10.8138 19.7202L10.8113 19.7189Z" fill="#F86294"/>
</svg>
