<svg width="24" height="24" viewBox="0 0 24 24" fill="none" xmlns="http://www.w3.org/2000/svg">
<path d="M19.4006 7.52831C19.5578 7.37116 19.8286 7.35514 19.9878 7.52886C20.9205 8.54617 21.4367 9.29944 21.6067 10.1336C21.7045 10.6136 21.7184 11.1021 21.6478 11.5773C21.457 12.8615 20.4165 13.902 18.3355 15.983L15.7972 18.5213C13.7162 20.6023 12.6757 21.6428 11.3915 21.8336C10.9163 21.9042 10.4278 21.8903 9.94784 21.7925C9.11374 21.6225 8.36055 21.1064 7.34341 20.1739C7.16948 20.0145 7.18556 19.7434 7.34288 19.5861C8.21907 18.7099 8.17743 17.2477 7.2499 16.3201C6.32236 15.3926 4.86016 15.351 3.98397 16.2272C3.82665 16.3845 3.55555 16.4006 3.39609 16.2266C2.4636 15.2095 1.9475 14.4563 1.77753 13.6222C1.67973 13.1422 1.66582 12.6537 1.73643 12.1785C1.92727 10.8943 2.96775 9.85381 5.04871 7.77285L7.58706 5.2345C9.66802 3.15354 10.7085 2.11306 11.9927 1.92221C12.4679 1.85161 12.9564 1.86552 13.4364 1.96332C14.2706 2.13331 15.0239 2.6495 16.0412 3.5822C16.2149 3.74148 16.1989 4.01225 16.0417 4.1694C15.1655 5.04558 15.2072 6.50778 16.1347 7.43532C17.0622 8.36286 18.5245 8.40449 19.4006 7.52831Z" stroke="#212121" stroke-width="1.5" stroke-linejoin="round"/>
<path d="M18.6921 14.8779L8.69214 4.87793" stroke="#212121" stroke-width="1.5" stroke-linejoin="round"/>
</svg>
