<svg width="42" height="24" viewBox="0 0 42 24" fill="none" xmlns="http://www.w3.org/2000/svg">
<rect x="0.620455" y="0.620455" width="40.7591" height="22.7591" rx="2.925" fill="white"/>
<rect x="0.620455" y="0.620455" width="40.7591" height="22.7591" rx="2.925" stroke="#C5CDD0" stroke-width="1.24091"/>
<path d="M31.2686 8.30068L32.818 15.6977H31.0429C30.972 15.388 30.9165 15.0642 30.8456 14.7546C30.7746 14.445 30.8456 14.5998 30.6624 14.5998H28.5079C28.4847 14.5958 28.4609 14.5966 28.4381 14.6023C28.4152 14.608 28.3938 14.6185 28.3752 14.6329C28.3567 14.6474 28.3413 14.6656 28.3302 14.6863C28.319 14.7071 28.3123 14.7299 28.3106 14.7534C28.2113 15.037 28.1132 15.3183 28.0009 15.5854C27.8875 15.8525 27.9016 15.7119 27.8591 15.7119H25.9587V15.5429C26.8971 13.3175 27.8366 11.0874 28.775 8.85259C28.8305 8.70089 28.9297 8.56906 29.0602 8.47376C29.1906 8.37847 29.3463 8.32399 29.5077 8.31723C30.127 8.28886 30.6907 8.30305 31.2686 8.30305M29.945 10.3748L28.944 13.0658H30.5217L29.945 10.3748ZM14.0413 13.3305V13.1615C14.605 11.598 15.1817 10.0344 15.7313 8.47086C15.7313 8.34441 15.8447 8.28768 15.9854 8.28768H17.8586V8.47086L14.943 15.5145C14.9292 15.5729 14.8939 15.624 14.8443 15.6577C14.7946 15.6914 14.7341 15.7052 14.6747 15.6965H13.0415C12.8996 15.6965 12.8441 15.6965 12.8016 15.5133C12.2816 13.4853 11.745 11.4573 11.2238 9.41514C11.2115 9.36282 11.189 9.31346 11.1575 9.26986C11.1261 9.22626 11.0864 9.18928 11.0406 9.16105C10.4968 8.85841 9.9208 8.6174 9.32346 8.4425C9.32346 8.4425 9.22419 8.37159 9.18164 8.34441C9.24186 8.33005 9.30461 8.33005 9.36482 8.34441H12.1823C12.3 8.32651 12.4201 8.33368 12.5348 8.36544C12.6495 8.3972 12.7562 8.45284 12.8479 8.52871C12.9397 8.60459 13.0143 8.69898 13.067 8.80571C13.1197 8.91244 13.1493 9.0291 13.1537 9.14805L13.9574 13.2738C13.9527 13.3067 13.9527 13.3401 13.9574 13.373L14.0413 13.3305ZM20.6051 15.4152L20.8876 13.7666L21.0849 13.88C21.804 14.2526 22.6293 14.3669 23.4226 14.2039C23.5742 14.1909 23.7181 14.131 23.8341 14.0325C23.9502 13.934 24.0327 13.8018 24.0702 13.6543C24.0846 13.5072 24.0513 13.3594 23.9754 13.2326C23.8994 13.1058 23.7848 13.0067 23.6483 12.95C23.3658 12.7668 23.0574 12.6261 22.7891 12.443C22.4421 12.2487 22.1205 12.0121 21.8318 11.7386C21.5395 11.3889 21.3794 10.9476 21.3794 10.4918C21.3794 10.036 21.5395 9.59467 21.8318 9.24496C22.2558 8.7814 22.8105 8.45749 23.4226 8.31605C24.3549 8.08332 25.3354 8.13226 26.24 8.45668H26.3109L26.0426 9.97768C25.6873 9.86831 25.3248 9.7838 24.9577 9.72477C24.5919 9.69663 24.2245 9.69663 23.8586 9.72477C23.7265 9.75102 23.6047 9.81459 23.5076 9.90796C23.4606 9.94778 23.4228 9.99738 23.3969 10.0533C23.3709 10.1092 23.3575 10.1701 23.3575 10.2318C23.3575 10.2934 23.3709 10.3543 23.3969 10.4102C23.4228 10.4662 23.4606 10.5158 23.5076 10.5556C23.6758 10.7105 23.8596 10.8475 24.056 10.9645C24.4224 11.189 24.8029 11.3722 25.1551 11.6121C25.4464 11.7902 25.688 12.0391 25.8575 12.3355C26.027 12.6319 26.1188 12.9664 26.1245 13.3078C26.1301 13.6492 26.0494 13.9865 25.8899 14.2884C25.7303 14.5903 25.4971 14.847 25.2118 15.0347C24.6502 15.4696 23.9753 15.7337 23.2677 15.7958C22.3623 15.8958 21.4463 15.7648 20.6051 15.4152ZM17.478 15.6965L18.6894 8.30186H20.6193L19.4079 15.6965H17.478Z" fill="#1B2E86"/>
</svg>
