<svg width="20" height="20" viewBox="0 0 20 20" fill="none" xmlns="http://www.w3.org/2000/svg">
<path d="M10 18C13.7267 18 16.8583 15.4517 17.7473 12.0026M10 18C6.27327 18 3.14171 15.4517 2.25271 12.0026M10 18C12.2091 18 14 14.4183 14 10C14 5.58172 12.2091 2 10 2M10 18C7.79086 18 6 14.4183 6 10C6 5.58172 7.79086 2 10 2M10 2C12.9913 2 15.5991 3.64172 16.9716 6.07329M10 2C7.00872 2 4.40088 3.64172 3.02838 6.07329M16.9716 6.07329C15.102 7.68924 12.6651 8.66667 10 8.66667C7.33486 8.66667 4.89802 7.68924 3.02838 6.07329M16.9716 6.07329C17.6264 7.23327 18 8.573 18 10C18 10.6915 17.9123 11.3626 17.7473 12.0026M17.7473 12.0026C15.4519 13.2753 12.8106 14 10 14C7.18943 14 4.54811 13.2753 2.25271 12.0026M2.25271 12.0026C2.08775 11.3626 2 10.6915 2 10C2 8.573 2.37362 7.23327 3.02838 6.07329" stroke="#212121" stroke-width="1.5" stroke-linecap="round" stroke-linejoin="round"/>
</svg>
