<svg width="24" height="24" viewBox="0 0 24 24" fill="none" xmlns="http://www.w3.org/2000/svg">
<path d="M14.25 6.5C14.2034 5.40658 14.0647 4.70985 13.6525 4.17376C13.4926 3.96574 13.3061 3.77954 13.0976 3.61992C12.2881 3 11.113 3 8.76284 3H8.26182C5.42784 3 4.01085 3 3.13044 3.87867C2.25004 4.75734 2.25002 6.17157 2.25001 8.99997L2.25 16C2.24999 18.8284 2.24998 20.2426 3.1304 21.1213C4.01081 22 5.42781 22 8.26182 22H8.76279C11.113 22 12.2881 22 13.0976 21.3801C13.306 21.2205 13.4926 21.0343 13.6525 20.8263C14.0647 20.2901 14.2034 19.5933 14.25 18.4996" stroke="#F5483B" stroke-width="1.5" stroke-linecap="round" stroke-linejoin="round"/>
<path d="M20.25 12.4999H8.25M17.75 16C17.75 16 21.25 13.4223 21.25 12.5C21.25 11.5777 17.75 9 17.75 9" stroke="#F5483B" stroke-width="1.5" stroke-linecap="round" stroke-linejoin="round"/>
</svg>
