<svg width="18" height="18" viewBox="0 0 18 18" fill="none" xmlns="http://www.w3.org/2000/svg">
<path fill-rule="evenodd" clip-rule="evenodd" d="M1.00966 1.00966C1.55639 0.462926 2.44282 0.462926 2.98956 1.00966L8.99961 7.01971L15.0097 1.00966C15.5564 0.462926 16.4428 0.462926 16.9896 1.00966C17.5363 1.55639 17.5363 2.44282 16.9896 2.98956L10.9795 8.99961L16.9896 15.0097C17.5363 15.5564 17.5363 16.4428 16.9896 16.9896C16.4428 17.5363 15.5564 17.5363 15.0097 16.9896L8.99961 10.9795L2.98956 16.9896C2.44282 17.5363 1.55639 17.5363 1.00966 16.9896C0.462926 16.4428 0.462926 15.5564 1.00966 15.0097L7.01971 8.99961L1.00966 2.98956C0.462926 2.44282 0.462926 1.55639 1.00966 1.00966Z" fill="#616161"/>
</svg>
