<svg id="SvgjsSvg1001" width="288" height="288" xmlns="http://www.w3.org/2000/svg" version="1.1" xmlns:xlink="http://www.w3.org/1999/xlink" xmlns:svgjs="http://svgjs.com/svgjs"><defs id="SvgjsDefs1002"/><g id="SvgjsG1008"><svg xmlns="http://www.w3.org/2000/svg" viewBox="0 0 24 24" width="288" height="288"><path stroke="#f981a9" stroke-width="1.5" d="M16.6921 11.6824C16.6921 11.3367 16.6921 11.1639 16.7441 11.0099 16.8953 10.5623 17.2939 10.3887 17.6932 10.2068 18.1421 10.0023 18.3665 9.90013 18.5889 9.88213 18.8414 9.86171 19.0943 9.91613 19.3101 10.0372 19.5962 10.1977 19.7957 10.5028 20 10.7509 20.9434 11.8967 21.415 12.4697 21.5876 13.1015 21.7269 13.6113 21.7269 14.1445 21.5876 14.6543 21.3359 15.5758 20.5406 16.3483 19.9519 17.0633 19.6508 17.429 19.5002 17.6119 19.3101 17.7186 19.0943 17.8397 18.8414 17.8941 18.5889 17.8737 18.3665 17.8557 18.1421 17.7535 17.6932 17.549 17.2939 17.3671 16.8953 17.1935 16.7441 16.7459 16.6921 16.5919 16.6921 16.4191 16.6921 16.0734V11.6824zM6.69214 11.6825C6.69214 11.2473 6.67992 10.8561 6.32805 10.5501 6.20007 10.4388 6.03039 10.3615 5.69105 10.2069 5.24215 10.0025 5.0177 9.9003 4.7953 9.8823 4.12805 9.8283 3.76906 10.2837 3.38427 10.7511 2.44089 11.8969 1.9692 12.4698 1.7966 13.1016 1.65732 13.6115 1.65732 14.1447 1.7966 14.6545 2.04834 15.576 2.84366 16.3484 3.43235 17.0635 3.80343 17.5142 4.15791 17.9254 4.7953 17.8739 5.0177 17.8559 5.24215 17.7536 5.69105 17.5492 6.03039 17.3946 6.20007 17.3173 6.32805 17.206 6.67992 16.9 6.69214 16.5089 6.69214 16.0736V11.6825z" fill="none" class="svgStroke colorStroke212121-0 selectable"/><path stroke="#f981a9" stroke-width="1.5" d="M19.6921 10.3779V8.87793C19.6921 5.01194 16.1104 1.87793 11.6921 1.87793C7.27386 1.87793 3.69214 5.01194 3.69214 8.87793V10.3779" fill="none" class="svgStroke colorStroke212121-1 selectable"/><path stroke="#f981a9" stroke-linecap="round" stroke-width="1.5" d="M19.6921 17.3779C19.6921 21.8779 15.6921 21.8779 11.6921 21.8779" fill="none" class="svgStroke colorStroke212121-2 selectable"/></svg></g><script xmlns=""/></svg>