<svg width="19" height="20" viewBox="0 0 19 20" fill="none" xmlns="http://www.w3.org/2000/svg">
<path fill-rule="evenodd" clip-rule="evenodd" d="M9.49981 19.3785C14.7189 19.3785 18.9498 15.1476 18.9498 9.92852C18.9498 4.70943 14.7189 0.478516 9.49981 0.478516C4.28071 0.478516 0.0498047 4.70943 0.0498047 9.92852C0.0498047 15.1476 4.28071 19.3785 9.49981 19.3785ZM13.8788 8.40129C14.3401 7.93998 14.3401 7.19205 13.8788 6.73075C13.4175 6.26944 12.6696 6.26944 12.2083 6.73075L8.31856 10.6205L6.79133 9.09325C6.33002 8.63194 5.58209 8.63194 5.12079 9.09325C4.65948 9.55455 4.65948 10.3025 5.12079 10.7638L7.48329 13.1263C7.94459 13.5876 8.69252 13.5876 9.15382 13.1263L13.8788 8.40129Z" fill="#F86294"/>
</svg>
