<svg width="18" height="18" viewBox="0 0 18 18" fill="none" xmlns="http://www.w3.org/2000/svg">
<path fill-rule="evenodd" clip-rule="evenodd" d="M1.01161 1.00966C1.55835 0.462926 2.44478 0.462926 2.99151 1.00966L9.00156 7.01971L15.0116 1.00966C15.5583 0.462926 16.4448 0.462926 16.9915 1.00966C17.5382 1.55639 17.5382 2.44282 16.9915 2.98956L10.9815 8.99961L16.9915 15.0097C17.5382 15.5564 17.5382 16.4428 16.9915 16.9896C16.4448 17.5363 15.5583 17.5363 15.0116 16.9896L9.00156 10.9795L2.99151 16.9896C2.44478 17.5363 1.55835 17.5363 1.01161 16.9896C0.464879 16.4428 0.464879 15.5564 1.01161 15.0097L7.02166 8.99961L1.01161 2.98956C0.464879 2.44282 0.464879 1.55639 1.01161 1.00966Z" fill="#FAFAFA"/>
</svg>
