<svg width="20" height="20" viewBox="0 0 20 20" fill="none" xmlns="http://www.w3.org/2000/svg">
<path d="M13.1248 8.75V5C13.1248 3.27411 11.7256 1.875 9.99975 1.875C8.27386 1.875 6.87475 3.27411 6.87475 5V8.75M16.3381 7.08936L17.3907 17.0894C17.449 17.6429 17.015 18.125 16.4584 18.125H3.54112C2.98452 18.125 2.5505 17.6429 2.60877 17.0894L3.6614 7.08936C3.71162 6.61222 4.11397 6.25 4.59375 6.25H15.4058C15.8855 6.25 16.2879 6.61222 16.3381 7.08936ZM7.18725 8.75C7.18725 8.92259 7.04734 9.0625 6.87475 9.0625C6.70216 9.0625 6.56225 8.92259 6.56225 8.75C6.56225 8.57741 6.70216 8.4375 6.87475 8.4375C7.04734 8.4375 7.18725 8.57741 7.18725 8.75ZM13.4373 8.75C13.4373 8.92259 13.2973 9.0625 13.1248 9.0625C12.9522 9.0625 12.8123 8.92259 12.8123 8.75C12.8123 8.57741 12.9522 8.4375 13.1248 8.4375C13.2973 8.4375 13.4373 8.57741 13.4373 8.75Z" stroke="#212121" stroke-width="1.5" stroke-linecap="round" stroke-linejoin="round"/>
</svg>
