<svg width="20" height="21" viewBox="0 0 20 21" fill="none" xmlns="http://www.w3.org/2000/svg">
<path d="M14.0514 4.66663L15.4576 3.26038C16.0678 2.65019 17.0572 2.65019 17.6674 3.26038C18.2775 3.87057 18.2775 4.85989 17.6674 5.47009L8.81849 14.319C8.37792 14.7595 7.83453 15.0834 7.23741 15.2612L5 15.9277L5.66648 13.6903C5.84435 13.0932 6.1682 12.5498 6.60877 12.1093L14.0514 4.66663ZM14.0514 4.66663L16.25 6.86523M15 12.5944V16.5527C15 17.5883 14.1605 18.4277 13.125 18.4277H4.375C3.33947 18.4277 2.5 17.5883 2.5 16.5527V7.80273C2.5 6.76719 3.33947 5.92773 4.375 5.92773H8.33333" stroke="#F86294" stroke-width="1.5" stroke-linecap="round" stroke-linejoin="round"/>
</svg>
