<svg width="24" height="24" viewBox="0 0 24 24" fill="none" xmlns="http://www.w3.org/2000/svg">
<path d="M11.625 22C17.1478 22 21.625 17.5228 21.625 12C21.625 6.47715 17.1478 2 11.625 2C6.10215 2 1.625 6.47715 1.625 12C1.625 17.5228 6.10215 22 11.625 22Z" fill="#FEC933"/>
<path d="M13.8368 16.059C14.615 15.3056 15.1536 14.1642 15.2805 12.8582C15.3115 12.5382 15.0513 12.2632 14.73 12.2632H8.51997C8.19839 12.2632 7.93839 12.5382 7.96944 12.8582C8.09628 14.1642 8.63523 15.3056 9.41312 16.059C10.0292 16.6556 13.2208 16.6556 13.8368 16.059Z" fill="#4A254B"/>
<path d="M11.625 17.0092C12.455 17.0092 13.22 16.6548 13.836 16.0585C13.1979 15.6074 12.4413 15.3408 11.625 15.3408C10.8087 15.3408 10.0521 15.6074 9.41394 16.0585C10.03 16.655 10.795 17.0092 11.625 17.0092Z" fill="#FC7884"/>
<path d="M6.48364 8.88818L9.36443 9.82739L7.03706 11.2592" stroke="#4A254B" stroke-width="0.526316" stroke-miterlimit="10" stroke-linecap="round" stroke-linejoin="round"/>
<path d="M16.7663 8.88818L13.8855 9.82739L16.2129 11.2592" stroke="#4A254B" stroke-width="0.526316" stroke-miterlimit="10" stroke-linecap="round" stroke-linejoin="round"/>
</svg>
