<svg width="24" height="24" viewBox="0 0 24 24" fill="none" xmlns="http://www.w3.org/2000/svg">
<path d="M21.294 11.545C21.598 11.9713 21.75 12.1845 21.75 12.5C21.75 12.8155 21.598 13.0287 21.294 13.455C19.9279 15.3706 16.4392 19.5 11.75 19.5C7.06078 19.5 3.5721 15.3706 2.20604 13.455C1.90201 13.0287 1.75 12.8155 1.75 12.5C1.75 12.1845 1.90201 11.9713 2.20604 11.545C3.5721 9.62944 7.06078 5.5 11.75 5.5C16.4392 5.5 19.9279 9.62944 21.294 11.545Z" stroke="#212121" stroke-width="1.5"/>
<path d="M14.75 12.5C14.75 10.8431 13.4069 9.5 11.75 9.5C10.0931 9.5 8.75 10.8431 8.75 12.5C8.75 14.1569 10.0931 15.5 11.75 15.5C13.4069 15.5 14.75 14.1569 14.75 12.5Z" stroke="#212121" stroke-width="1.5"/>
</svg>
