<svg width="20" height="20" viewBox="0 0 20 20" fill="none" xmlns="http://www.w3.org/2000/svg">
<path d="M4.42263 7.63213C3.78064 8.39105 3.29075 9.28277 3 10.2602C3.89805 13.2761 6.69206 15.4752 9.99969 15.4752C10.69 15.4752 11.3579 15.3794 11.9909 15.2004M5.98583 6.24471C7.1377 5.48523 8.51738 5.0432 10.0003 5.0432C13.3079 5.0432 16.1019 7.2423 17 10.2582C16.5049 11.9227 15.4323 13.3385 14.0146 14.2734M5.98583 6.24471L3.74112 4M5.98583 6.24471L8.52501 8.78389M14.0146 14.2734L16.2595 16.5184M14.0146 14.2734L11.4756 11.7345M11.4756 11.7345C11.8532 11.3569 12.0867 10.8353 12.0867 10.2592C12.0867 9.10691 11.1526 8.1728 10.0003 8.1728C9.42418 8.1728 8.90258 8.40633 8.52501 8.78389M11.4756 11.7345L8.52501 8.78389" stroke="#757575" stroke-width="1.5" stroke-linecap="round" stroke-linejoin="round"/>
</svg>
