<svg width="24" height="24" viewBox="0 0 24 24" fill="none" xmlns="http://www.w3.org/2000/svg">
<path d="M19.75 13.5V11.1569C19.75 10.3394 19.75 9.9306 19.5978 9.56306C19.4455 9.19552 19.1565 8.90649 18.5784 8.32843L13.8419 3.59188C13.343 3.093 13.0936 2.84355 12.7845 2.69575C12.7202 2.665 12.6544 2.63772 12.5872 2.61401C12.2641 2.5 11.9114 2.5 11.2058 2.5C7.96082 2.5 6.33831 2.5 5.23933 3.38607C5.01731 3.56508 4.81508 3.76731 4.63607 3.98933C3.75 5.08831 3.75 6.71082 3.75 9.95584V14.5C3.75 18.2712 3.75 20.1569 4.92157 21.3284C5.98467 22.3915 7.6357 22.49 10.75 22.4991M12.75 3V3.5C12.75 6.32843 12.75 7.74264 13.6287 8.62132C14.5074 9.5 15.9216 9.5 18.75 9.5H19.25" stroke="#9E9E9E" stroke-width="1.5" stroke-linecap="round" stroke-linejoin="round"/>
<path d="M19.75 22.5L17.6029 20.3529M17.6029 20.3529C17.7175 20.2384 17.8239 20.1158 17.9214 19.986C18.352 19.413 18.6071 18.7006 18.6071 17.9286C18.6071 16.035 17.0721 14.5 15.1786 14.5C13.285 14.5 11.75 16.035 11.75 17.9286C11.75 19.8221 13.285 21.3571 15.1786 21.3571C16.1253 21.3571 16.9825 20.9734 17.6029 20.3529Z" stroke="#9E9E9E" stroke-width="1.5" stroke-linecap="round" stroke-linejoin="round"/>
</svg>
