<svg width="24" height="24" viewBox="0 0 24 24" fill="none" xmlns="http://www.w3.org/2000/svg">
<path d="M12 22C17.5228 22 22 17.5228 22 12C22 6.47715 17.5228 2 12 2C6.47715 2 2 6.47715 2 12C2 17.5228 6.47715 22 12 22Z" fill="#FEC933"/>
<path d="M10.1578 14.6318H13.842" stroke="#4A254B" stroke-width="0.526316" stroke-miterlimit="10" stroke-linecap="round" stroke-linejoin="round"/>
<path d="M7.92107 12.7897C9.01111 12.7897 9.89476 11.906 9.89476 10.816C9.89476 9.72593 9.01111 8.84229 7.92107 8.84229C6.83104 8.84229 5.94739 9.72593 5.94739 10.816C5.94739 11.906 6.83104 12.7897 7.92107 12.7897Z" fill="white"/>
<path d="M7.92103 11.7447C8.43422 11.7447 8.85024 11.3286 8.85024 10.8154C8.85024 10.3023 8.43422 9.88623 7.92103 9.88623C7.40784 9.88623 6.99182 10.3023 6.99182 10.8154C6.99182 11.3286 7.40784 11.7447 7.92103 11.7447Z" fill="#4A254B"/>
<path d="M16.0789 12.7897C17.1689 12.7897 18.0526 11.906 18.0526 10.816C18.0526 9.72593 17.1689 8.84229 16.0789 8.84229C14.9889 8.84229 14.1052 9.72593 14.1052 10.816C14.1052 11.906 14.9889 12.7897 16.0789 12.7897Z" fill="white"/>
<path d="M16.079 11.7447C16.5922 11.7447 17.0082 11.3286 17.0082 10.8154C17.0082 10.3023 16.5922 9.88623 16.079 9.88623C15.5658 9.88623 15.1498 10.3023 15.1498 10.8154C15.1498 11.3286 15.5658 11.7447 16.079 11.7447Z" fill="#4A254B"/>
<path d="M10.1965 14.251L10.0376 14.8347" stroke="#4A254B" stroke-width="0.526316" stroke-miterlimit="10" stroke-linecap="round" stroke-linejoin="round"/>
<path d="M13.8422 14.2744L14.0558 14.8857" stroke="#4A254B" stroke-width="0.526316" stroke-miterlimit="10" stroke-linecap="round" stroke-linejoin="round"/>
</svg>
