<svg width="24" height="24" viewBox="0 0 24 24" fill="none" xmlns="http://www.w3.org/2000/svg">
<path d="M11.875 22C17.3978 22 21.875 17.5228 21.875 12C21.875 6.47715 17.3978 2 11.875 2C6.35215 2 1.875 6.47715 1.875 12C1.875 17.5228 6.35215 22 11.875 22Z" fill="#FEC933"/>
<path d="M6.76953 11.1821C7.03637 10.7408 7.53453 10.4203 8.12848 10.3663C8.72269 10.3124 9.27032 10.5379 9.61216 10.9242" stroke="#4A254B" stroke-width="0.526316" stroke-miterlimit="10" stroke-linecap="round" stroke-linejoin="round"/>
<path d="M16.9806 11.1821C16.7137 10.7408 16.2156 10.4203 15.6216 10.3663C15.0274 10.3124 14.4798 10.5379 14.1379 10.9242" stroke="#4A254B" stroke-width="0.526316" stroke-miterlimit="10" stroke-linecap="round" stroke-linejoin="round"/>
<path d="M11.875 13.2329C10.4079 13.2329 9.18865 14.294 8.94286 15.6903C8.89523 15.9616 9.1076 16.2103 9.38286 16.2103H10.2105L11.9163 15.8513L13.5394 16.2103H14.3671C14.6426 16.2103 14.855 15.9616 14.8071 15.6905C14.5613 14.294 13.3421 13.2329 11.875 13.2329Z" fill="#4A254B"/>
<path d="M13.5427 16.2053C13.0613 15.6724 12.4908 15.3574 11.875 15.3574C11.2592 15.3574 10.6887 15.6724 10.2074 16.2053C10.2085 16.2069 10.2095 16.2082 10.2106 16.2098H13.5392C13.5406 16.2082 13.5416 16.2069 13.5427 16.2053Z" fill="#FC7884"/>
<path d="M6.74201 12.8891C7.24527 13.4567 6.2316 16.375 5.23373 17.2596C4.23585 18.1443 2.74902 18.1023 1.9186 17.1661C1.08818 16.2296 1.22464 14.7484 2.22222 13.8634C3.2201 12.9788 6.23875 12.3215 6.74201 12.8891Z" fill="#81D4FA"/>
<path d="M22.0281 13.8634C23.0259 14.7481 23.1621 16.2296 22.3317 17.1661C21.5013 18.1026 20.0144 18.1446 19.0166 17.2596C18.0187 16.375 17.005 13.4567 17.5083 12.8891C18.0115 12.3215 21.0302 12.9788 22.0281 13.8634Z" fill="#81D4FA"/>
</svg>
