<svg width="20" height="20" viewBox="0 0 20 20" fill="none" xmlns="http://www.w3.org/2000/svg">
<path d="M6.5625 11.875L7.57422 13.4937C7.91685 14.042 8.51773 14.375 9.16421 14.375H10.8358C11.4823 14.375 12.0831 14.042 12.4258 13.4937L13.4375 11.875M2.00801 7.5H5.87153C6.49844 7.5 7.08388 7.81331 7.43162 8.33494L7.56838 8.54006C7.91612 9.06169 8.50156 9.375 9.12847 9.375H10.8715C11.4984 9.375 12.0839 9.06169 12.4316 8.54006L12.5684 8.33494C12.9161 7.81331 13.5016 7.5 14.1285 7.5H17.992M2.00801 7.5C1.92081 7.719 1.875 7.95419 1.875 8.19361V10C1.875 11.0355 2.71447 11.875 3.75 11.875H16.25C17.2855 11.875 18.125 11.0355 18.125 10V8.19361C18.125 7.95419 18.0792 7.719 17.992 7.5M2.00801 7.5C2.08382 7.30959 2.19092 7.13142 2.32639 6.97337L5.06377 3.77977C5.41999 3.36418 5.94002 3.125 6.48738 3.125H13.5126C14.06 3.125 14.58 3.36418 14.9362 3.77977L17.6736 6.97337C17.8091 7.13142 17.9162 7.30959 17.992 7.5M3.75 16.875H16.25C17.2855 16.875 18.125 16.0355 18.125 15V12.8125C18.125 12.2947 17.7053 11.875 17.1875 11.875H2.8125C2.29473 11.875 1.875 12.2947 1.875 12.8125V15C1.875 16.0355 2.71447 16.875 3.75 16.875Z" stroke="#FAFAFA" stroke-width="1.5" stroke-linecap="round" stroke-linejoin="round"/>
</svg>
