<svg width="36" height="36" viewBox="0 0 36 36" fill="none" xmlns="http://www.w3.org/2000/svg">
<path fill-rule="evenodd" clip-rule="evenodd" d="M10.1266 16.4254V13.2754C10.1266 8.92615 13.6523 5.40039 18.0016 5.40039C22.3508 5.40039 25.8766 8.92615 25.8766 13.2754V16.4254C27.6163 16.4254 29.0266 17.8357 29.0266 19.5754V27.4504C29.0266 29.1901 27.6163 30.6004 25.8766 30.6004H10.1266C8.38687 30.6004 6.97656 29.1901 6.97656 27.4504V19.5754C6.97656 17.8357 8.38687 16.4254 10.1266 16.4254ZM22.7266 13.2754V16.4254H13.2766V13.2754C13.2766 10.6658 15.392 8.55039 18.0016 8.55039C20.6111 8.55039 22.7266 10.6658 22.7266 13.2754Z" fill="#FAFAFA"/>
</svg>
