<svg width="118" height="37" viewBox="0 0 118 37" fill="none" xmlns="http://www.w3.org/2000/svg">
<mask id="path-1-outside-1_1498_26335" maskUnits="userSpaceOnUse" x="0" y="4" width="118" height="30" fill="black">
<rect fill="white" y="4" width="118" height="30"/>
<path d="M12.2784 7.05646V31H6.30363V18.1631C6.30363 16.3095 6.25926 15.1954 6.17052 14.8207C6.08179 14.4461 5.83531 14.1651 5.43107 13.9778C5.03669 13.7806 4.14935 13.682 2.76903 13.682H2.17747V10.8868C5.06627 10.2657 7.25999 8.9889 8.75862 7.05646H12.2784ZM29.0315 17.4236C29.909 17.7785 30.5844 18.311 31.0576 19.0208C31.5309 19.7209 31.7675 21.3969 31.7675 24.0491C31.7675 25.9816 31.5802 27.4063 31.2055 28.3232C30.8308 29.2401 30.1013 29.9943 29.0167 30.5859C27.9322 31.1676 26.4779 31.4585 24.6539 31.4585C22.8792 31.4585 21.4743 31.1775 20.439 30.6155C19.4038 30.0535 18.6594 29.3091 18.2059 28.3823C17.7622 27.4555 17.5404 25.9126 17.5404 23.7533C17.5404 22.304 17.6488 21.0469 17.8657 19.9821C18.0925 18.9173 18.7925 18.0645 19.9658 17.4236C19.2263 17.0687 18.6693 16.5067 18.2946 15.7377C17.9298 14.9588 17.7474 13.9728 17.7474 12.7798C17.7474 10.7192 18.3193 9.17623 19.463 8.15085C20.6067 7.11561 22.3173 6.59799 24.5948 6.59799C27.2272 6.59799 29.0463 7.14519 30.052 8.23958C31.0576 9.33398 31.5604 10.8967 31.5604 12.9277C31.5604 14.2193 31.3928 15.151 31.0576 15.7229C30.7323 16.2947 30.0569 16.8616 29.0315 17.4236ZM25.6744 12.277C25.6744 11.4685 25.6004 10.9361 25.4525 10.6798C25.3145 10.4136 25.0434 10.2805 24.6391 10.2805C24.2448 10.2805 23.9786 10.4234 23.8405 10.7094C23.7025 10.9854 23.6335 11.508 23.6335 12.277V14.0961C23.6335 14.8158 23.7124 15.3137 23.8701 15.5898C24.0279 15.8658 24.2941 16.0039 24.6687 16.0039C25.0631 16.0039 25.3293 15.8708 25.4673 15.6046C25.6054 15.3285 25.6744 14.7665 25.6744 13.9186V12.277ZM25.7927 22.2301C25.7927 21.3131 25.699 20.7068 25.5117 20.411C25.3244 20.1054 25.0286 19.9525 24.6244 19.9525C24.23 19.9525 23.9441 20.1004 23.7666 20.3962C23.599 20.6821 23.5152 21.2934 23.5152 22.2301V25.3358C23.5152 26.371 23.6088 27.0365 23.7962 27.3323C23.9934 27.6281 24.299 27.776 24.7131 27.776C25.137 27.776 25.423 27.6281 25.5709 27.3323C25.7187 27.0267 25.7927 26.3464 25.7927 25.2914V22.2301ZM57.9678 7.05646V11.8481H54.2706V31H48.0444V11.8481H44.3619V7.05646H57.9678ZM76.6435 21.0765C76.6435 23.4822 76.5844 25.1879 76.466 26.1935C76.3576 27.1893 76.0027 28.1013 75.4012 28.9295C74.8097 29.7577 74.0061 30.3936 72.9906 30.8373C71.9751 31.281 70.792 31.5028 69.4412 31.5028C68.1595 31.5028 67.006 31.2958 65.9806 30.8817C64.9651 30.4577 64.1467 29.8267 63.5256 28.9887C62.9044 28.1506 62.5347 27.2386 62.4164 26.2527C62.2981 25.2668 62.2389 23.5414 62.2389 21.0765V16.9799C62.2389 14.5742 62.2932 12.8735 62.4016 11.8777C62.5199 10.872 62.8749 9.95512 63.4664 9.12693C64.0679 8.29874 64.8763 7.66281 65.8918 7.21914C66.9074 6.77546 68.0905 6.55363 69.4412 6.55363C70.723 6.55363 71.8716 6.7656 72.8871 7.18956C73.9125 7.60365 74.7357 8.22972 75.3569 9.06777C75.978 9.90582 76.3477 10.8178 76.466 11.8038C76.5844 12.7897 76.6435 14.5151 76.6435 16.9799V21.0765ZM70.4173 13.2087C70.4173 12.0946 70.3532 11.3847 70.2251 11.0791C70.1067 10.7636 69.8553 10.6058 69.4708 10.6058C69.1454 10.6058 68.894 10.734 68.7166 10.9904C68.549 11.2368 68.4651 11.9763 68.4651 13.2087V24.3893C68.4651 25.7794 68.5194 26.6372 68.6278 26.9626C68.7461 27.2879 69.0123 27.4506 69.4264 27.4506C69.8504 27.4506 70.1215 27.2633 70.2398 26.8886C70.3582 26.514 70.4173 25.6217 70.4173 24.2118V13.2087ZM96.2361 21.0765C96.2361 23.4822 96.177 25.1879 96.0586 26.1935C95.9502 27.1893 95.5952 28.1013 94.9938 28.9295C94.4023 29.7577 93.5987 30.3936 92.5832 30.8373C91.5677 31.281 90.3846 31.5028 89.0338 31.5028C87.7521 31.5028 86.5985 31.2958 85.5732 30.8817C84.5577 30.4577 83.7393 29.8267 83.1182 28.9887C82.497 28.1506 82.1273 27.2386 82.009 26.2527C81.8907 25.2668 81.8315 23.5414 81.8315 21.0765V16.9799C81.8315 14.5742 81.8858 12.8735 81.9942 11.8777C82.1125 10.872 82.4675 9.95512 83.059 9.12693C83.6604 8.29874 84.4689 7.66281 85.4844 7.21914C86.5 6.77546 87.6831 6.55363 89.0338 6.55363C90.3155 6.55363 91.4642 6.7656 92.4797 7.18956C93.5051 7.60365 94.3283 8.22972 94.9495 9.06777C95.5706 9.90582 95.9403 10.8178 96.0586 11.8038C96.177 12.7897 96.2361 14.5151 96.2361 16.9799V21.0765ZM90.0099 13.2087C90.0099 12.0946 89.9458 11.3847 89.8176 11.0791C89.6993 10.7636 89.4479 10.6058 89.0634 10.6058C88.738 10.6058 88.4866 10.734 88.3092 10.9904C88.1415 11.2368 88.0577 11.9763 88.0577 13.2087V24.3893C88.0577 25.7794 88.112 26.6372 88.2204 26.9626C88.3387 27.2879 88.6049 27.4506 89.019 27.4506C89.443 27.4506 89.7141 27.2633 89.8324 26.8886C89.9507 26.514 90.0099 25.6217 90.0099 24.2118V13.2087ZM115.503 7.05646V31H110.046L106.807 20.1152V31H101.602V7.05646H106.807L110.298 17.8377V7.05646H115.503Z"/>
</mask>
<path d="M12.2784 7.05646H14.1714V5.16345H12.2784V7.05646ZM12.2784 31V32.893H14.1714V31H12.2784ZM6.30363 31H4.41062V32.893H6.30363V31ZM6.17052 14.8207L4.32848 15.257L6.17052 14.8207ZM5.43107 13.9778L4.58449 15.6709L4.60963 15.6835L4.63514 15.6953L5.43107 13.9778ZM2.17747 13.682H0.284465V15.575H2.17747V13.682ZM2.17747 10.8868L1.77954 9.03613L0.284465 9.35759V10.8868H2.17747ZM8.75862 7.05646V5.16345H7.83112L7.26273 5.89638L8.75862 7.05646ZM12.2784 7.05646H10.3854V31H12.2784H14.1714V7.05646H12.2784ZM12.2784 31V29.107H6.30363V31V32.893H12.2784V31ZM6.30363 31H8.19663V18.1631H6.30363H4.41062V31H6.30363ZM6.30363 18.1631H8.19663C8.19663 17.2252 8.18547 16.4551 8.16186 15.862C8.14072 15.3313 8.10578 14.778 8.01257 14.3845L6.17052 14.8207L4.32848 15.257C4.32401 15.2381 4.35561 15.4292 4.37885 16.0126C4.39959 16.5337 4.41062 17.2473 4.41062 18.1631H6.30363ZM6.17052 14.8207L8.01257 14.3845C7.76801 13.3519 7.06465 12.6484 6.227 12.2602L5.43107 13.9778L4.63514 15.6953C4.64301 15.6989 4.57696 15.6696 4.49603 15.5773C4.40913 15.4782 4.35314 15.3611 4.32848 15.257L6.17052 14.8207ZM5.43107 13.9778L6.27765 12.2846C5.76581 12.0287 5.16474 11.9285 4.67883 11.8745C4.1391 11.8145 3.49579 11.789 2.76903 11.789V13.682V15.575C3.42259 15.575 3.91312 15.5987 4.26073 15.6373C4.43354 15.6565 4.54848 15.677 4.6172 15.6929C4.69548 15.7109 4.66782 15.7126 4.58449 15.6709L5.43107 13.9778ZM2.76903 13.682V11.789H2.17747V13.682V15.575H2.76903V13.682ZM2.17747 13.682H4.07047V10.8868H2.17747H0.284465V13.682H2.17747ZM2.17747 10.8868L2.5754 12.7375C5.80555 12.043 8.42871 10.5708 10.2545 8.21653L8.75862 7.05646L7.26273 5.89638C6.09126 7.40695 4.32699 8.48838 1.77954 9.03613L2.17747 10.8868ZM8.75862 7.05646V8.94946H12.2784V7.05646V5.16345H8.75862V7.05646ZM29.0315 17.4236L28.1217 15.7636L24.6217 17.6819L28.3217 19.1785L29.0315 17.4236ZM31.0576 19.0208L29.4825 20.0709L29.4894 20.0811L31.0576 19.0208ZM29.0167 30.5859L29.9115 32.2541L29.9232 32.2478L29.0167 30.5859ZM18.2059 28.3823L16.4985 29.1997L16.502 29.2071L16.5056 29.2144L18.2059 28.3823ZM17.8657 19.9821L16.0143 19.5878L16.0125 19.596L16.0108 19.6043L17.8657 19.9821ZM19.9658 17.4236L20.8732 19.0849L24.1138 17.3149L20.785 15.717L19.9658 17.4236ZM18.2946 15.7377L16.5803 16.5406L16.5865 16.5537L16.5928 16.5667L18.2946 15.7377ZM19.463 8.15085L20.7266 9.56034L20.7333 9.55429L19.463 8.15085ZM31.0576 15.7229L29.4245 14.7655L29.4183 14.7761L29.4123 14.7867L31.0576 15.7229ZM25.4525 10.6798L23.772 11.5512L23.7916 11.5889L23.8129 11.6258L25.4525 10.6798ZM23.8405 10.7094L25.5337 11.5559L25.5396 11.5442L25.5453 11.5323L23.8405 10.7094ZM23.8701 15.5898L22.2265 16.529L23.8701 15.5898ZM25.4673 15.6046L27.1479 16.4759L27.1543 16.4636L27.1605 16.4511L25.4673 15.6046ZM25.5117 20.411L23.8977 21.4002L23.905 21.4121L23.9125 21.4239L25.5117 20.411ZM23.7666 20.3962L22.1434 19.4223L22.1384 19.4306L22.1335 19.4389L23.7666 20.3962ZM23.7962 27.3323L22.1969 28.3452L22.2088 28.3639L22.2211 28.3824L23.7962 27.3323ZM25.5709 27.3323L27.264 28.1789L27.2695 28.1679L27.2749 28.1568L25.5709 27.3323ZM29.0315 17.4236L28.3217 19.1785C28.8867 19.407 29.2432 19.7118 29.4825 20.0709L31.0576 19.0208L32.6327 17.9708C31.9256 16.9101 30.9313 16.1501 29.7413 15.6687L29.0315 17.4236ZM31.0576 19.0208L29.4894 20.0811C29.4717 20.055 29.605 20.2842 29.7156 21.0675C29.8167 21.7834 29.8745 22.768 29.8745 24.0491H31.7675H33.6605C33.6605 22.6781 33.6 21.4986 33.4644 20.5383C33.3384 19.6456 33.1168 18.6867 32.6259 17.9606L31.0576 19.0208ZM31.7675 24.0491H29.8745C29.8745 25.9247 29.6834 27.0437 29.4531 27.6072L31.2055 28.3232L32.9579 29.0392C33.477 27.7688 33.6605 26.0385 33.6605 24.0491H31.7675ZM31.2055 28.3232L29.4531 27.6072C29.2807 28.0292 28.9094 28.4881 28.1102 28.924L29.0167 30.5859L29.9232 32.2478C31.2931 31.5005 32.381 30.451 32.9579 29.0392L31.2055 28.3232ZM29.0167 30.5859L28.122 28.9177C27.4135 29.2977 26.3049 29.5655 24.6539 29.5655V31.4585V33.3515C26.651 33.3515 28.4509 33.0375 29.9115 32.2541L29.0167 30.5859ZM24.6539 31.4585V29.5655C23.0477 29.5655 21.9947 29.3061 21.3422 28.9518L20.439 30.6155L19.5359 32.2792C20.9538 33.0489 22.7107 33.3515 24.6539 33.3515V31.4585ZM20.439 30.6155L21.3422 28.9518C20.6018 28.5499 20.1631 28.0752 19.9062 27.5503L18.2059 28.3823L16.5056 29.2144C17.1558 30.5431 18.2058 31.5571 19.5359 32.2792L20.439 30.6155ZM18.2059 28.3823L19.9133 27.5649C19.6657 27.0477 19.4334 25.8745 19.4334 23.7533H17.5404H15.6474C15.6474 25.9506 15.8587 27.8634 16.4985 29.1997L18.2059 28.3823ZM17.5404 23.7533H19.4334C19.4334 22.3917 19.5359 21.2672 19.7207 20.36L17.8657 19.9821L16.0108 19.6043C15.7618 20.8267 15.6474 22.2163 15.6474 23.7533H17.5404ZM17.8657 19.9821L19.7172 20.3764C19.8033 19.9724 20.064 19.5269 20.8732 19.0849L19.9658 17.4236L19.0583 15.7623C17.521 16.602 16.3817 17.8623 16.0143 19.5878L17.8657 19.9821ZM19.9658 17.4236L20.785 15.717C20.4476 15.5551 20.1928 15.3117 19.9964 14.9086L18.2946 15.7377L16.5928 16.5667C17.1457 17.7016 18.005 18.5822 19.1466 19.1302L19.9658 17.4236ZM18.2946 15.7377L20.0089 14.9348C19.7982 14.4848 19.6404 13.7961 19.6404 12.7798H17.7474H15.8544C15.8544 14.1495 16.0615 15.4328 16.5803 16.5406L18.2946 15.7377ZM17.7474 12.7798H19.6404C19.6404 11.0644 20.1074 10.1155 20.7266 9.56032L19.463 8.15085L18.1993 6.74138C16.5311 8.237 15.8544 10.374 15.8544 12.7798H17.7474ZM19.463 8.15085L20.7333 9.55429C21.3949 8.95545 22.5676 8.491 24.5948 8.491V6.59799V4.70499C22.0669 4.70499 19.8184 5.27578 18.1926 6.74741L19.463 8.15085ZM24.5948 6.59799V8.491C27.0782 8.491 28.2058 9.02827 28.6581 9.52044L30.052 8.23958L31.4458 6.95873C29.8868 5.26211 27.3763 4.70499 24.5948 4.70499V6.59799ZM30.052 8.23958L28.6581 9.52044C29.2409 10.1546 29.6674 11.1953 29.6674 12.9277H31.5604H33.4534C33.4534 10.5981 32.8744 8.51331 31.4458 6.95873L30.052 8.23958ZM31.5604 12.9277H29.6674C29.6674 14.1469 29.4929 14.6488 29.4245 14.7655L31.0576 15.7229L32.6907 16.6802C33.2927 15.6532 33.4534 14.2918 33.4534 12.9277H31.5604ZM31.0576 15.7229L29.4123 14.7867C29.3485 14.8988 29.0468 15.2565 28.1217 15.7636L29.0315 17.4236L29.9413 19.0836C31.067 18.4667 32.116 17.6906 32.7029 16.659L31.0576 15.7229ZM25.6744 12.277H27.5674C27.5674 11.8244 27.5472 11.3948 27.4939 11.0109C27.4463 10.6678 27.3501 10.1807 27.0922 9.73381L25.4525 10.6798L23.8129 11.6258C23.7783 11.5659 23.7572 11.5178 23.7456 11.4885C23.7337 11.4587 23.7284 11.4401 23.7273 11.4363C23.7259 11.4313 23.7338 11.4592 23.7439 11.5318C23.7646 11.6803 23.7814 11.9211 23.7814 12.277H25.6744ZM25.4525 10.6798L27.1331 9.8084C26.5566 8.69661 25.4657 8.38748 24.6391 8.38748V10.2805V12.1735C24.638 12.1735 24.6062 12.1735 24.5513 12.1627C24.4956 12.1517 24.4111 12.1285 24.3115 12.0796C24.0865 11.9692 23.8908 11.7802 23.772 11.5512L25.4525 10.6798ZM24.6391 10.2805V8.38748C24.2217 8.38748 23.7278 8.46234 23.2481 8.71997C22.7443 8.99053 22.3692 9.40293 22.1358 9.88638L23.8405 10.7094L25.5453 11.5323C25.4499 11.7299 25.2769 11.9278 25.0393 12.0554C24.8258 12.1701 24.6622 12.1735 24.6391 12.1735V10.2805ZM23.8405 10.7094L22.1474 9.86279C21.9408 10.276 21.854 10.7164 21.8085 11.0605C21.7595 11.4318 21.7405 11.8435 21.7405 12.277H23.6335H25.5265C25.5265 11.9414 25.542 11.7074 25.562 11.5562C25.5717 11.4823 25.5803 11.4456 25.5824 11.4377C25.5853 11.4263 25.5745 11.4744 25.5337 11.5559L23.8405 10.7094ZM23.6335 12.277H21.7405V14.0961H23.6335H25.5265V12.277H23.6335ZM23.6335 14.0961H21.7405C21.7405 14.8265 21.7984 15.7797 22.2265 16.529L23.8701 15.5898L25.5137 14.6506C25.5598 14.7313 25.5759 14.7845 25.5769 14.7877C25.5784 14.7927 25.5715 14.7707 25.5623 14.7131C25.5434 14.5937 25.5265 14.3949 25.5265 14.0961H23.6335ZM23.8701 15.5898L22.2265 16.529C22.7872 17.5102 23.7589 17.8969 24.6687 17.8969V16.0039V14.1109C24.7106 14.1109 24.8644 14.1187 25.0595 14.2198C25.2696 14.3288 25.4233 14.4924 25.5137 14.6506L23.8701 15.5898ZM24.6687 16.0039V17.8969C25.5099 17.8969 26.5799 17.5714 27.1479 16.4759L25.4673 15.6046L23.7868 14.7332C23.9005 14.514 24.09 14.3247 24.3176 14.2109C24.5185 14.1104 24.6636 14.1109 24.6687 14.1109V16.0039ZM25.4673 15.6046L27.1605 16.4511C27.3756 16.0209 27.4588 15.5543 27.5015 15.2068C27.5488 14.8217 27.5674 14.3858 27.5674 13.9186H25.6744H23.7814C23.7814 14.2993 23.7655 14.5684 23.7437 14.7453C23.733 14.8323 23.7233 14.8772 23.7202 14.8899C23.7157 14.9081 23.7269 14.8525 23.7742 14.758L25.4673 15.6046ZM25.6744 13.9186H27.5674V12.277H25.6744H23.7814V13.9186H25.6744ZM25.7927 22.2301H27.6857C27.6857 21.7172 27.6602 21.2317 27.5933 20.7986C27.5321 20.4029 27.4118 19.8732 27.1109 19.3982L25.5117 20.411L23.9125 21.4239C23.8774 21.3685 23.8559 21.3241 23.8442 21.2973C23.8323 21.2703 23.8275 21.2547 23.8273 21.254C23.827 21.2531 23.8299 21.2624 23.8347 21.2841C23.8394 21.3055 23.8454 21.3359 23.8516 21.3766C23.8784 21.5499 23.8997 21.826 23.8997 22.2301H25.7927ZM25.5117 20.411L27.1257 19.4218C26.545 18.4743 25.5871 18.0595 24.6244 18.0595V19.9525V21.8456C24.5881 21.8456 24.4528 21.838 24.2804 21.749C24.0979 21.6546 23.9702 21.5185 23.8977 21.4002L25.5117 20.411ZM24.6244 19.9525V18.0595C23.6784 18.0595 22.7175 18.4654 22.1434 19.4223L23.7666 20.3962L25.3898 21.3702C25.3113 21.501 25.1753 21.6458 24.9838 21.7449C24.8041 21.8378 24.6627 21.8456 24.6244 21.8456V19.9525ZM23.7666 20.3962L22.1335 19.4389C21.8572 19.9102 21.7542 20.4352 21.7026 20.812C21.6447 21.2344 21.6222 21.7149 21.6222 22.2301H23.5152H25.4082C25.4082 21.8086 25.4276 21.5151 25.4535 21.3262C25.4662 21.2334 25.4774 21.1897 25.4794 21.1824C25.4832 21.1688 25.4656 21.2411 25.3997 21.3535L23.7666 20.3962ZM23.5152 22.2301H21.6222V25.3358H23.5152H25.4082V22.2301H23.5152ZM23.5152 25.3358H21.6222C21.6222 25.9 21.6471 26.4217 21.7109 26.8752C21.767 27.2738 21.8804 27.8454 22.1969 28.3452L23.7962 27.3323L25.3954 26.3194C25.4744 26.4441 25.4951 26.5267 25.4902 26.51C25.4876 26.5013 25.4747 26.452 25.46 26.3475C25.4301 26.1355 25.4082 25.8068 25.4082 25.3358H23.5152ZM23.7962 27.3323L22.2211 28.3824C22.8316 29.2981 23.7871 29.669 24.7131 29.669V27.776V25.883C24.73 25.883 24.8433 25.8863 24.9978 25.9611C25.1636 26.0413 25.2917 26.1629 25.3712 26.2823L23.7962 27.3323ZM24.7131 27.776V29.669C25.6142 29.669 26.7006 29.3056 27.264 28.1789L25.5709 27.3323L23.8777 26.4857C23.9777 26.2857 24.1526 26.0991 24.3758 25.9837C24.4748 25.9324 24.5604 25.9073 24.6191 25.895C24.6765 25.8831 24.7106 25.883 24.7131 25.883V27.776ZM25.5709 27.3323L27.2749 28.1568C27.4971 27.6976 27.5776 27.18 27.6192 26.7974C27.6663 26.3634 27.6857 25.8549 27.6857 25.2914H25.7927H23.8997C23.8997 25.7829 23.8821 26.142 23.8553 26.3883C23.842 26.5104 23.8288 26.5831 23.8211 26.6173C23.8113 26.6607 23.8182 26.6084 23.8669 26.5078L25.5709 27.3323ZM25.7927 25.2914H27.6857V22.2301H25.7927H23.8997V25.2914H25.7927ZM57.9678 7.05646H59.8609V5.16345H57.9678V7.05646ZM57.9678 11.8481V13.7411H59.8609V11.8481H57.9678ZM54.2706 11.8481V9.95512H52.3776V11.8481H54.2706ZM54.2706 31V32.893H56.1636V31H54.2706ZM48.0444 31H46.1514V32.893H48.0444V31ZM48.0444 11.8481H49.9374V9.95512H48.0444V11.8481ZM44.3619 11.8481H42.4689V13.7411H44.3619V11.8481ZM44.3619 7.05646V5.16345H42.4689V7.05646H44.3619ZM57.9678 7.05646H56.0748V11.8481H57.9678H59.8609V7.05646H57.9678ZM57.9678 11.8481V9.95512H54.2706V11.8481V13.7411H57.9678V11.8481ZM54.2706 11.8481H52.3776V31H54.2706H56.1636V11.8481H54.2706ZM54.2706 31V29.107H48.0444V31V32.893H54.2706V31ZM48.0444 31H49.9374V11.8481H48.0444H46.1514V31H48.0444ZM48.0444 11.8481V9.95512H44.3619V11.8481V13.7411H48.0444V11.8481ZM44.3619 11.8481H46.2549V7.05646H44.3619H42.4689V11.8481H44.3619ZM44.3619 7.05646V8.94946H57.9678V7.05646V5.16345H44.3619V7.05646ZM76.466 26.1935L74.586 25.9724L74.5851 25.9805L74.5842 25.9886L76.466 26.1935ZM75.4012 28.9295L73.8695 27.8172L73.8651 27.8232L73.8608 27.8292L75.4012 28.9295ZM65.9806 30.8817L65.2513 32.6286L65.2615 32.6328L65.2717 32.637L65.9806 30.8817ZM62.4016 11.8777L60.5216 11.6565L60.5206 11.6646L60.5197 11.6727L62.4016 11.8777ZM63.4664 9.12693L61.9347 8.0146L61.9303 8.02061L61.926 8.02664L63.4664 9.12693ZM72.8871 7.18956L72.1578 8.93644L72.168 8.9407L72.1782 8.94483L72.8871 7.18956ZM70.2251 11.0791L68.4526 11.7438L68.4653 11.7777L68.4793 11.8112L70.2251 11.0791ZM68.7166 10.9904L67.1601 9.91284L67.1556 9.91935L67.1512 9.9259L68.7166 10.9904ZM68.6278 26.9626L66.832 27.5612L66.8401 27.5855L66.8488 27.6095L68.6278 26.9626ZM76.6435 21.0765H74.7505C74.7505 23.481 74.6901 25.0879 74.586 25.9724L76.466 26.1935L78.3461 26.4147C78.4787 25.2879 78.5365 23.4834 78.5365 21.0765H76.6435ZM76.466 26.1935L74.5842 25.9886C74.5122 26.6492 74.2816 27.2497 73.8695 27.8172L75.4012 28.9295L76.933 30.0419C77.7237 28.953 78.203 27.7295 78.3479 26.3985L76.466 26.1935ZM75.4012 28.9295L73.8608 27.8292C73.4855 28.3547 72.9637 28.7833 72.2327 29.1026L72.9906 30.8373L73.7485 32.572C75.0486 32.004 76.1338 31.1607 76.9416 30.0298L75.4012 28.9295ZM72.9906 30.8373L72.2327 29.1026C71.5025 29.4217 70.5869 29.6098 69.4412 29.6098V31.5028V33.3958C70.9971 33.3958 72.4477 33.1403 73.7485 32.572L72.9906 30.8373ZM69.4412 31.5028V29.6098C68.3643 29.6098 67.4567 29.4363 66.6894 29.1264L65.9806 30.8817L65.2717 32.637C66.5552 33.1553 67.9547 33.3958 69.4412 33.3958V31.5028ZM65.9806 30.8817L66.7099 29.1348C65.9912 28.8348 65.4531 28.4101 65.0464 27.8615L63.5256 28.9887L62.0048 30.1159C62.8404 31.2433 63.9389 32.0807 65.2513 32.6286L65.9806 30.8817ZM63.5256 28.9887L65.0464 27.8615C64.6109 27.2739 64.373 26.6698 64.2959 26.0272L62.4164 26.2527L60.5369 26.4782C60.6964 27.8075 61.198 29.0274 62.0048 30.1159L63.5256 28.9887ZM62.4164 26.2527L64.2959 26.0272C64.1926 25.1663 64.1319 23.544 64.1319 21.0765H62.2389H60.3459C60.3459 23.5387 60.4036 25.3672 60.5369 26.4782L62.4164 26.2527ZM62.2389 21.0765H64.1319V16.9799H62.2389H60.3459V21.0765H62.2389ZM62.2389 16.9799H64.1319C64.1319 14.5745 64.1873 12.9658 64.2835 12.0827L62.4016 11.8777L60.5197 11.6727C60.399 12.7812 60.3459 14.574 60.3459 16.9799H62.2389ZM62.4016 11.8777L64.2817 12.0989C64.3625 11.4119 64.5998 10.7971 65.0068 10.2272L63.4664 9.12693L61.926 8.02664C61.15 9.11316 60.6774 10.3322 60.5216 11.6565L62.4016 11.8777ZM63.4664 9.12693L64.9982 10.2393C65.3853 9.70608 65.9165 9.27413 66.6497 8.95381L65.8918 7.21914L65.134 5.48446C63.8361 6.05149 62.7504 6.8914 61.9347 8.0146L63.4664 9.12693ZM65.8918 7.21914L66.6497 8.95381C67.3799 8.63478 68.2956 8.44663 69.4412 8.44663V6.55363V4.66062C67.8854 4.66062 66.4348 4.91614 65.134 5.48446L65.8918 7.21914ZM69.4412 6.55363V8.44663C70.5133 8.44663 71.4082 8.62349 72.1578 8.93644L72.8871 7.18956L73.6164 5.44267C72.335 4.90772 70.9326 4.66062 69.4412 4.66062V6.55363ZM72.8871 7.18956L72.1782 8.94483C72.9005 9.23654 73.4352 9.65413 73.836 10.195L75.3569 9.06777L76.8777 7.94058C76.0363 6.80532 74.9244 5.97077 73.5959 5.43429L72.8871 7.18956ZM75.3569 9.06777L73.836 10.195C74.2716 10.7826 74.5094 11.3867 74.5865 12.0293L76.466 11.8038L78.3456 11.5782C78.1861 10.2489 77.6844 9.02904 76.8777 7.94058L75.3569 9.06777ZM76.466 11.8038L74.5865 12.0293C74.6898 12.8901 74.7505 14.5125 74.7505 16.9799H76.6435H78.5365C78.5365 14.5177 78.4789 12.6893 78.3456 11.5782L76.466 11.8038ZM76.6435 16.9799H74.7505V21.0765H76.6435H78.5365V16.9799H76.6435ZM70.4173 13.2087H72.3103C72.3103 12.6226 72.2937 12.1042 72.2546 11.6705C72.2204 11.2919 72.1555 10.7875 71.9708 10.347L70.2251 11.0791L68.4793 11.8112C68.44 11.7173 68.4378 11.6759 68.4492 11.7362C68.4585 11.7853 68.4715 11.8734 68.4839 12.0109C68.5088 12.2871 68.5243 12.6807 68.5243 13.2087H70.4173ZM70.2251 11.0791L71.9975 10.4144C71.8133 9.92327 71.4778 9.44938 70.9539 9.12066C70.4496 8.80427 69.9155 8.71284 69.4708 8.71284V10.6058V12.4988C69.4106 12.4988 69.1945 12.4863 68.9416 12.3276C68.6692 12.1567 68.5184 11.9194 68.4526 11.7438L70.2251 11.0791ZM69.4708 10.6058V8.71284C68.5564 8.71284 67.7091 9.11989 67.1601 9.91284L68.7166 10.9904L70.273 12.0679C70.2025 12.1697 70.0797 12.2958 69.898 12.3885C69.7194 12.4795 69.5611 12.4988 69.4708 12.4988V10.6058ZM68.7166 10.9904L67.1512 9.9259C66.9283 10.2537 66.8252 10.5922 66.7723 10.7999C66.7122 11.0354 66.6737 11.2814 66.647 11.5166C66.5936 11.9879 66.5721 12.5609 66.5721 13.2087H68.4651H70.3582C70.3582 12.6241 70.3786 12.2112 70.409 11.943C70.4242 11.8085 70.4381 11.7464 70.4409 11.7354C70.4508 11.6966 70.421 11.8503 70.2819 12.0548L68.7166 10.9904ZM68.4651 13.2087H66.5721V24.3893H68.4651H70.3582V13.2087H68.4651ZM68.4651 24.3893H66.5721C66.5721 25.1032 66.5859 25.7095 66.6166 26.1947C66.6431 26.6146 66.6908 27.1377 66.832 27.5612L68.6278 26.9626L70.4237 26.364C70.4509 26.4457 70.4463 26.4645 70.432 26.3609C70.4201 26.274 70.4068 26.1421 70.3951 25.9558C70.3715 25.5832 70.3582 25.0655 70.3582 24.3893H68.4651ZM68.6278 26.9626L66.8488 27.6095C67.0375 28.1284 67.3895 28.6141 67.9291 28.9439C68.4417 29.2571 68.982 29.3436 69.4264 29.3436V27.4506V25.5576C69.4567 25.5576 69.657 25.5628 69.9033 25.7133C70.1768 25.8804 70.3365 26.1221 70.4069 26.3157L68.6278 26.9626ZM69.4264 27.4506V29.3436C69.9132 29.3436 70.4923 29.2347 71.0238 28.8676C71.5684 28.4913 71.8844 27.9672 72.045 27.4587L70.2398 26.8886L68.4347 26.3186C68.477 26.1847 68.5983 25.9416 68.8717 25.7527C69.132 25.5728 69.3637 25.5576 69.4264 25.5576V27.4506ZM70.2398 26.8886L72.045 27.4587C72.1786 27.0355 72.2316 26.5189 72.2618 26.0637C72.2952 25.5593 72.3103 24.9377 72.3103 24.2118H70.4173H68.5243C68.5243 24.8958 68.5098 25.4253 68.4841 25.8132C68.4551 26.2502 68.4194 26.3671 68.4347 26.3186L70.2398 26.8886ZM70.4173 24.2118H72.3103V13.2087H70.4173H68.5243V24.2118H70.4173ZM96.0586 26.1935L94.1786 25.9724L94.1777 25.9805L94.1768 25.9886L96.0586 26.1935ZM94.9938 28.9295L93.4621 27.8172L93.4577 27.8232L93.4534 27.8292L94.9938 28.9295ZM85.5732 30.8817L84.8439 32.6286L84.8541 32.6328L84.8643 32.637L85.5732 30.8817ZM81.9942 11.8777L80.1142 11.6565L80.1132 11.6646L80.1123 11.6727L81.9942 11.8777ZM83.059 9.12693L81.5273 8.0146L81.5229 8.02061L81.5186 8.02664L83.059 9.12693ZM92.4797 7.18956L91.7504 8.93644L91.7606 8.9407L91.7708 8.94483L92.4797 7.18956ZM89.8176 11.0791L88.0452 11.7438L88.0579 11.7777L88.0719 11.8112L89.8176 11.0791ZM88.3092 10.9904L86.7527 9.91284L86.7482 9.91935L86.7438 9.9259L88.3092 10.9904ZM88.2204 26.9626L86.4246 27.5612L86.4326 27.5855L86.4414 27.6095L88.2204 26.9626ZM96.2361 21.0765H94.3431C94.3431 23.481 94.2827 25.0879 94.1786 25.9724L96.0586 26.1935L97.9387 26.4147C98.0712 25.2879 98.1291 23.4834 98.1291 21.0765H96.2361ZM96.0586 26.1935L94.1768 25.9886C94.1048 26.6492 93.8742 27.2497 93.4621 27.8172L94.9938 28.9295L96.5256 30.0419C97.3163 28.953 97.7956 27.7295 97.9405 26.3985L96.0586 26.1935ZM94.9938 28.9295L93.4534 27.8292C93.0781 28.3547 92.5563 28.7833 91.8253 29.1026L92.5832 30.8373L93.3411 32.572C94.6412 32.004 95.7264 31.1607 96.5342 30.0298L94.9938 28.9295ZM92.5832 30.8373L91.8253 29.1026C91.0951 29.4217 90.1795 29.6098 89.0338 29.6098V31.5028V33.3958C90.5897 33.3958 92.0403 33.1403 93.3411 32.572L92.5832 30.8373ZM89.0338 31.5028V29.6098C87.9569 29.6098 87.0493 29.4363 86.282 29.1264L85.5732 30.8817L84.8643 32.637C86.1478 33.1553 87.5473 33.3958 89.0338 33.3958V31.5028ZM85.5732 30.8817L86.3025 29.1348C85.5838 28.8348 85.0456 28.4101 84.639 27.8615L83.1182 28.9887L81.5974 30.1159C82.433 31.2433 83.5315 32.0807 84.8439 32.6286L85.5732 30.8817ZM83.1182 28.9887L84.639 27.8615C84.2035 27.2739 83.9656 26.6698 83.8885 26.0272L82.009 26.2527L80.1295 26.4782C80.289 27.8075 80.7906 29.0274 81.5974 30.1159L83.1182 28.9887ZM82.009 26.2527L83.8885 26.0272C83.7852 25.1663 83.7245 23.544 83.7245 21.0765H81.8315H79.9385C79.9385 23.5387 79.9962 25.3672 80.1295 26.4782L82.009 26.2527ZM81.8315 21.0765H83.7245V16.9799H81.8315H79.9385V21.0765H81.8315ZM81.8315 16.9799H83.7245C83.7245 14.5745 83.7799 12.9658 83.8761 12.0827L81.9942 11.8777L80.1123 11.6727C79.9916 12.7812 79.9385 14.574 79.9385 16.9799H81.8315ZM81.9942 11.8777L83.8743 12.0989C83.9551 11.4119 84.1924 10.7971 84.5994 10.2272L83.059 9.12693L81.5186 8.02664C80.7425 9.11316 80.27 10.3322 80.1142 11.6565L81.9942 11.8777ZM83.059 9.12693L84.5908 10.2393C84.9779 9.70608 85.5091 9.27413 86.2423 8.95381L85.4844 7.21914L84.7266 5.48446C83.4287 6.05149 82.343 6.8914 81.5273 8.0146L83.059 9.12693ZM85.4844 7.21914L86.2423 8.95381C86.9725 8.63478 87.8882 8.44663 89.0338 8.44663V6.55363V4.66062C87.478 4.66062 86.0274 4.91614 84.7266 5.48446L85.4844 7.21914ZM89.0338 6.55363V8.44663C90.1059 8.44663 91.0007 8.62349 91.7504 8.93644L92.4797 7.18956L93.209 5.44267C91.9276 4.90772 90.5252 4.66062 89.0338 4.66062V6.55363ZM92.4797 7.18956L91.7708 8.94483C92.4931 9.23654 93.0278 9.65413 93.4286 10.195L94.9495 9.06777L96.4703 7.94058C95.6289 6.80532 94.517 5.97077 93.1885 5.43429L92.4797 7.18956ZM94.9495 9.06777L93.4286 10.195C93.8642 10.7826 94.102 11.3867 94.1791 12.0293L96.0586 11.8038L97.9382 11.5782C97.7786 10.2489 97.277 9.02904 96.4703 7.94058L94.9495 9.06777ZM96.0586 11.8038L94.1791 12.0293C94.2824 12.8901 94.3431 14.5125 94.3431 16.9799H96.2361H98.1291C98.1291 14.5177 98.0715 12.6893 97.9382 11.5782L96.0586 11.8038ZM96.2361 16.9799H94.3431V21.0765H96.2361H98.1291V16.9799H96.2361ZM90.0099 13.2087H91.9029C91.9029 12.6226 91.8863 12.1042 91.8472 11.6705C91.813 11.2919 91.7481 10.7875 91.5634 10.347L89.8176 11.0791L88.0719 11.8112C88.0326 11.7173 88.0304 11.6759 88.0418 11.7362C88.0511 11.7853 88.0641 11.8734 88.0765 12.0109C88.1014 12.2871 88.1169 12.6807 88.1169 13.2087H90.0099ZM89.8176 11.0791L91.5901 10.4144C91.4059 9.92327 91.0704 9.44938 90.5465 9.12066C90.0422 8.80427 89.5081 8.71284 89.0634 8.71284V10.6058V12.4988C89.0032 12.4988 88.7871 12.4863 88.5342 12.3276C88.2617 12.1567 88.111 11.9194 88.0452 11.7438L89.8176 11.0791ZM89.0634 10.6058V8.71284C88.149 8.71284 87.3017 9.11989 86.7527 9.91284L88.3092 10.9904L89.8656 12.0679C89.7951 12.1697 89.6723 12.2958 89.4906 12.3885C89.312 12.4795 89.1537 12.4988 89.0634 12.4988V10.6058ZM88.3092 10.9904L86.7438 9.9259C86.5209 10.2537 86.4178 10.5922 86.3649 10.7999C86.3048 11.0354 86.2663 11.2814 86.2396 11.5166C86.1862 11.9879 86.1647 12.5609 86.1647 13.2087H88.0577H89.9507C89.9507 12.6241 89.9712 12.2112 90.0016 11.943C90.0168 11.8085 90.0307 11.7464 90.0335 11.7354C90.0434 11.6966 90.0136 11.8503 89.8745 12.0548L88.3092 10.9904ZM88.0577 13.2087H86.1647V24.3893H88.0577H89.9507V13.2087H88.0577ZM88.0577 24.3893H86.1647C86.1647 25.1032 86.1785 25.7095 86.2092 26.1947C86.2357 26.6146 86.2834 27.1377 86.4246 27.5612L88.2204 26.9626L90.0163 26.364C90.0435 26.4457 90.0388 26.4645 90.0246 26.3609C90.0127 26.274 89.9994 26.1421 89.9876 25.9558C89.9641 25.5832 89.9507 25.0655 89.9507 24.3893H88.0577ZM88.2204 26.9626L86.4414 27.6095C86.6301 28.1284 86.9821 28.6141 87.5217 28.9439C88.0343 29.2571 88.5746 29.3436 89.019 29.3436V27.4506V25.5576C89.0493 25.5576 89.2495 25.5628 89.4959 25.7133C89.7693 25.8804 89.9291 26.1221 89.9995 26.3157L88.2204 26.9626ZM89.019 27.4506V29.3436C89.5058 29.3436 90.0849 29.2347 90.6164 28.8676C91.1609 28.4913 91.477 27.9672 91.6376 27.4587L89.8324 26.8886L88.0273 26.3186C88.0696 26.1847 88.1909 25.9416 88.4643 25.7527C88.7246 25.5728 88.9563 25.5576 89.019 25.5576V27.4506ZM89.8324 26.8886L91.6376 27.4587C91.7712 27.0355 91.8242 26.5189 91.8544 26.0637C91.8878 25.5593 91.9029 24.9377 91.9029 24.2118H90.0099H88.1169C88.1169 24.8958 88.1024 25.4253 88.0767 25.8132C88.0477 26.2502 88.012 26.3671 88.0273 26.3186L89.8324 26.8886ZM90.0099 24.2118H91.9029V13.2087H90.0099H88.1169V24.2118H90.0099ZM115.503 7.05646H117.396V5.16345H115.503V7.05646ZM115.503 31V32.893H117.396V31H115.503ZM110.046 31L108.232 31.5399L108.634 32.893H110.046V31ZM106.807 20.1152L108.622 19.5753L104.914 20.1152H106.807ZM106.807 31V32.893H108.7V31H106.807ZM101.602 31H99.7086V32.893H101.602V31ZM101.602 7.05646V5.16345H99.7086V7.05646H101.602ZM106.807 7.05646L108.608 6.47342L108.184 5.16345H106.807V7.05646ZM110.298 17.8377L108.497 18.4207L112.191 17.8377H110.298ZM110.298 7.05646V5.16345H108.405V7.05646H110.298ZM115.503 7.05646H113.61V31H115.503H117.396V7.05646H115.503ZM115.503 31V29.107H110.046V31V32.893H115.503V31ZM110.046 31L111.861 30.4601L108.622 19.5753L106.807 20.1152L104.993 20.6551L108.232 31.5399L110.046 31ZM106.807 20.1152H104.914V31H106.807H108.7V20.1152H106.807ZM106.807 31V29.107H101.602V31V32.893H106.807V31ZM101.602 31H103.495V7.05646H101.602H99.7086V31H101.602ZM101.602 7.05646V8.94946H106.807V7.05646V5.16345H101.602V7.05646ZM106.807 7.05646L105.006 7.63949L108.497 18.4207L110.298 17.8377L112.099 17.2547L108.608 6.47342L106.807 7.05646ZM110.298 17.8377H112.191V7.05646H110.298H108.405V17.8377H110.298ZM110.298 7.05646V8.94946H115.503V7.05646V5.16345H110.298V7.05646Z" fill="#FF3E9A" mask="url(#path-1-outside-1_1498_26335)"/>
</svg>
