<svg width="12" height="12" viewBox="0 0 12 12" fill="none" xmlns="http://www.w3.org/2000/svg">
<path fill-rule="evenodd" clip-rule="evenodd" d="M6.00039 11.5999C9.09319 11.5999 11.6004 9.0927 11.6004 5.9999C11.6004 2.90711 9.09319 0.399902 6.00039 0.399902C2.9076 0.399902 0.400391 2.90711 0.400391 5.9999C0.400391 9.0927 2.9076 11.5999 6.00039 11.5999ZM8.59537 5.09488C8.86873 4.82151 8.86873 4.37829 8.59537 4.10493C8.322 3.83156 7.87878 3.83156 7.60542 4.10493L5.30039 6.40995L4.39537 5.50493C4.122 5.23156 3.67878 5.23156 3.40542 5.50493C3.13205 5.7783 3.13205 6.22151 3.40542 6.49488L4.80542 7.89488C5.07878 8.16824 5.522 8.16824 5.79537 7.89488L8.59537 5.09488Z" fill="#34C759"/>
</svg>
