<svg width="144" height="144" viewBox="0 0 144 144" fill="none" xmlns="http://www.w3.org/2000/svg">
<path d="M99 36V40.5M99 58.5V63M99 81V85.5M99 103.5V108M45 76.5H76.5M45 90H63M20.25 31.5C16.5221 31.5 13.5 34.5221 13.5 38.25V56.4081C18.8802 59.5204 22.5 65.3375 22.5 72C22.5 78.6625 18.8802 84.4796 13.5 87.5919V105.75C13.5 109.478 16.5221 112.5 20.25 112.5H123.75C127.478 112.5 130.5 109.478 130.5 105.75V87.5919C125.12 84.4796 121.5 78.6625 121.5 72C121.5 65.3375 125.12 59.5204 130.5 56.4081V38.25C130.5 34.5221 127.478 31.5 123.75 31.5H20.25Z" stroke="#FBA1BF" stroke-width="10.8" stroke-linecap="round" stroke-linejoin="round"/>
</svg>
