<svg width="71" height="35" viewBox="0 0 71 35" fill="none" xmlns="http://www.w3.org/2000/svg">
<g clip-path="url(#clip0_563_43520)">
<rect x="4.01953" width="68" height="23.3503" rx="1.45009" transform="rotate(9.91469 4.01953 0)" fill="white"/>
<g clip-path="url(#clip1_563_43520)">
<path d="M18.4249 6.73456L19.6031 7.5735C18.6143 9.01993 17.1529 10.2219 15.1855 11.2028L14.9924 9.697C16.4335 8.94788 17.5785 7.95564 18.4249 6.73456ZM18.3624 10.1241L19.5288 10.9463C19.0897 11.6056 18.5674 12.2356 17.9669 12.8078L16.696 20.0785L15.2533 19.8263L16.2371 14.1983C15.7218 14.5351 15.1806 14.8527 14.6275 15.1535L14.4318 13.6619C16.0625 12.7546 17.3735 11.5706 18.3624 10.1241ZM23.7523 7.75407L25.195 8.00624L24.9503 9.4061L27.9928 9.93792L27.7557 11.2949L24.7131 10.7631L24.4759 12.1201L28.1041 12.7543L27.8644 14.1256L19.2653 12.6225L19.505 11.2512L23.0332 11.8679L23.2704 10.5109L20.2564 9.98411L20.4936 8.62711L23.5076 9.15393L23.7523 7.75407ZM19.0784 13.9442L24.4493 14.883L24.6066 13.9831L26.0922 14.2427L25.9349 15.1426L27.4347 15.4048L27.1926 16.7904L25.6927 16.5282L25.1234 19.785C24.9312 20.8849 24.291 21.3471 23.234 21.1624L21.2056 20.8078L21.11 19.3338C21.757 19.5058 22.3663 19.6417 22.9376 19.7416C23.3662 19.8165 23.6229 19.6111 23.7028 19.154L24.2071 16.2685L18.8362 15.3298L19.0784 13.9442ZM20.7147 15.9525C21.3512 16.8587 21.8313 17.6492 22.1407 18.3215L20.8413 18.9335C20.5109 18.2133 20.0358 17.3942 19.4303 16.4788L20.7147 15.9525ZM30.7646 9.74524L42.0777 11.7227L41.8256 13.1654L39.5829 12.7734L39.0087 16.0588L41.9655 16.5756L41.7134 18.0184L38.7565 17.5015L37.6854 23.6295L36.1855 23.3673L37.2566 17.2394L33.557 16.5927C33.1695 17.9676 32.6766 19.1032 32.095 19.9879C31.3282 21.0904 30.2517 21.8591 28.8681 22.2797L28.2761 20.866C29.5505 20.3969 30.4691 19.689 31.0439 18.759C31.4258 18.0897 31.7588 17.2794 32.0429 16.328L28.9575 15.7887L29.2096 14.346L32.395 14.9028C32.41 14.8171 32.4368 14.7482 32.4518 14.6625L32.9836 11.6199L30.5124 11.188L30.7646 9.74524ZM34.4977 11.8846L33.9659 14.9271C33.9509 15.0128 33.9242 15.0817 33.9092 15.1675L37.5088 15.7966L38.0831 12.5113L34.4977 11.8846ZM44.2455 16.1645L46.1298 12.1218L47.5729 12.6243L46.4068 15.0849L48.378 15.4295C48.8174 14.4317 49.2239 13.3692 49.5808 12.254L51.0767 12.7068C50.7131 13.7767 50.3333 14.7703 49.9207 15.6991L56.4201 16.8352L56.1729 18.2493L49.3021 17.0484C49.0844 17.4519 48.8859 17.8294 48.6875 18.2069L54.344 19.1956L54.1243 20.4527C53.5867 21.5069 52.7213 22.4155 51.5424 23.181C52.5113 23.9539 53.6902 24.7047 55.0766 25.4475L54.0581 26.7268C52.4681 25.8012 51.157 24.8802 50.1273 23.9494C48.8783 24.526 47.399 24.9888 45.6893 25.3376L45.1483 23.8005C46.6213 23.5427 47.9018 23.2071 48.9755 22.7912C48.229 21.9247 47.7017 21.0671 47.382 20.2016C46.0082 22.0812 44.4473 23.516 42.7017 24.4916L42.1582 22.9687C44.3862 21.5916 46.2334 19.5297 47.7166 16.7712L44.2455 16.1645ZM48.6099 19.5771C48.9439 20.4451 49.5308 21.2985 50.368 22.1514C51.3306 21.6131 52.0747 20.9776 52.5952 20.2737L48.6099 19.5771ZM53.5115 12.9263C54.3555 13.8246 55.0566 14.6979 55.5839 15.5555L54.3396 16.4421C53.9098 15.6162 53.2447 14.705 52.3275 13.7204L53.5115 12.9263Z" fill="#C61312"/>
</g>
<rect x="5.88937" y="2.66163" width="63.4" height="18.7503" rx="0.86007" transform="rotate(9.91469 5.88937 2.66163)" stroke="#BD1917" stroke-width="0.6"/>
</g>
<rect x="4.42597" y="0.578623" width="67" height="22.3503" rx="0.950087" transform="rotate(9.91469 4.42597 0.578623)" stroke="#BD1917"/>
<defs>
<clipPath id="clip0_563_43520">
<rect x="4.01953" width="68" height="23.3503" rx="1.45009" transform="rotate(9.91469 4.01953 0)" fill="white"/>
</clipPath>
<clipPath id="clip1_563_43520">
<rect x="5.64551" y="2.31445" width="64" height="19.3503" rx="1.16007" transform="rotate(9.91469 5.64551 2.31445)" fill="white"/>
</clipPath>
</defs>
</svg>
