<svg width="112" height="66" viewBox="0 0 112 66" fill="none" xmlns="http://www.w3.org/2000/svg">
<g clip-path="url(#clip0_33_31)">
<path d="M77.1561 54.6265L78.7045 54.3282C78.7461 55.7288 78.9317 56.6876 79.2613 57.2047C79.3987 57.4452 79.5986 57.6444 79.8399 57.7813C80.0812 57.9182 80.3551 57.9878 80.6327 57.9828C81.0439 57.9906 81.4425 57.8412 81.7465 57.5652C82.0735 57.2601 82.2996 56.8629 82.3944 56.4265C82.5361 55.67 82.5954 54.9004 82.5714 54.1311V41.5074H84.2862V53.9988C84.2862 55.5343 84.1553 56.7231 83.8933 57.5652C83.6872 58.3203 83.2507 58.9928 82.6442 59.4897C82.0722 59.933 81.365 60.1674 80.6405 60.1537C80.1221 60.1723 79.6081 60.0534 79.1509 59.8092C78.6937 59.5649 78.3098 59.2041 78.0383 58.7635C77.4259 57.8332 77.1319 56.4542 77.1561 54.6265Z" fill="white"/>
<path d="M87.4818 59.8295L92.4598 41.5074H94.3074L99.616 59.8399H97.6617L96.1472 54.2867H90.7242L89.3033 59.8295H87.4818ZM91.2238 52.3077H95.619L94.2632 47.2136C93.8503 45.6695 93.5441 44.402 93.3446 43.4112C93.1785 44.5908 92.9448 45.7599 92.6446 46.9128L91.2238 52.3077Z" fill="white"/>
<path d="M105.161 59.8295L100.136 41.5074H101.994L105.377 54.8262C105.648 55.8931 105.875 56.8934 106.059 57.8272C106.259 56.826 106.491 55.8257 106.757 54.8262L110.246 41.5074H112L106.92 59.8295H105.161Z" fill="white"/>
<path d="M92.2621 30.1521H85.0409L84.039 34.9531H77.5335L85.2699 5.85923H92.2178L99.9517 34.9531H93.2926L92.2621 30.1521ZM90.9427 23.8701L88.671 13.4122L86.4227 23.8701H90.9427Z" fill="white"/>
<path d="M105.101 5.85923H111.474V34.9531H105.101V5.85923Z" fill="white"/>
<path d="M49.255 0H16.9613C7.59385 0 0 7.56904 0 16.9059V49.0941C0 58.431 7.59385 66 16.9613 66H49.255C58.6225 66 66.2164 58.431 66.2164 49.0941V16.9059C66.2164 7.56904 58.6225 0 49.255 0Z" fill="white"/>
<path d="M13.6149 31.1325C16.9587 25.3952 20.0398 19.5956 23.6126 14.1177C27.9818 7.42065 38.1565 7.9809 42.1691 14.9088C47.5471 24.1995 52.925 33.4911 58.303 42.7835C61.3996 48.124 59.5625 54.9741 54.2175 57.9983C48.9271 60.9811 42.1717 59.0773 39.1089 53.7524C36.2933 48.8529 33.6442 43.8418 30.5996 39.0927C26.8888 33.3216 21.3149 30.8965 14.4814 31.2907C14.2941 31.2907 14.1041 31.3037 13.9141 31.2907C13.8777 31.3063 13.8387 31.2622 13.6149 31.1325Z" fill="url(#paint0_linear_33_31)"/>
<path d="M15.9907 59.4223C13.87 59.3957 11.8047 58.7441 10.0549 57.5496C8.30508 56.3552 6.94905 54.6713 6.15762 52.7101C5.36619 50.7489 5.17478 48.5981 5.60747 46.5287C6.04017 44.4592 7.07764 42.5637 8.58918 41.0809C10.1007 39.5981 12.0187 38.5943 14.1016 38.196C16.1844 37.7977 18.3389 38.0227 20.2937 38.8426C22.2485 39.6626 23.9161 41.0408 25.0865 42.8037C26.2569 44.5665 26.8777 46.6352 26.8706 48.7491C26.8498 54.7354 22.0461 59.4482 15.9907 59.4223Z" fill="url(#paint1_linear_33_31)"/>
<path d="M55.2141 9.70574C55.3468 9.5579 55.4561 9.42302 55.5784 9.29852C56.0053 8.84217 56.5734 8.5417 57.1918 8.44518C57.6927 8.34814 58.2118 8.42687 58.661 8.66799C59.1102 8.90912 59.4618 9.29779 59.6561 9.76799C59.9133 10.3366 59.9931 10.9692 59.8851 11.5836C59.7994 11.9843 59.608 12.3549 59.3309 12.6574C58.9056 13.1755 58.4382 13.6579 57.9335 14.0995C57.6418 14.348 57.3379 14.5817 57.0227 14.7998C56.4424 15.2174 55.8543 15.622 55.2714 16.0344C55.2492 16.0533 55.2211 16.0636 55.192 16.0636C55.1629 16.0636 55.1348 16.0533 55.1126 16.0344C53.803 15.1809 52.5956 14.181 51.5138 13.0542C51.2719 12.8229 51.0611 12.5614 50.8866 12.2761C50.6029 11.7634 50.4969 11.1717 50.5848 10.5928C50.611 10.3011 50.6895 10.0165 50.8164 9.75242C51.1755 9.08065 51.6647 8.55412 52.4636 8.42962C52.864 8.35484 53.2767 8.37911 53.6655 8.5003C54.0543 8.62149 54.4074 8.8359 54.6937 9.12474C54.868 9.29592 55.0242 9.48527 55.1907 9.66683C55.1959 9.67461 55.2141 9.68758 55.2141 9.70574Z" fill="url(#paint2_linear_33_31)"/>
</g>
<defs>
<linearGradient id="paint0_linear_33_31" x1="13.6149" y1="34.4058" x2="59.8149" y2="34.4058" gradientUnits="userSpaceOnUse">
<stop stop-color="#FA7154"/>
<stop offset="0.49" stop-color="#F9176D"/>
<stop offset="1" stop-color="#F308CF"/>
</linearGradient>
<linearGradient id="paint1_linear_33_31" x1="5.31636" y1="48.7128" x2="26.8706" y2="48.7128" gradientUnits="userSpaceOnUse">
<stop stop-color="#FA7154"/>
<stop offset="0.49" stop-color="#F9176D"/>
<stop offset="1" stop-color="#F308CF"/>
</linearGradient>
<linearGradient id="paint2_linear_33_31" x1="50.5535" y1="12.2294" x2="59.9294" y2="12.2294" gradientUnits="userSpaceOnUse">
<stop stop-color="#FA7154"/>
<stop offset="0.49" stop-color="#F9176D"/>
<stop offset="1" stop-color="#F308CF"/>
</linearGradient>
<clipPath id="clip0_33_31">
<rect width="112" height="66" fill="white"/>
</clipPath>
</defs>
</svg>
