<svg width="32" height="32" viewBox="0 0 32 32" fill="none" xmlns="http://www.w3.org/2000/svg">
<rect width="32" height="32" rx="6" fill="url(#paint0_linear_119_23505)"/>
<path d="M6.064 21.82C5.57333 21.82 5.17333 21.6973 4.864 21.452C4.56533 21.196 4.416 20.8173 4.416 20.316C4.416 20.124 4.432 19.884 4.464 19.596C4.50667 19.2973 4.55467 18.988 4.608 18.668C4.672 18.3373 4.73067 18.028 4.784 17.74C4.848 17.452 4.90133 17.212 4.944 17.02L5.664 13.34L8.544 13.052L7.312 19.292C7.30133 19.3773 7.28533 19.484 7.264 19.612C7.24267 19.74 7.232 19.8573 7.232 19.964C7.232 20.156 7.28533 20.332 7.392 20.492C7.49867 20.6413 7.67467 20.7213 7.92 20.732C7.80267 21.1053 7.56267 21.3773 7.2 21.548C6.83733 21.7293 6.45867 21.82 6.064 21.82ZM7.552 12.028C7.09333 12.028 6.71467 11.9267 6.416 11.724C6.11733 11.5213 5.968 11.228 5.968 10.844C5.968 10.4387 6.12267 10.1347 6.432 9.932C6.752 9.71867 7.14133 9.612 7.6 9.612C8.048 9.612 8.416 9.71867 8.704 9.932C8.992 10.1347 9.136 10.428 9.136 10.812C9.136 11.2173 8.98133 11.5213 8.672 11.724C8.37333 11.9267 8 12.028 7.552 12.028ZM15.6609 21.82C15.1702 21.82 14.7702 21.6973 14.4609 21.452C14.1515 21.196 13.9969 20.8067 13.9969 20.284C13.9969 20.0493 14.0289 19.756 14.0929 19.404C14.1675 19.052 14.2475 18.6787 14.3329 18.284C14.4289 17.8893 14.5195 17.4947 14.6049 17.1C14.7009 16.7053 14.7809 16.3373 14.8449 15.996C14.9089 15.644 14.9409 15.3507 14.9409 15.116C14.9409 14.8707 14.8929 14.668 14.7969 14.508C14.7009 14.3373 14.5302 14.252 14.2849 14.252C13.9649 14.252 13.6982 14.3853 13.4849 14.652C13.2715 14.9187 13.0955 15.244 12.9569 15.628C12.8289 16.012 12.7275 16.3853 12.6529 16.748L11.7409 21.5L8.87688 21.788L10.5409 13.34L12.8769 13.052L12.6369 14.588C12.9249 14.0333 13.3195 13.6333 13.8209 13.388C14.3329 13.1427 14.8929 13.02 15.5009 13.02C16.1942 13.02 16.7382 13.1693 17.1329 13.468C17.5275 13.7667 17.7249 14.2467 17.7249 14.908C17.7249 15.1853 17.6929 15.5 17.6289 15.852C17.5649 16.204 17.4849 16.5773 17.3889 16.972C17.3035 17.356 17.2182 17.7347 17.1329 18.108C17.0475 18.4707 16.9729 18.812 16.9089 19.132C16.8449 19.4413 16.8129 19.7027 16.8129 19.916C16.8129 20.14 16.8609 20.3267 16.9569 20.476C17.0635 20.6253 17.2449 20.7107 17.5009 20.732C17.3835 21.1053 17.1435 21.3773 16.7809 21.548C16.4289 21.7293 16.0555 21.82 15.6609 21.82ZM21.5951 21.836C20.8271 21.836 20.1925 21.7133 19.6911 21.468C19.1898 21.212 18.8165 20.8867 18.5711 20.492C18.3258 20.0973 18.2031 19.676 18.2031 19.228C18.2031 18.844 18.2885 18.492 18.4591 18.172C18.6298 17.852 18.8698 17.5907 19.1791 17.388C19.4885 17.1853 19.8511 17.084 20.2671 17.084C20.5871 17.084 20.8751 17.148 21.1311 17.276C21.3978 17.3933 21.6058 17.5587 21.7551 17.772C21.9045 17.9747 21.9791 18.2147 21.9791 18.492C21.9791 18.5453 21.9738 18.604 21.9631 18.668C21.9525 18.732 21.9418 18.796 21.9311 18.86C21.8565 18.828 21.7818 18.8067 21.7071 18.796C21.6325 18.7747 21.5578 18.764 21.4831 18.764C21.2378 18.764 21.0405 18.8547 20.8911 19.036C20.7525 19.2067 20.6831 19.42 20.6831 19.676C20.6831 19.964 20.7898 20.2147 21.0031 20.428C21.2271 20.6413 21.5525 20.748 21.9791 20.748C22.2351 20.748 22.4805 20.6947 22.7151 20.588C22.9498 20.4813 23.1418 20.316 23.2911 20.092C23.4405 19.8573 23.5151 19.5533 23.5151 19.18C23.5151 18.7853 23.4085 18.4387 23.1951 18.14C22.9925 17.8413 22.7365 17.5693 22.4271 17.324C22.1178 17.068 21.7925 16.812 21.4511 16.556C21.1525 16.3213 20.8698 16.076 20.6031 15.82C20.3365 15.5533 20.1178 15.2547 19.9471 14.924C19.7765 14.5933 19.6911 14.2147 19.6911 13.788C19.6911 13.276 19.8138 12.8227 20.0591 12.428C20.3151 12.0333 20.6511 11.7027 21.0671 11.436C21.4938 11.1693 21.9685 10.9667 22.4911 10.828C23.0245 10.6893 23.5578 10.62 24.0911 10.62C24.6778 10.62 25.2058 10.684 25.6751 10.812C26.1551 10.9293 26.5338 11.1213 26.8111 11.388C27.0991 11.6547 27.2431 12.0067 27.2431 12.444C27.2431 12.8173 27.1578 13.132 26.9871 13.388C26.8165 13.644 26.5925 13.836 26.3151 13.964C26.0378 14.092 25.7445 14.156 25.4351 14.156C25.2645 14.156 25.0991 14.14 24.9391 14.108C24.7898 14.076 24.6511 14.0227 24.5231 13.948C24.6191 13.7773 24.6991 13.596 24.7631 13.404C24.8271 13.2013 24.8591 13.004 24.8591 12.812C24.8591 12.46 24.7791 12.1773 24.6191 11.964C24.4591 11.74 24.1658 11.628 23.7391 11.628C23.4085 11.628 23.1258 11.74 22.8911 11.964C22.6565 12.1773 22.5391 12.476 22.5391 12.86C22.5391 13.18 22.6298 13.468 22.8111 13.724C23.0031 13.9693 23.2485 14.204 23.5471 14.428C23.8458 14.6413 24.1605 14.8653 24.4911 15.1C24.8111 15.324 25.1151 15.5747 25.4031 15.852C25.6911 16.1293 25.9258 16.4547 26.1071 16.828C26.2991 17.1907 26.3951 17.6227 26.3951 18.124C26.3951 18.732 26.2511 19.2707 25.9631 19.74C25.6751 20.1987 25.2965 20.588 24.8271 20.908C24.3578 21.2173 23.8405 21.4467 23.2751 21.596C22.7098 21.756 22.1498 21.836 21.5951 21.836Z" fill="#FAFAFA"/>
<defs>
<linearGradient id="paint0_linear_119_23505" x1="0" y1="0" x2="30" y2="32" gradientUnits="userSpaceOnUse">
<stop stop-color="#D03789"/>
<stop offset="0.5" stop-color="#D82C4D"/>
<stop offset="1" stop-color="#DA5F35"/>
</linearGradient>
</defs>
</svg>
