<svg width="27" height="36" viewBox="0 0 27 36" fill="none" xmlns="http://www.w3.org/2000/svg">
<path d="M6.28314 14.2847C6.43411 14.8147 6.55423 15.3569 6.74157 15.8735C7.56145 18.1438 8.95547 19.9077 11.2223 20.8225C13.921 21.9125 16.9526 20.9765 18.8513 18.4685C19.312 17.8593 19.6437 17.1509 20.0316 16.486C20.0977 16.3744 20.1418 16.2494 20.2354 16.062C20.28 16.1606 20.3193 16.2615 20.3533 16.3643C20.9176 18.5298 20.9848 20.7567 21.1402 22.9713C21.1611 23.2714 21.2206 23.4432 21.5413 23.499C21.7969 23.5436 22.0416 23.6619 22.3479 23.7668C22.327 23.3595 22.3116 23.0126 22.2884 22.6667C22.1132 20.0081 21.9402 17.345 21.2305 14.7667C20.9566 13.7472 20.5742 12.7607 20.09 11.8247C19.237 10.2081 17.8364 9.35241 16.0126 9.5588C13.9706 9.78863 12.376 9.03221 10.9897 7.61532C10.528 7.14116 10.0817 6.6525 9.642 6.15715C9.44915 5.93959 9.24639 5.78117 8.94665 5.85815C8.64691 5.93513 8.53561 6.16273 8.48271 6.45503C8.12194 8.47021 7.27684 10.3645 6.02197 11.9709C5.04891 13.2215 4.7095 14.6116 4.7624 16.1557C4.78333 16.7738 4.7624 17.393 4.7624 18.0423C4.72778 18.0118 4.69672 17.9773 4.66983 17.9397C2.09117 13.0542 3.1017 6.51863 7.05784 2.71756C9.10754 0.747304 11.5385 -0.237827 14.3916 0.0488978C16.8446 0.295459 18.8513 1.4524 20.4933 3.27316C22.2873 5.26127 23.2681 7.63763 23.6494 10.2829C23.95 12.2862 24.0651 14.3136 23.9932 16.3387C23.8929 18.7675 23.4422 21.136 22.7887 23.4678C22.6841 23.8393 22.7623 23.9921 23.0918 24.1874C25.6264 25.6857 26.9488 27.9226 26.9906 30.907C27.0072 32.1844 26.9983 33.463 26.9906 34.7404C26.9906 35.5805 26.5796 36 25.7542 36C17.5884 36 9.42308 36 1.25807 36C0.429376 36 0.0216395 35.5827 0.0183335 34.7438C0.0183335 33.357 -0.0334619 31.9669 0.0370654 30.5846C0.199058 27.3982 1.78923 25.158 4.61693 23.8047C4.73177 23.7587 4.83419 23.6857 4.9158 23.5919C4.9974 23.498 5.05586 23.3859 5.08638 23.2647C5.66997 21.3827 5.97522 19.4235 5.99221 17.451C5.99221 16.5306 6.04401 15.6113 6.08368 14.692C6.10534 14.5492 6.14229 14.4093 6.19388 14.2747L6.28314 14.2847ZM15.6897 22.1368C14.3976 22.5252 13.0274 22.5637 11.7159 22.2483C11.6355 22.2283 11.4603 22.3599 11.4206 22.4603C11.2445 22.8981 11.0915 23.345 10.9622 23.7991C10.9459 23.874 10.9445 23.9515 10.9581 24.027C10.9717 24.1025 11.0001 24.1744 11.0415 24.2387C11.7093 25.1558 12.3882 26.0647 13.078 26.9654C13.4163 27.4116 13.8119 27.4116 14.1381 26.9654C14.825 26.0542 15.5027 25.132 16.1713 24.1985C16.2083 24.1475 16.2348 24.0896 16.2494 24.0281C16.2639 23.9666 16.2662 23.9028 16.2561 23.8404C16.0886 23.2848 15.8925 22.7381 15.6897 22.1368Z" fill="#E859FD"/>
</svg>
