<svg width="67" height="66" viewBox="0 0 67 66" fill="none" xmlns="http://www.w3.org/2000/svg">
<g clip-path="url(#clip0_33_53)">
<path d="M49.6948 0H17.1128C7.66165 0 0 7.56904 0 16.9059V49.0941C0 58.431 7.66165 66 17.1128 66H49.6948C59.1459 66 66.8076 58.431 66.8076 49.0941V16.9059C66.8076 7.56904 59.1459 0 49.6948 0Z" fill="white"/>
<path d="M13.7365 31.1325C17.1102 25.3952 20.2187 19.5956 23.8235 14.1177C28.2316 7.42066 38.4972 7.98091 42.5457 14.9088C47.9716 24.1995 53.3976 33.4911 58.8236 42.7835C61.9479 48.124 60.0943 54.9741 54.7016 57.9983C49.364 60.9811 42.5483 59.0773 39.4581 53.7524C36.6174 48.8529 33.9447 43.8418 30.8729 39.0927C27.1289 33.3216 21.5052 30.8965 14.6107 31.2907C14.4217 31.2907 14.23 31.3037 14.0384 31.2907C14.0016 31.3063 13.9622 31.2622 13.7365 31.1325Z" fill="url(#paint0_linear_33_53)"/>
<path d="M16.1335 59.4223C13.9939 59.3957 11.9101 58.7441 10.1447 57.5496C8.37922 56.3552 7.01108 54.6713 6.21259 52.7101C5.41409 50.7489 5.22097 48.5981 5.65753 46.5287C6.09409 44.4592 7.14082 42.5637 8.66585 41.0809C10.1909 39.5981 12.126 38.5943 14.2275 38.196C16.3289 37.7977 18.5027 38.0227 20.4749 38.8426C22.4472 39.6626 24.1297 41.0408 25.3105 42.8037C26.4913 44.5665 27.1176 46.6352 27.1105 48.7491C27.0895 54.7354 22.2429 59.4482 16.1335 59.4223Z" fill="url(#paint1_linear_33_53)"/>
<path d="M55.7071 9.70574C55.841 9.5579 55.9513 9.42302 56.0747 9.29852C56.5054 8.84217 57.0785 8.5417 57.7025 8.44518C58.2078 8.34814 58.7315 8.42687 59.1847 8.66799C59.6379 8.90912 59.9927 9.29779 60.1888 9.76799C60.4482 10.3366 60.5287 10.9692 60.4198 11.5836C60.3333 11.9843 60.1403 12.3549 59.8606 12.6574C59.4315 13.1755 58.96 13.6579 58.4507 14.0995C58.1565 14.348 57.8498 14.5817 57.5318 14.7998C56.9463 15.2174 56.353 15.622 55.7649 16.0344C55.7425 16.0533 55.7141 16.0636 55.6848 16.0636C55.6554 16.0636 55.627 16.0533 55.6047 16.0344C54.2834 15.1809 53.0652 14.181 51.9737 13.0542C51.7297 12.8229 51.517 12.5614 51.341 12.2761C51.0548 11.7634 50.9477 11.1717 51.0364 10.5928C51.0629 10.3011 51.142 10.0165 51.2701 9.75242C51.6324 9.08065 52.126 8.55412 52.932 8.42962C53.336 8.35484 53.7524 8.37911 54.1447 8.5003C54.5369 8.62149 54.8931 8.8359 55.182 9.12474C55.3579 9.29592 55.5154 9.48527 55.6835 9.66683C55.6887 9.67461 55.7071 9.68758 55.7071 9.70574Z" fill="url(#paint2_linear_33_53)"/>
</g>
<defs>
<linearGradient id="paint0_linear_33_53" x1="13.7365" y1="34.4058" x2="60.3489" y2="34.4058" gradientUnits="userSpaceOnUse">
<stop stop-color="#FA7154"/>
<stop offset="0.49" stop-color="#F9176D"/>
<stop offset="1" stop-color="#F308CF"/>
</linearGradient>
<linearGradient id="paint1_linear_33_53" x1="5.36381" y1="48.7128" x2="27.1105" y2="48.7128" gradientUnits="userSpaceOnUse">
<stop stop-color="#FA7154"/>
<stop offset="0.49" stop-color="#F9176D"/>
<stop offset="1" stop-color="#F308CF"/>
</linearGradient>
<linearGradient id="paint2_linear_33_53" x1="51.0049" y1="12.2294" x2="60.4645" y2="12.2294" gradientUnits="userSpaceOnUse">
<stop stop-color="#FA7154"/>
<stop offset="0.49" stop-color="#F9176D"/>
<stop offset="1" stop-color="#F308CF"/>
</linearGradient>
<clipPath id="clip0_33_53">
<rect width="67" height="66" fill="white"/>
</clipPath>
</defs>
</svg>
