<svg width="60" height="48" viewBox="0 0 60 48" fill="none" xmlns="http://www.w3.org/2000/svg">
<path d="M39.6525 47.9794H23.0941C22.6378 48.0328 22.1753 47.9821 21.7415 47.8309C21.3077 47.6797 20.9138 47.432 20.5896 47.1065C20.2654 46.7811 20.0193 46.3863 19.8698 45.9519C19.7204 45.5175 19.6714 45.0548 19.7267 44.5987V23.3869C19.6683 22.9308 19.7152 22.4674 19.8637 22.0322C20.0123 21.5971 20.2586 21.2017 20.5838 20.8766C20.9089 20.5514 21.3042 20.3051 21.7394 20.1565C22.1745 20.008 22.638 19.9611 23.0941 20.0195H56.2375C56.6891 19.9663 57.1468 20.0161 57.5764 20.1652C58.0059 20.3143 58.3961 20.5588 58.7176 20.8803C59.0391 21.2018 59.2836 21.592 59.4327 22.0215C59.5818 22.4511 59.6316 22.9088 59.5784 23.3604V44.5722C59.6334 45.0235 59.5854 45.4815 59.438 45.9116C59.2906 46.3417 59.0477 46.7329 58.7275 47.0557C58.4072 47.3785 58.018 47.6245 57.589 47.7753C57.1601 47.9261 56.7026 47.9777 56.2508 47.9263L39.6525 47.9794ZM39.6525 24.8452H30.5978C30.1776 24.8132 29.7554 24.8726 29.3604 25.0194C28.9654 25.1662 28.6069 25.3968 28.3095 25.6954C28.0122 25.994 27.7831 26.3535 27.638 26.7491C27.4929 27.1448 27.4352 27.5672 27.469 27.9872C27.469 31.9644 27.469 35.9416 27.469 39.9188C27.4306 40.3451 27.4862 40.7747 27.6316 41.1773C27.7771 41.5798 28.009 41.9456 28.311 42.2489C28.613 42.5522 28.9779 42.7856 29.3798 42.9327C29.7817 43.0799 30.2111 43.1372 30.6375 43.1006H48.5482C48.9747 43.1372 49.404 43.0799 49.806 42.9327C50.2079 42.7856 50.5727 42.5522 50.8747 42.2489C51.1768 41.9456 51.4087 41.5798 51.5542 41.1773C51.6996 40.7747 51.7551 40.3451 51.7168 39.9188C51.7168 35.9416 51.7168 31.9644 51.7168 27.9872C51.7554 27.5579 51.6992 27.1255 51.5523 26.7203C51.4054 26.3151 51.1713 25.9471 50.8666 25.6424C50.5618 25.3376 50.1939 25.1035 49.7887 24.9566C49.3835 24.8097 48.951 24.7535 48.5217 24.7922L39.6525 24.8452Z" fill="#E859FD"/>
<path d="M39.8116 4.72053H38.9101C29.1881 4.72053 19.4925 4.72053 9.82344 4.72053C8.69755 4.65283 7.5826 4.97414 6.66543 5.63064C5.74825 6.28715 5.0846 7.23896 4.78566 8.32654C4.65053 8.89076 4.58814 9.46993 4.60003 10.05C4.60003 15.7418 4.60003 21.4337 4.60003 27.1255V28.0005C3.76948 27.9925 2.94074 27.9216 2.12091 27.7884C1.48435 27.6156 0.926937 27.2284 0.542873 26.6921C0.158808 26.1559 -0.0283585 25.5035 0.0129904 24.8452V3.28871C-0.0281546 2.84727 0.0287232 2.4022 0.179598 1.98531C0.330472 1.56842 0.571627 1.19002 0.885757 0.877154C1.19989 0.56429 1.57925 0.324715 1.99674 0.175526C2.41424 0.0263368 2.85957 -0.0287908 3.30083 0.0141375H36.5371C36.9783 -0.0287908 37.4236 0.0263368 37.8411 0.175526C38.2586 0.324715 38.638 0.56429 38.9521 0.877154C39.2663 1.19002 39.5074 1.56842 39.6583 1.98531C39.8091 2.4022 39.866 2.84727 39.8249 3.28871L39.8116 4.72053Z" fill="#E859FD"/>
<path d="M46.3873 11.389H45.5256C35.8477 11.389 26.1831 11.389 16.5052 11.389C15.773 11.3452 15.04 11.4573 14.3544 11.7178C13.6688 11.9783 13.0462 12.3814 12.528 12.9003C12.0575 13.3834 11.6894 13.9565 11.4456 14.5852C11.2019 15.2139 11.0875 15.8854 11.1094 16.5593V34.5629C10.3549 34.6231 9.59687 34.6231 8.8424 34.5629C8.18393 34.433 7.5916 34.077 7.16792 33.5565C6.74423 33.0359 6.51586 32.3836 6.52236 31.7125C6.52236 30.0686 6.52236 28.4114 6.52236 26.7543V9.99697C6.47516 9.5571 6.52639 9.11221 6.67234 8.69458C6.81829 8.27694 7.05529 7.89702 7.3662 7.5823C7.67712 7.26757 8.05416 7.02594 8.46999 6.87492C8.88581 6.7239 9.32998 6.66727 9.7704 6.70912H43.0597C43.501 6.66338 43.9469 6.71662 44.365 6.86501C44.7831 7.0134 45.1628 7.25318 45.4765 7.56688C45.7902 7.88058 46.03 8.2603 46.1783 8.67839C46.3267 9.09648 46.38 9.54242 46.3343 9.9837L46.3873 11.389Z" fill="#E859FD"/>
<path d="M17.7381 41.2578C17.0537 41.298 16.3676 41.298 15.6832 41.2578C14.9689 41.1631 14.3148 40.8073 13.8473 40.2589C13.3797 39.7106 13.1317 39.0086 13.1511 38.2882C13.1511 35.6367 13.1511 32.9852 13.1511 30.3338V16.7052C13.0974 16.2541 13.147 15.7967 13.2962 15.3677C13.4453 14.9386 13.69 14.5491 14.0119 14.2285C14.3337 13.908 14.7242 13.6648 15.1539 13.5173C15.5835 13.3699 16.0411 13.3221 16.4919 13.3776H49.6354C50.0806 13.3294 50.5311 13.3816 50.9535 13.5305C51.3759 13.6794 51.7596 13.921 52.0763 14.2377C52.393 14.5544 52.6346 14.9381 52.7835 15.3605C52.9324 15.7829 52.9847 16.2334 52.9365 16.6786V18.0044H23.1736C22.4423 17.9392 21.7056 18.0355 21.0156 18.2864C20.3256 18.5374 19.6992 18.9369 19.1806 19.4567C18.6621 19.9765 18.2642 20.6039 18.0149 21.2945C17.7656 21.9851 17.6711 22.722 17.7381 23.4532V41.2048V41.2578Z" fill="#E859FD"/>
<path d="M39.626 41.1783H30.8762C29.8421 41.1783 29.5504 40.8866 29.5504 39.8526V28.1728C29.5504 27.1255 29.8421 26.8471 30.8762 26.8471C36.7624 26.8471 42.6531 26.8471 48.5482 26.8471C49.5425 26.8471 49.874 27.1387 49.874 28.1728V39.9188C49.874 40.9397 49.5691 41.2446 48.5482 41.2446L39.626 41.1783ZM34.6678 33.9928C34.6678 35.2522 34.6678 36.5117 34.6678 37.7711C34.6678 38.8185 35.3439 39.2427 36.2719 38.7787C38.8041 37.5325 41.323 36.2465 43.8552 34.9871C44.0681 34.9259 44.2552 34.797 44.3885 34.62C44.5217 34.4431 44.5938 34.2276 44.5938 34.0061C44.5938 33.7845 44.5217 33.569 44.3885 33.3921C44.2552 33.2151 44.0681 33.0863 43.8552 33.025L36.3382 29.2467C35.3704 28.7694 34.6943 29.2466 34.681 30.2675C34.6678 31.2883 34.6678 32.7466 34.6678 33.9928Z" fill="#E859FD"/>
<path d="M36.6829 36.3659V31.686L41.3893 34.0326L36.6829 36.3659Z" fill="#E859FD"/>
</svg>
