<svg width="113" height="66" viewBox="0 0 113 66" fill="none" xmlns="http://www.w3.org/2000/svg">
<g clip-path="url(#clip0_33_42)">
<path d="M77.845 54.6265L79.4072 54.3282C79.4492 55.7288 79.6365 56.6876 79.969 57.2047C80.1076 57.4452 80.3093 57.6444 80.5528 57.7813C80.7962 57.9182 81.0725 57.9878 81.3526 57.9828C81.7675 57.9906 82.1696 57.8412 82.4764 57.5652C82.8063 57.2601 83.0344 56.8629 83.1301 56.4265C83.273 55.67 83.3328 54.9004 83.3086 54.1311V41.5074H85.0388V53.9988C85.0388 55.5343 84.9067 56.7231 84.6424 57.5652C84.4344 58.3203 83.994 58.9928 83.3821 59.4897C82.805 59.933 82.0914 60.1674 81.3605 60.1537C80.8375 60.1723 80.3189 60.0534 79.8576 59.8092C79.3963 59.5649 79.009 59.2041 78.7351 58.7635C78.1172 57.8332 77.8205 56.4542 77.845 54.6265Z" fill="black"/>
<path d="M88.2629 59.8295L93.2854 41.5074H95.1495L100.505 59.8399H98.5337L97.0057 54.2867H91.5342L90.1007 59.8295H88.2629ZM92.0383 52.3077H96.4727L95.1048 47.2136C94.6883 45.6695 94.3793 44.402 94.1781 43.4112C94.0105 44.5908 93.7747 45.7599 93.4718 46.9128L92.0383 52.3077Z" fill="black"/>
<path d="M106.1 59.8295L101.031 41.5074H102.905L106.318 54.8262C106.591 55.8931 106.821 56.8934 107.006 57.8272C107.207 56.826 107.442 55.8257 107.71 54.8262L111.23 41.5074H113L107.875 59.8295H106.1Z" fill="black"/>
<path d="M93.0858 30.1521H85.8002L84.7894 34.9531H78.2257L86.0312 5.85923H93.0412L100.844 34.9531H94.1255L93.0858 30.1521ZM91.7547 23.8701L89.4627 13.4122L87.1943 23.8701H91.7547Z" fill="black"/>
<path d="M106.04 5.85923H112.47V34.9531H106.04V5.85923Z" fill="black"/>
<path d="M49.6948 0H17.1128C7.66165 0 0 7.56904 0 16.9059V49.0941C0 58.431 7.66165 66 17.1128 66H49.6948C59.1459 66 66.8076 58.431 66.8076 49.0941V16.9059C66.8076 7.56904 59.1459 0 49.6948 0Z" fill="white"/>
<path d="M13.7364 31.1325C17.1102 25.3952 20.2187 19.5956 23.8235 14.1177C28.2316 7.42066 38.4972 7.98091 42.5457 14.9088C47.9716 24.1995 53.3976 33.4911 58.8235 42.7835C61.9478 48.124 60.0943 54.9741 54.7016 57.9983C49.364 60.9811 42.5483 59.0773 39.4581 53.7524C36.6174 48.8529 33.9446 43.8418 30.8728 39.0927C27.1289 33.3216 21.5052 30.8965 14.6107 31.2907C14.4217 31.2907 14.23 31.3037 14.0384 31.2907C14.0016 31.3063 13.9622 31.2622 13.7364 31.1325Z" fill="url(#paint0_linear_33_42)"/>
<path d="M16.1335 59.4223C13.9939 59.3957 11.9101 58.7441 10.1447 57.5496C8.37924 56.3552 7.0111 54.6713 6.2126 52.7101C5.41411 50.7489 5.22098 48.5981 5.65754 46.5287C6.09411 44.4592 7.14083 42.5637 8.66587 41.0809C10.1909 39.5981 12.126 38.5943 14.2275 38.196C16.3289 37.7977 18.5027 38.0227 20.4749 38.8426C22.4472 39.6626 24.1297 41.0408 25.3105 42.8037C26.4913 44.5665 27.1176 46.6352 27.1105 48.7491C27.0895 54.7354 22.2429 59.4482 16.1335 59.4223Z" fill="url(#paint1_linear_33_42)"/>
<path d="M55.7071 9.70574C55.841 9.5579 55.9513 9.42302 56.0747 9.29852C56.5054 8.84217 57.0785 8.5417 57.7025 8.44518C58.2078 8.34814 58.7315 8.42687 59.1847 8.66799C59.6379 8.90912 59.9927 9.29779 60.1888 9.76799C60.4482 10.3366 60.5287 10.9692 60.4198 11.5836C60.3333 11.9843 60.1403 12.3549 59.8606 12.6574C59.4315 13.1755 58.96 13.6579 58.4507 14.0995C58.1565 14.348 57.8498 14.5817 57.5318 14.7998C56.9463 15.2174 56.353 15.622 55.7649 16.0344C55.7425 16.0533 55.7141 16.0636 55.6848 16.0636C55.6554 16.0636 55.627 16.0533 55.6047 16.0344C54.2834 15.1809 53.0652 14.181 51.9737 13.0542C51.7297 12.8229 51.517 12.5614 51.341 12.2761C51.0548 11.7634 50.9477 11.1717 51.0364 10.5928C51.0629 10.3011 51.142 10.0165 51.2701 9.75242C51.6324 9.08065 52.126 8.55412 52.932 8.42962C53.336 8.35484 53.7524 8.37911 54.1447 8.5003C54.5369 8.62149 54.8931 8.8359 55.182 9.12474C55.3579 9.29592 55.5154 9.48527 55.6835 9.66683C55.6887 9.67461 55.7071 9.68758 55.7071 9.70574Z" fill="url(#paint2_linear_33_42)"/>
</g>
<defs>
<linearGradient id="paint0_linear_33_42" x1="13.7364" y1="34.4058" x2="60.3489" y2="34.4058" gradientUnits="userSpaceOnUse">
<stop stop-color="#FA7154"/>
<stop offset="0.49" stop-color="#F9176D"/>
<stop offset="1" stop-color="#F308CF"/>
</linearGradient>
<linearGradient id="paint1_linear_33_42" x1="5.36383" y1="48.7128" x2="27.1105" y2="48.7128" gradientUnits="userSpaceOnUse">
<stop stop-color="#FA7154"/>
<stop offset="0.49" stop-color="#F9176D"/>
<stop offset="1" stop-color="#F308CF"/>
</linearGradient>
<linearGradient id="paint2_linear_33_42" x1="51.0049" y1="12.2294" x2="60.4645" y2="12.2294" gradientUnits="userSpaceOnUse">
<stop stop-color="#FA7154"/>
<stop offset="0.49" stop-color="#F9176D"/>
<stop offset="1" stop-color="#F308CF"/>
</linearGradient>
<clipPath id="clip0_33_42">
<rect width="113" height="66" fill="white"/>
</clipPath>
</defs>
</svg>
