<svg width="23" height="18" viewBox="0 0 23 18" fill="none" xmlns="http://www.w3.org/2000/svg">
<g clip-path="url(#clip0_2_5)">
<path d="M21 0H2C0.89543 0 0 0.89543 0 2V16C0 17.1046 0.89543 18 2 18H21C22.1046 18 23 17.1046 23 16V2C23 0.89543 22.1046 0 21 0Z" fill="url(#paint0_linear_2_5)"/>
<path d="M10.4322 5.704C10.1655 5.91733 9.96818 6.10933 9.84018 6.28C9.71218 6.45067 9.60018 6.68 9.50418 6.968L7.48818 13H6.09618L4.04818 6.968C3.94151 6.66933 3.82418 6.43467 3.69618 6.264C3.57884 6.09333 3.38684 5.90667 3.12018 5.704L3.24818 5.528H6.16018L6.25618 5.816L6.03218 5.88C5.86151 5.92267 5.74418 5.98667 5.68018 6.072C5.61618 6.14667 5.58418 6.25867 5.58418 6.408C5.58418 6.51467 5.62151 6.68533 5.69618 6.92L7.29618 11.736L8.89618 6.952C8.97084 6.71733 9.00818 6.54133 9.00818 6.424C9.00818 6.296 8.97084 6.19467 8.89618 6.12C8.83218 6.03467 8.72018 5.97067 8.56018 5.928L8.27218 5.816L8.38418 5.528H10.3042L10.4322 5.704ZM10.6586 12.712C10.9039 12.648 11.0799 12.584 11.1866 12.52C11.3039 12.4453 11.3786 12.3493 11.4106 12.232C11.4532 12.104 11.4746 11.9173 11.4746 11.672V7.512C11.4746 7 11.4319 6.64267 11.3466 6.44C11.2719 6.22667 11.0799 5.992 10.7706 5.736L10.9146 5.528H13.6186L13.7306 5.784C13.4212 5.96533 13.2239 6.136 13.1386 6.296C13.0532 6.44533 13.0106 6.71733 13.0106 7.112V11.048C13.0106 11.5493 13.0479 11.9067 13.1226 12.12C13.2079 12.3227 13.3999 12.552 13.6986 12.808L13.5706 13H10.7706L10.6586 12.712ZM20.6098 7.864C20.6098 8.32267 20.4978 8.728 20.2738 9.08C20.0605 9.42133 19.7725 9.68267 19.4098 9.864C19.0578 10.0453 18.6845 10.136 18.2898 10.136C17.8738 10.136 17.4791 10.0293 17.1058 9.816L17.1378 9.672L17.4098 9.688L17.6818 9.672C18.0978 9.608 18.4231 9.42133 18.6578 9.112C18.8925 8.792 19.0098 8.37067 19.0098 7.848C19.0098 7.26133 18.8765 6.77067 18.6098 6.376C18.3538 5.97067 17.9965 5.768 17.5378 5.768C17.2925 5.768 17.1111 5.83733 16.9938 5.976C16.8871 6.11467 16.8338 6.26933 16.8338 6.44V10.904C16.8338 11.3307 16.8658 11.6667 16.9298 11.912C17.0045 12.1573 17.1325 12.4027 17.3138 12.648L17.4418 12.84L17.3138 13H14.5298L14.4178 12.712C14.6951 12.6373 14.8871 12.568 14.9938 12.504C15.1111 12.44 15.1911 12.3493 15.2338 12.232C15.2765 12.1147 15.2978 11.928 15.2978 11.672V7.416C15.2978 7.04267 15.2658 6.76 15.2018 6.568C15.1485 6.36533 15.0151 6.2 14.8018 6.072L14.6098 5.96L14.6738 5.752C14.9831 5.656 15.3831 5.57067 15.8738 5.496C16.3751 5.42133 16.8498 5.384 17.2978 5.384C18.3858 5.384 19.2071 5.61333 19.7618 6.072C20.3271 6.52 20.6098 7.11733 20.6098 7.864Z" fill="black"/>
</g>
<defs>
<linearGradient id="paint0_linear_2_5" x1="0" y1="9" x2="23" y2="9" gradientUnits="userSpaceOnUse">
<stop stop-color="#FCD02C"/>
<stop offset="1" stop-color="#FCD02C"/>
</linearGradient>
<clipPath id="clip0_2_5">
<rect width="23" height="18" fill="white"/>
</clipPath>
</defs>
</svg>
