<svg width="23" height="18" viewBox="0 0 23 18" fill="none" xmlns="http://www.w3.org/2000/svg">
<g clip-path="url(#clip0_2_8)">
<path d="M21 0H2C0.89543 0 0 0.89543 0 2V16C0 17.1046 0.89543 18 2 18H21C22.1046 18 23 17.1046 23 16V2C23 0.89543 22.1046 0 21 0Z" fill="url(#paint0_linear_2_8)"/>
<path d="M6.62 4.76H7.38C8.63 6.13 10.07 7.21 11.71 7.99L11.14 9.01C10.56 8.71 10.02 8.37 9.51 8.01V8.73H4.52V7.97C3.99 8.34 3.42 8.69 2.82 9.02L2.26 8C4.01 7.14 5.46 6.06 6.62 4.76ZM4.82 7.75H9.17C8.35 7.14 7.63 6.46 7 5.7C6.38 6.44 5.66 7.13 4.82 7.75ZM2.95 9.75H11.07V10.77H6.42C6 11.55 5.51 12.24 4.95 12.82C6.3 12.74 7.62 12.63 8.9 12.48C8.61 12.12 8.3 11.75 7.97 11.37L8.78 10.86C9.69 11.84 10.39 12.7 10.89 13.42L10.02 14.03C9.85 13.77 9.67 13.5 9.48 13.24C7.93 13.48 6 13.67 3.68 13.81L3.4 12.9C3.65 12.84 3.83 12.74 3.94 12.62C4.44 12.03 4.86 11.41 5.21 10.77H2.95V9.75ZM20.48 8.35V12.16H19.44V9.3H14.57V12.32H13.53V8.35H20.48ZM14.12 5.06H19.89V7.79H14.12V5.06ZM18.88 6.89V5.98H15.13V6.89H18.88ZM16.56 9.77L17.62 9.87C17.48 11.39 17.17 12.39 16.69 12.88C16.19 13.5 14.97 13.91 13.01 14.09L12.6 13.14C14.2 13.06 15.26 12.77 15.78 12.27C16.23 11.79 16.49 10.95 16.56 9.77ZM17.82 12.01C19.11 12.35 20.29 12.75 21.37 13.23L20.81 14.1C19.67 13.54 18.5 13.1 17.3 12.78L17.82 12.01Z" fill="#050505"/>
</g>
<defs>
<linearGradient id="paint0_linear_2_8" x1="0" y1="9" x2="23" y2="9" gradientUnits="userSpaceOnUse">
<stop stop-color="#FCD02C"/>
<stop offset="1" stop-color="#FCD02C"/>
</linearGradient>
<clipPath id="clip0_2_8">
<rect width="23" height="18" fill="white"/>
</clipPath>
</defs>
</svg>
