<svg width="23" height="18" viewBox="0 0 23 18" fill="none" xmlns="http://www.w3.org/2000/svg">
<g clip-path="url(#clip0_2_2)">
<path d="M21 0H2C0.89543 0 0 0.89543 0 2V16C0 17.1046 0.89543 18 2 18H21C22.1046 18 23 17.1046 23 16V2C23 0.89543 22.1046 0 21 0Z" fill="url(#paint0_linear_2_2)"/>
<path d="M2.86078 3.288H3.73278V5.256C3.73278 5.656 3.80478 5.936 3.95678 6.112C4.10878 6.28 4.38078 6.368 4.77278 6.368C5.30078 6.368 5.82078 6.08 6.33278 5.512V3.288H7.20478V9H6.33278V6.32C6.20478 6.448 6.05278 6.576 5.89278 6.688C5.45278 6.984 4.99678 7.136 4.52478 7.136C3.96478 7.136 3.55678 7 3.30078 6.736C3.00478 6.456 2.86078 6.008 2.86078 5.392V3.288ZM9.33753 4.864H12.1215V9H11.2735V5.56H10.0735L9.69753 7.776C9.61753 8.24 9.44153 8.568 9.16953 8.768C8.95353 8.92 8.68153 9 8.35353 9H7.92953V8.304H8.21753C8.37753 8.304 8.50553 8.256 8.60953 8.176C8.72953 8.064 8.81753 7.888 8.86553 7.64L9.33753 4.864ZM14.8297 4.752C15.5017 4.752 16.0217 4.976 16.3737 5.44C16.6937 5.856 16.8617 6.432 16.8697 7.168H13.7337C13.7657 7.568 13.8697 7.88 14.0617 8.096C14.2537 8.304 14.5177 8.416 14.8537 8.416C15.1497 8.416 15.3897 8.344 15.5737 8.208C15.7177 8.096 15.8377 7.912 15.9497 7.672H16.7977C16.7017 8.056 16.5177 8.384 16.2297 8.64C15.8697 8.952 15.4137 9.112 14.8617 9.112C14.2537 9.112 13.7657 8.92 13.4137 8.544C13.0297 8.144 12.8377 7.608 12.8377 6.928C12.8377 6.312 13.0137 5.8 13.3817 5.384C13.7337 4.96 14.2217 4.752 14.8297 4.752ZM14.8537 5.448C14.5337 5.448 14.2857 5.536 14.0937 5.728C13.9177 5.912 13.7977 6.176 13.7497 6.528H15.9817C15.9017 5.808 15.5257 5.448 14.8537 5.448ZM17.5933 4.864H18.4413V6.488H20.3613V4.864H21.2093V9H20.3613V7.184H18.4413V9H17.5933V4.864ZM5.52703 10.752C6.05503 10.752 6.47903 10.872 6.79903 11.112C7.11903 11.368 7.32703 11.752 7.40703 12.264H6.56703C6.51103 11.984 6.39903 11.776 6.22303 11.648C6.04703 11.512 5.81503 11.448 5.52703 11.448C5.17503 11.448 4.90303 11.576 4.70303 11.84C4.49503 12.096 4.39903 12.464 4.39903 12.928C4.39903 13.392 4.49503 13.76 4.69503 14.024C4.87903 14.28 5.15103 14.416 5.51903 14.416C6.15103 14.416 6.50303 14.096 6.58303 13.472H7.42303C7.32703 14.024 7.11103 14.44 6.79103 14.712C6.47103 14.976 6.03903 15.112 5.51103 15.112C4.87903 15.112 4.39103 14.904 4.03903 14.488C3.69503 14.088 3.52703 13.576 3.52703 12.936C3.52703 12.312 3.69503 11.8 4.03103 11.4C4.39103 10.968 4.88703 10.752 5.52703 10.752ZM7.82797 10.864H11.428V11.56H10.052V15H9.20397V11.56H7.82797V10.864ZM12.0777 10.864H14.2857C14.6777 10.864 14.9817 10.936 15.1897 11.088C15.4297 11.256 15.5497 11.528 15.5497 11.896C15.5497 12.36 15.3097 12.664 14.8377 12.824C15.4137 13.008 15.7017 13.336 15.7017 13.8C15.7017 14.192 15.5737 14.488 15.3177 14.696C15.0617 14.896 14.6777 15 14.1657 15H12.0777V10.864ZM12.9257 11.52V12.552H14.0617C14.2857 12.552 14.4537 12.512 14.5817 12.44C14.7177 12.352 14.7897 12.216 14.7897 12.04C14.7897 11.688 14.5497 11.52 14.0777 11.52H12.9257ZM12.9257 13.2V14.336H14.0857C14.4137 14.336 14.6457 14.28 14.7737 14.176C14.8857 14.088 14.9417 13.944 14.9417 13.744C14.9417 13.376 14.6457 13.2 14.0617 13.2H12.9257ZM18.4035 10.752C19.0275 10.752 19.5315 10.96 19.9075 11.376C20.2755 11.784 20.4675 12.304 20.4675 12.936C20.4675 13.56 20.2835 14.08 19.9155 14.48C19.5315 14.896 19.0275 15.112 18.4035 15.112C17.7795 15.112 17.2755 14.896 16.8915 14.48C16.5235 14.08 16.3395 13.56 16.3395 12.936C16.3395 12.304 16.5235 11.784 16.8995 11.376C17.2755 10.96 17.7795 10.752 18.4035 10.752ZM18.4035 11.448C18.0115 11.448 17.7075 11.6 17.4915 11.912C17.2995 12.176 17.2115 12.52 17.2115 12.936C17.2115 13.352 17.2995 13.688 17.4915 13.952C17.7075 14.256 18.0115 14.416 18.4035 14.416C18.7955 14.416 19.0995 14.256 19.3235 13.952C19.5155 13.68 19.6115 13.344 19.6115 12.936C19.6115 12.52 19.5155 12.176 19.3235 11.912C19.0995 11.6 18.7955 11.448 18.4035 11.448Z" fill="#050505"/>
</g>
<defs>
<linearGradient id="paint0_linear_2_2" x1="0" y1="9" x2="23" y2="9" gradientUnits="userSpaceOnUse">
<stop stop-color="#FCD02C"/>
<stop offset="1" stop-color="#FCD02C"/>
</linearGradient>
<clipPath id="clip0_2_2">
<rect width="23" height="18" fill="white"/>
</clipPath>
</defs>
</svg>
