<svg width="22" height="24" viewBox="0 0 22 24" fill="none" xmlns="http://www.w3.org/2000/svg">
<path fill-rule="evenodd" clip-rule="evenodd" d="M12.1774 0.366282C12.0286 0.168002 11.805 0.0383931 11.558 0.00725114C11.311 -0.0238909 11.0619 0.0461128 10.8679 0.201169C8.58214 2.02837 6.98793 4.67922 6.54283 7.70097C5.74035 7.12305 5.03555 6.41892 4.45817 5.61788C4.29934 5.39751 4.04996 5.25889 3.77783 5.23969C3.5057 5.22048 3.2391 5.3227 3.0505 5.51855C1.16168 7.48004 0 10.1421 0 13.0719C0 19.1073 4.92487 24 11 24C17.0751 24 22 19.1073 22 13.0719C22 8.62669 19.3286 4.80334 15.4975 3.09621C14.1418 2.43871 13.0224 1.49194 12.1774 0.366282ZM15.5833 14.8937C15.5833 17.4085 13.5313 19.4471 11 19.4471C8.46869 19.4471 6.41667 17.4085 6.41667 14.8937C6.41667 14.3967 6.49683 13.9182 6.645 13.4705C7.41313 14.0346 8.29607 14.4533 9.2526 14.6856C9.51646 12.9847 10.3725 11.478 11.6049 10.3796C13.8503 10.6737 15.5833 12.5827 15.5833 14.8937Z" fill="url(#paint0_linear_795_35909)"/>
<defs>
<linearGradient id="paint0_linear_795_35909" x1="22" y1="24" x2="-4.50633" y2="16.9552" gradientUnits="userSpaceOnUse">
<stop stop-color="#FFBD62"/>
<stop offset="1" stop-color="#FB9400"/>
</linearGradient>
</defs>
</svg>
